<svg xmlns="http://www.w3.org/2000/svg" xmlns:xlink="http://www.w3.org/1999/xlink" width="500" zoomAndPan="magnify" viewBox="0 0 375 374.999991" height="500" preserveAspectRatio="xMidYMid meet" version="1.0"><defs><filter x="0%" y="0%" width="100%" height="100%" id="3179410bde"><feColorMatrix values="0 0 0 0 1 0 0 0 0 1 0 0 0 0 1 0 0 0 1 0" color-interpolation-filters="sRGB"/></filter><g/><clipPath id="0ec8f98e2c"><path d="M 141 206 L 166 206 L 166 226 L 141 226 Z M 141 206 " clip-rule="nonzero"/></clipPath><clipPath id="3d927b124d"><path d="M 139.785156 208.527344 L 165.078125 205.269531 L 167.375 223.125 L 142.085938 226.378906 Z M 139.785156 208.527344 " clip-rule="nonzero"/></clipPath><clipPath id="3c557493a0"><path d="M 139.785156 208.527344 L 165.078125 205.269531 L 167.375 223.125 L 142.085938 226.378906 Z M 139.785156 208.527344 " clip-rule="nonzero"/></clipPath><mask id="410577410c"><g filter="url(#3179410bde)"><rect x="-37.5" width="450" fill="#000000" y="-37.499999" height="449.999989" fill-opacity="0.82"/></g></mask><clipPath id="8aea1121e4"><rect x="0" width="106" y="0" height="16"/></clipPath><clipPath id="b0cc96fd86"><path d="M 137 190 L 236 190 L 236 221 L 137 221 Z M 137 190 " clip-rule="nonzero"/></clipPath><clipPath id="15fcf44d5b"><path d="M 136.796875 190.015625 L 238.15625 207.601562 L 235.886719 220.675781 L 134.527344 203.089844 Z M 136.796875 190.015625 " clip-rule="nonzero"/></clipPath><clipPath id="7f80885976"><path d="M 137.832031 190.238281 C 216.015625 214.277344 233.101562 218.722656 235.273438 219.757812 C 235.605469 219.921875 235.710938 220.019531 235.699219 220.097656 C 235.683594 220.171875 235.121094 220.289062 235.007812 220.242188 C 234.835938 220.183594 234.738281 219.71875 234.859375 219.714844 C 234.980469 219.707031 235.703125 220.070312 235.6875 220.148438 C 235.675781 220.226562 235.421875 220.289062 235.066406 220.25 C 232.449219 220.035156 215.464844 214.65625 203.132812 210.984375 C 186.039062 205.875 151.269531 195.214844 142.242188 192.300781 C 139.613281 191.449219 137.765625 190.96875 137.226562 190.609375 C 137.007812 190.46875 136.96875 190.355469 137.039062 190.289062 C 137.113281 190.222656 137.832031 190.238281 137.832031 190.238281 " clip-rule="nonzero"/></clipPath><clipPath id="68499a3b05"><path d="M 200.535156 160.53125 L 205 160.53125 L 205 166.6875 L 200.535156 166.6875 Z M 200.535156 160.53125 " clip-rule="nonzero"/></clipPath><clipPath id="6e9bcaf018"><path d="M 201 164.925781 C 202.574219 161.324219 204.148438 160.574219 204.601562 160.800781 C 204.898438 160.949219 205.050781 161.625 204.976562 162.074219 C 204.898438 162.675781 204.300781 163.273438 203.773438 163.949219 C 203.101562 164.773438 201.675781 166.574219 201.148438 166.648438 C 200.925781 166.648438 200.625 166.5 200.625 166.273438 C 200.550781 165.675781 203.550781 163.722656 203.925781 162.75 C 204.074219 162.300781 204.074219 161.550781 203.851562 161.472656 C 203.625 161.398438 202.726562 162.148438 202.351562 162.675781 C 201.898438 163.347656 202.050781 165.074219 201.675781 165.222656 C 201.449219 165.300781 201 164.925781 201 164.925781 " clip-rule="nonzero"/></clipPath><clipPath id="366f4b5c8f"><path d="M 138 166.253906 L 236.664062 166.253906 L 236.664062 216.402344 L 138 216.402344 Z M 138 166.253906 " clip-rule="nonzero"/></clipPath><clipPath id="980d2c3581"><path d="M 138.148438 186.300781 C 147.449219 177.375 150 175.574219 152.625 174.148438 C 155.175781 172.726562 157.726562 171.675781 160.5 170.699219 C 163.351562 169.648438 165.898438 168.75 169.425781 168.074219 C 174.375 167.175781 182.023438 166.351562 187.425781 166.648438 C 191.851562 166.949219 196.050781 168.074219 199.5 169.125 C 202.273438 169.949219 204.300781 170.773438 206.699219 171.976562 C 209.398438 173.324219 212.175781 175.050781 214.875 177 C 217.726562 179.101562 220.875 181.800781 223.199219 184.125 C 225.074219 186 226.351562 187.199219 227.851562 189.523438 C 230.023438 192.898438 232.949219 198.976562 234.300781 202.800781 C 235.273438 205.5 235.648438 207.675781 235.949219 210 C 236.25 212.101562 236.625 215.699219 236.101562 216.226562 C 235.949219 216.375 235.351562 216.226562 235.351562 216.226562 C 235.351562 216.226562 236.101562 216 236.101562 216 C 236.101562 216 235.574219 216.375 235.351562 216.226562 C 234.824219 215.851562 235.425781 212.25 235.199219 210.148438 C 234.898438 207.898438 234.523438 205.800781 233.625 203.175781 C 232.273438 199.425781 229.425781 193.273438 227.25 189.976562 C 225.75 187.648438 224.550781 186.523438 222.675781 184.648438 C 220.125 182.175781 216.75 179.023438 213.074219 176.625 C 209.023438 174 203.851562 171.449219 199.351562 169.875 C 195.300781 168.523438 191.851562 167.699219 187.425781 167.398438 C 182.101562 167.101562 174.523438 167.925781 169.648438 168.824219 C 166.125 169.425781 163.574219 170.324219 160.726562 171.375 C 158.023438 172.351562 155.476562 173.398438 153 174.75 C 150.449219 176.175781 147.898438 177.898438 145.574219 179.851562 C 143.101562 181.875 139.5 186.976562 138.601562 186.898438 C 138.375 186.898438 138.148438 186.300781 138.148438 186.300781 " clip-rule="nonzero"/></clipPath></defs><g clip-path="url(#0ec8f98e2c)"><g clip-path="url(#3d927b124d)"><g clip-path="url(#3c557493a0)"><path fill="#f5f5f5" d="M 142.535156 212.246094 C 143.46875 210.894531 144.644531 209.820312 146.066406 209.015625 C 146.742188 208.640625 147.449219 208.324219 148.179688 208.0625 C 149.039062 207.753906 149.917969 207.503906 150.824219 207.371094 C 152.8125 207.082031 154.832031 207.273438 156.816406 207.507812 C 158.449219 207.703125 160.121094 207.875 161.679688 208.441406 C 163.117188 208.964844 164.417969 209.875 165.125 211.277344 C 165.800781 212.644531 165.933594 214.058594 165.515625 215.523438 C 165.308594 216.246094 164.964844 216.890625 164.480469 217.460938 C 163.949219 218.082031 163.289062 218.574219 162.574219 218.957031 C 161.023438 219.78125 159.285156 220.089844 157.566406 220.320312 C 155.6875 220.570312 153.746094 220.742188 151.984375 221.492188 C 150.601562 222.085938 149.300781 223.03125 148.554688 224.378906 C 148.375 224.703125 148.234375 225.042969 148.132812 225.402344 L 148.324219 225.378906 C 147.410156 224.199219 147.128906 222.5625 147.601562 221.144531 C 147.632812 221.058594 147.550781 220.945312 147.453125 220.992188 C 146.425781 221.527344 145.210938 221.480469 144.160156 221.03125 C 143.011719 220.550781 142.1875 219.734375 141.6875 218.582031 C 141.152344 217.335938 141.132812 215.925781 141.460938 214.625 C 141.796875 213.292969 142.503906 212.105469 143.457031 211.132812 C 144.414062 210.152344 145.574219 209.382812 146.75 208.699219 C 146.898438 208.613281 147.046875 208.527344 147.195312 208.445312 C 147.320312 208.375 147.234375 208.160156 147.105469 208.234375 C 145.875 208.929688 144.660156 209.683594 143.617188 210.65625 C 142.585938 211.621094 141.78125 212.800781 141.355469 214.164062 C 140.945312 215.488281 140.878906 216.941406 141.328125 218.269531 C 141.746094 219.527344 142.542969 220.457031 143.707031 221.066406 C 144.753906 221.617188 146.015625 221.796875 147.132812 221.382812 C 147.273438 221.332031 147.410156 221.273438 147.542969 221.203125 L 147.390625 221.050781 C 146.890625 222.550781 147.179688 224.269531 148.144531 225.515625 C 148.195312 225.578125 148.316406 225.578125 148.339844 225.492188 C 148.773438 223.960938 149.960938 222.808594 151.3125 222.070312 C 152.976562 221.164062 154.867188 220.898438 156.714844 220.660156 C 158.511719 220.429688 160.332031 220.207031 162.011719 219.476562 C 163.464844 218.847656 164.792969 217.820312 165.460938 216.332031 C 166.0625 214.992188 166.113281 213.421875 165.667969 212.023438 C 165.445312 211.308594 165.09375 210.667969 164.613281 210.101562 C 164.105469 209.503906 163.464844 209.03125 162.773438 208.667969 C 161.328125 207.914062 159.6875 207.640625 158.09375 207.433594 C 156.136719 207.179688 154.15625 206.925781 152.179688 207.015625 C 151.175781 207.0625 150.171875 207.203125 149.207031 207.488281 C 148.425781 207.710938 147.667969 207.992188 146.925781 208.324219 C 145.484375 208.980469 144.179688 209.902344 143.132812 211.105469 C 142.855469 211.421875 142.597656 211.757812 142.355469 212.105469 C 142.273438 212.226562 142.453125 212.367188 142.539062 212.246094 Z M 142.535156 212.246094 " fill-opacity="1" fill-rule="nonzero"/></g></g></g><g mask="url(#410577410c)"><g transform="matrix(1, 0, 0, 1, 131, 233)"><g clip-path="url(#8aea1121e4)"><g fill="#f5f5f5" fill-opacity="1"><g transform="translate(1.031754, 11.922137)"><g><path d="M 4.328125 -0.515625 C 4.015625 -0.515625 3.710938 -0.5625 3.421875 -0.65625 C 3.128906 -0.757812 2.867188 -0.914062 2.640625 -1.125 C 2.410156 -1.34375 2.226562 -1.628906 2.09375 -1.984375 C 1.957031 -2.335938 1.890625 -2.769531 1.890625 -3.28125 C 1.890625 -3.8125 1.960938 -4.257812 2.109375 -4.625 C 2.265625 -5 2.453125 -5.296875 2.671875 -5.515625 C 2.890625 -5.742188 3.132812 -5.90625 3.40625 -6 C 3.675781 -6.101562 3.9375 -6.15625 4.1875 -6.15625 C 4.582031 -6.15625 4.925781 -6.050781 5.21875 -5.84375 C 5.519531 -5.632812 5.71875 -5.375 5.8125 -5.0625 L 6.71875 -5.0625 C 6.625 -5.375 6.484375 -5.632812 6.296875 -5.84375 C 6.109375 -6.050781 5.890625 -6.21875 5.640625 -6.34375 C 5.390625 -6.46875 5.125 -6.550781 4.84375 -6.59375 C 4.5625 -6.644531 4.285156 -6.671875 4.015625 -6.671875 C 3.472656 -6.671875 2.992188 -6.582031 2.578125 -6.40625 C 2.160156 -6.226562 1.804688 -5.984375 1.515625 -5.671875 C 1.222656 -5.367188 1.003906 -5.015625 0.859375 -4.609375 C 0.722656 -4.203125 0.65625 -3.769531 0.65625 -3.3125 C 0.65625 -2.820312 0.734375 -2.363281 0.890625 -1.9375 C 1.046875 -1.519531 1.269531 -1.15625 1.5625 -0.84375 C 1.851562 -0.53125 2.203125 -0.285156 2.609375 -0.109375 C 3.015625 0.0664062 3.476562 0.15625 4 0.15625 C 4.570312 0.15625 5.070312 0.0625 5.5 -0.125 C 5.9375 -0.320312 6.300781 -0.53125 6.59375 -0.75 L 6.21875 -1.25 C 5.914062 -1 5.613281 -0.8125 5.3125 -0.6875 C 5.007812 -0.570312 4.679688 -0.515625 4.328125 -0.515625 Z M 4.328125 -0.515625 "/></g></g></g><g fill="#f5f5f5" fill-opacity="1"><g transform="translate(8.133499, 11.922137)"><g><path d="M 7.421875 -3.25 C 7.421875 -2.800781 7.34375 -2.367188 7.1875 -1.953125 C 7.03125 -1.535156 6.804688 -1.171875 6.515625 -0.859375 C 6.222656 -0.546875 5.867188 -0.296875 5.453125 -0.109375 C 5.035156 0.0664062 4.570312 0.15625 4.0625 0.15625 C 3.539062 0.15625 3.066406 0.0625 2.640625 -0.125 C 2.222656 -0.3125 1.867188 -0.5625 1.578125 -0.875 C 1.285156 -1.1875 1.054688 -1.550781 0.890625 -1.96875 C 0.734375 -2.382812 0.65625 -2.8125 0.65625 -3.25 C 0.65625 -3.707031 0.734375 -4.140625 0.890625 -4.546875 C 1.054688 -4.960938 1.285156 -5.328125 1.578125 -5.640625 C 1.867188 -5.953125 2.222656 -6.203125 2.640625 -6.390625 C 3.066406 -6.578125 3.539062 -6.671875 4.0625 -6.671875 C 4.570312 -6.671875 5.035156 -6.578125 5.453125 -6.390625 C 5.867188 -6.203125 6.222656 -5.953125 6.515625 -5.640625 C 6.804688 -5.328125 7.03125 -4.960938 7.1875 -4.546875 C 7.34375 -4.140625 7.421875 -3.707031 7.421875 -3.25 Z M 6.171875 -3.25 C 6.171875 -3.863281 6.101562 -4.359375 5.96875 -4.734375 C 5.84375 -5.109375 5.675781 -5.398438 5.46875 -5.609375 C 5.257812 -5.828125 5.03125 -5.972656 4.78125 -6.046875 C 4.53125 -6.117188 4.285156 -6.15625 4.046875 -6.15625 C 3.816406 -6.15625 3.570312 -6.117188 3.3125 -6.046875 C 3.0625 -5.972656 2.828125 -5.828125 2.609375 -5.609375 C 2.398438 -5.398438 2.226562 -5.109375 2.09375 -4.734375 C 1.957031 -4.359375 1.890625 -3.863281 1.890625 -3.25 C 1.890625 -2.644531 1.957031 -2.15625 2.09375 -1.78125 C 2.226562 -1.40625 2.398438 -1.113281 2.609375 -0.90625 C 2.828125 -0.695312 3.0625 -0.550781 3.3125 -0.46875 C 3.570312 -0.394531 3.816406 -0.359375 4.046875 -0.359375 C 4.285156 -0.359375 4.53125 -0.394531 4.78125 -0.46875 C 5.03125 -0.550781 5.257812 -0.695312 5.46875 -0.90625 C 5.675781 -1.113281 5.84375 -1.40625 5.96875 -1.78125 C 6.101562 -2.15625 6.171875 -2.644531 6.171875 -3.25 Z M 6.171875 -3.25 "/></g></g></g><g fill="#f5f5f5" fill-opacity="1"><g transform="translate(16.201285, 11.922137)"><g><path d="M 1.046875 -6.53125 L 1.046875 0 L 2.15625 0 L 2.15625 -3.9375 C 2.15625 -4.300781 2.195312 -4.601562 2.28125 -4.84375 C 2.363281 -5.09375 2.46875 -5.296875 2.59375 -5.453125 C 2.726562 -5.609375 2.875 -5.722656 3.03125 -5.796875 C 3.1875 -5.867188 3.335938 -5.90625 3.484375 -5.90625 C 3.679688 -5.90625 3.863281 -5.835938 4.03125 -5.703125 C 4.207031 -5.578125 4.335938 -5.457031 4.421875 -5.34375 L 4.859375 -6.15625 C 4.773438 -6.257812 4.679688 -6.34375 4.578125 -6.40625 C 4.472656 -6.476562 4.363281 -6.535156 4.25 -6.578125 C 4.144531 -6.617188 4.046875 -6.644531 3.953125 -6.65625 C 3.859375 -6.664062 3.789062 -6.671875 3.75 -6.671875 C 3.382812 -6.671875 3.078125 -6.570312 2.828125 -6.375 C 2.585938 -6.175781 2.390625 -5.878906 2.234375 -5.484375 L 2.15625 -5.484375 L 2.15625 -6.53125 Z M 1.046875 -6.53125 "/></g></g></g><g fill="#f5f5f5" fill-opacity="1"><g transform="translate(21.188174, 11.922137)"><g><path d="M 5.21875 -5.046875 C 5.21875 -5.273438 5.15625 -5.488281 5.03125 -5.6875 C 4.90625 -5.894531 4.734375 -6.066406 4.515625 -6.203125 C 4.304688 -6.347656 4.0625 -6.460938 3.78125 -6.546875 C 3.5 -6.628906 3.195312 -6.671875 2.875 -6.671875 C 2.570312 -6.671875 2.285156 -6.628906 2.015625 -6.546875 C 1.753906 -6.472656 1.523438 -6.359375 1.328125 -6.203125 C 1.128906 -6.046875 0.972656 -5.851562 0.859375 -5.625 C 0.742188 -5.394531 0.6875 -5.125 0.6875 -4.8125 C 0.6875 -4.394531 0.78125 -4.066406 0.96875 -3.828125 C 1.164062 -3.585938 1.40625 -3.390625 1.6875 -3.234375 C 1.976562 -3.085938 2.289062 -2.96875 2.625 -2.875 C 2.96875 -2.789062 3.28125 -2.691406 3.5625 -2.578125 C 3.851562 -2.472656 4.09375 -2.335938 4.28125 -2.171875 C 4.476562 -2.003906 4.578125 -1.773438 4.578125 -1.484375 C 4.578125 -1.367188 4.554688 -1.242188 4.515625 -1.109375 C 4.472656 -0.984375 4.398438 -0.863281 4.296875 -0.75 C 4.191406 -0.644531 4.046875 -0.550781 3.859375 -0.46875 C 3.679688 -0.394531 3.453125 -0.359375 3.171875 -0.359375 C 2.828125 -0.359375 2.535156 -0.410156 2.296875 -0.515625 C 2.054688 -0.628906 1.859375 -0.765625 1.703125 -0.921875 C 1.546875 -1.078125 1.4375 -1.234375 1.375 -1.390625 C 1.3125 -1.546875 1.28125 -1.675781 1.28125 -1.78125 L 0.4375 -1.78125 C 0.4375 -1.53125 0.488281 -1.289062 0.59375 -1.0625 C 0.707031 -0.832031 0.878906 -0.625 1.109375 -0.4375 C 1.347656 -0.257812 1.632812 -0.113281 1.96875 0 C 2.300781 0.101562 2.691406 0.15625 3.140625 0.15625 C 3.941406 0.15625 4.539062 -0.0195312 4.9375 -0.375 C 5.34375 -0.726562 5.546875 -1.191406 5.546875 -1.765625 C 5.546875 -2.179688 5.445312 -2.515625 5.25 -2.765625 C 5.0625 -3.015625 4.816406 -3.21875 4.515625 -3.375 C 4.222656 -3.53125 3.90625 -3.65625 3.5625 -3.75 C 3.21875 -3.84375 2.894531 -3.941406 2.59375 -4.046875 C 2.300781 -4.148438 2.054688 -4.273438 1.859375 -4.421875 C 1.660156 -4.578125 1.5625 -4.789062 1.5625 -5.0625 C 1.5625 -5.164062 1.582031 -5.28125 1.625 -5.40625 C 1.675781 -5.539062 1.753906 -5.660156 1.859375 -5.765625 C 1.960938 -5.878906 2.097656 -5.972656 2.265625 -6.046875 C 2.441406 -6.117188 2.660156 -6.15625 2.921875 -6.15625 C 3.179688 -6.15625 3.40625 -6.117188 3.59375 -6.046875 C 3.789062 -5.972656 3.953125 -5.878906 4.078125 -5.765625 C 4.210938 -5.660156 4.3125 -5.539062 4.375 -5.40625 C 4.4375 -5.28125 4.46875 -5.160156 4.46875 -5.046875 Z M 5.21875 -5.046875 "/></g></g></g><g fill="#f5f5f5" fill-opacity="1"><g transform="translate(27.45442, 11.922137)"><g><path d="M 1.46875 -6.53125 L 1.46875 0 L 2.578125 0 L 2.578125 -6.53125 Z M 1.3125 -8.59375 C 1.3125 -8.40625 1.378906 -8.238281 1.515625 -8.09375 C 1.648438 -7.957031 1.816406 -7.890625 2.015625 -7.890625 C 2.203125 -7.890625 2.363281 -7.957031 2.5 -8.09375 C 2.644531 -8.238281 2.71875 -8.40625 2.71875 -8.59375 C 2.71875 -8.78125 2.644531 -8.941406 2.5 -9.078125 C 2.363281 -9.222656 2.203125 -9.296875 2.015625 -9.296875 C 1.816406 -9.296875 1.648438 -9.222656 1.515625 -9.078125 C 1.378906 -8.941406 1.3125 -8.78125 1.3125 -8.59375 Z M 1.3125 -8.59375 "/></g></g></g><g fill="#f5f5f5" fill-opacity="1"><g transform="translate(31.475256, 11.922137)"><g/></g></g><g fill="#f5f5f5" fill-opacity="1"><g transform="translate(36.044389, 11.922137)"><g><path d="M 6.84375 -9.140625 L 5.734375 -9.140625 L 5.734375 -5.453125 L 5.6875 -5.453125 C 5.59375 -5.679688 5.472656 -5.867188 5.328125 -6.015625 C 5.191406 -6.171875 5.03125 -6.296875 4.84375 -6.390625 C 4.664062 -6.492188 4.472656 -6.566406 4.265625 -6.609375 C 4.054688 -6.648438 3.847656 -6.671875 3.640625 -6.671875 C 3.203125 -6.671875 2.800781 -6.585938 2.4375 -6.421875 C 2.070312 -6.265625 1.753906 -6.035156 1.484375 -5.734375 C 1.222656 -5.441406 1.019531 -5.085938 0.875 -4.671875 C 0.726562 -4.253906 0.65625 -3.789062 0.65625 -3.28125 C 0.65625 -2.757812 0.726562 -2.285156 0.875 -1.859375 C 1.019531 -1.441406 1.222656 -1.082031 1.484375 -0.78125 C 1.753906 -0.476562 2.070312 -0.242188 2.4375 -0.078125 C 2.800781 0.078125 3.203125 0.15625 3.640625 0.15625 C 4.671875 0.15625 5.351562 -0.25 5.6875 -1.0625 L 5.734375 -1.0625 L 5.734375 0 L 6.84375 0 Z M 5.734375 -2.609375 C 5.734375 -2.328125 5.6875 -2.054688 5.59375 -1.796875 C 5.5 -1.535156 5.367188 -1.3125 5.203125 -1.125 C 5.046875 -0.9375 4.851562 -0.785156 4.625 -0.671875 C 4.40625 -0.566406 4.171875 -0.515625 3.921875 -0.515625 C 3.640625 -0.515625 3.375 -0.566406 3.125 -0.671875 C 2.882812 -0.773438 2.671875 -0.929688 2.484375 -1.140625 C 2.304688 -1.359375 2.160156 -1.640625 2.046875 -1.984375 C 1.941406 -2.335938 1.890625 -2.757812 1.890625 -3.25 C 1.890625 -3.75 1.941406 -4.171875 2.046875 -4.515625 C 2.160156 -4.867188 2.3125 -5.15625 2.5 -5.375 C 2.6875 -5.59375 2.898438 -5.753906 3.140625 -5.859375 C 3.390625 -5.960938 3.648438 -6.015625 3.921875 -6.015625 C 4.160156 -6.015625 4.390625 -5.960938 4.609375 -5.859375 C 4.828125 -5.753906 5.019531 -5.601562 5.1875 -5.40625 C 5.351562 -5.21875 5.484375 -4.984375 5.578125 -4.703125 C 5.679688 -4.421875 5.734375 -4.101562 5.734375 -3.75 Z M 5.734375 -2.609375 "/></g></g></g><g fill="#f5f5f5" fill-opacity="1"><g transform="translate(43.929414, 11.922137)"><g><path d="M 1.46875 -6.53125 L 1.46875 0 L 2.578125 0 L 2.578125 -6.53125 Z M 1.3125 -8.59375 C 1.3125 -8.40625 1.378906 -8.238281 1.515625 -8.09375 C 1.648438 -7.957031 1.816406 -7.890625 2.015625 -7.890625 C 2.203125 -7.890625 2.363281 -7.957031 2.5 -8.09375 C 2.644531 -8.238281 2.71875 -8.40625 2.71875 -8.59375 C 2.71875 -8.78125 2.644531 -8.941406 2.5 -9.078125 C 2.363281 -9.222656 2.203125 -9.296875 2.015625 -9.296875 C 1.816406 -9.296875 1.648438 -9.222656 1.515625 -9.078125 C 1.378906 -8.941406 1.3125 -8.78125 1.3125 -8.59375 Z M 1.3125 -8.59375 "/></g></g></g><g fill="#f5f5f5" fill-opacity="1"><g transform="translate(47.95025, 11.922137)"><g/></g></g><g fill="#f5f5f5" fill-opacity="1"><g transform="translate(52.519383, 11.922137)"><g><path d="M 0.390625 -6.53125 L 0.390625 -6.015625 L 1.53125 -6.015625 L 1.53125 0 L 2.640625 0 L 2.640625 -6.015625 L 4.21875 -6.015625 L 4.21875 -6.53125 L 2.640625 -6.53125 L 2.640625 -7.625 C 2.640625 -7.726562 2.644531 -7.851562 2.65625 -8 C 2.664062 -8.144531 2.691406 -8.28125 2.734375 -8.40625 C 2.773438 -8.53125 2.835938 -8.632812 2.921875 -8.71875 C 3.015625 -8.8125 3.144531 -8.859375 3.3125 -8.859375 C 3.519531 -8.859375 3.691406 -8.769531 3.828125 -8.59375 C 3.960938 -8.414062 4.078125 -8.238281 4.171875 -8.0625 L 4.734375 -8.671875 C 4.523438 -8.878906 4.3125 -9.035156 4.09375 -9.140625 C 3.875 -9.242188 3.625 -9.296875 3.34375 -9.296875 C 3.113281 -9.296875 2.890625 -9.253906 2.671875 -9.171875 C 2.453125 -9.097656 2.257812 -8.976562 2.09375 -8.8125 C 1.925781 -8.65625 1.789062 -8.453125 1.6875 -8.203125 C 1.582031 -7.953125 1.53125 -7.65625 1.53125 -7.3125 L 1.53125 -6.53125 Z M 0.390625 -6.53125 "/></g></g></g><g fill="#f5f5f5" fill-opacity="1"><g transform="translate(57.258232, 11.922137)"><g><path d="M 1.046875 -6.53125 L 1.046875 0 L 2.15625 0 L 2.15625 -3.9375 C 2.15625 -4.300781 2.195312 -4.601562 2.28125 -4.84375 C 2.363281 -5.09375 2.46875 -5.296875 2.59375 -5.453125 C 2.726562 -5.609375 2.875 -5.722656 3.03125 -5.796875 C 3.1875 -5.867188 3.335938 -5.90625 3.484375 -5.90625 C 3.679688 -5.90625 3.863281 -5.835938 4.03125 -5.703125 C 4.207031 -5.578125 4.335938 -5.457031 4.421875 -5.34375 L 4.859375 -6.15625 C 4.773438 -6.257812 4.679688 -6.34375 4.578125 -6.40625 C 4.472656 -6.476562 4.363281 -6.535156 4.25 -6.578125 C 4.144531 -6.617188 4.046875 -6.644531 3.953125 -6.65625 C 3.859375 -6.664062 3.789062 -6.671875 3.75 -6.671875 C 3.382812 -6.671875 3.078125 -6.570312 2.828125 -6.375 C 2.585938 -6.175781 2.390625 -5.878906 2.234375 -5.484375 L 2.15625 -5.484375 L 2.15625 -6.53125 Z M 1.046875 -6.53125 "/></g></g></g><g fill="#f5f5f5" fill-opacity="1"><g transform="translate(62.245121, 11.922137)"><g><path d="M 3.453125 -6.671875 C 4.085938 -6.671875 4.578125 -6.582031 4.921875 -6.40625 C 5.273438 -6.226562 5.53125 -5.992188 5.6875 -5.703125 C 5.851562 -5.421875 5.945312 -5.09375 5.96875 -4.71875 C 6 -4.34375 6.015625 -3.957031 6.015625 -3.5625 L 6.015625 0 L 4.953125 0 L 4.953125 -0.640625 C 4.703125 -0.398438 4.378906 -0.207031 3.984375 -0.0625 C 3.585938 0.0820312 3.195312 0.15625 2.8125 0.15625 C 2.4375 0.15625 2.101562 0.09375 1.8125 -0.03125 C 1.53125 -0.164062 1.289062 -0.335938 1.09375 -0.546875 C 0.90625 -0.753906 0.757812 -0.988281 0.65625 -1.25 C 0.5625 -1.507812 0.515625 -1.773438 0.515625 -2.046875 C 0.515625 -2.328125 0.566406 -2.609375 0.671875 -2.890625 C 0.785156 -3.171875 0.945312 -3.421875 1.15625 -3.640625 C 1.363281 -3.859375 1.617188 -4.035156 1.921875 -4.171875 C 2.222656 -4.316406 2.570312 -4.390625 2.96875 -4.390625 C 3.351562 -4.390625 3.722656 -4.3125 4.078125 -4.15625 C 4.429688 -4.007812 4.722656 -3.796875 4.953125 -3.515625 L 4.953125 -4.078125 C 4.953125 -4.785156 4.84375 -5.3125 4.625 -5.65625 C 4.414062 -6.007812 4.03125 -6.1875 3.46875 -6.1875 C 3.21875 -6.1875 3 -6.15625 2.8125 -6.09375 C 2.632812 -6.039062 2.472656 -5.957031 2.328125 -5.84375 C 2.179688 -5.738281 2.046875 -5.601562 1.921875 -5.4375 C 1.804688 -5.28125 1.6875 -5.097656 1.5625 -4.890625 L 0.890625 -5.578125 C 1.015625 -5.710938 1.140625 -5.84375 1.265625 -5.96875 C 1.398438 -6.101562 1.566406 -6.222656 1.765625 -6.328125 C 1.960938 -6.429688 2.195312 -6.515625 2.46875 -6.578125 C 2.738281 -6.640625 3.066406 -6.671875 3.453125 -6.671875 Z M 4.953125 -2.59375 C 4.910156 -2.695312 4.847656 -2.816406 4.765625 -2.953125 C 4.679688 -3.085938 4.570312 -3.21875 4.4375 -3.34375 C 4.3125 -3.476562 4.15625 -3.59375 3.96875 -3.6875 C 3.789062 -3.78125 3.570312 -3.828125 3.3125 -3.828125 C 3.0625 -3.828125 2.832031 -3.773438 2.625 -3.671875 C 2.414062 -3.578125 2.238281 -3.445312 2.09375 -3.28125 C 1.945312 -3.125 1.832031 -2.9375 1.75 -2.71875 C 1.675781 -2.5 1.640625 -2.269531 1.640625 -2.03125 C 1.640625 -1.757812 1.691406 -1.519531 1.796875 -1.3125 C 1.898438 -1.101562 2.03125 -0.925781 2.1875 -0.78125 C 2.34375 -0.644531 2.515625 -0.539062 2.703125 -0.46875 C 2.890625 -0.394531 3.070312 -0.359375 3.25 -0.359375 C 3.414062 -0.359375 3.582031 -0.390625 3.75 -0.453125 C 3.925781 -0.515625 4.085938 -0.597656 4.234375 -0.703125 C 4.390625 -0.816406 4.523438 -0.945312 4.640625 -1.09375 C 4.765625 -1.238281 4.867188 -1.398438 4.953125 -1.578125 Z M 4.953125 -2.59375 "/></g></g></g><g fill="#f5f5f5" fill-opacity="1"><g transform="translate(69.294647, 11.922137)"><g><path d="M 6.5 0 L 6.5 -4.234375 C 6.5 -4.390625 6.484375 -4.601562 6.453125 -4.875 C 6.429688 -5.15625 6.347656 -5.425781 6.203125 -5.6875 C 6.066406 -5.957031 5.84375 -6.1875 5.53125 -6.375 C 5.21875 -6.570312 4.769531 -6.671875 4.1875 -6.671875 C 3.9375 -6.679688 3.65625 -6.628906 3.34375 -6.515625 C 3.03125 -6.410156 2.722656 -6.207031 2.421875 -5.90625 L 2.203125 -5.6875 L 2.15625 -5.6875 L 2.15625 -6.53125 L 1.046875 -6.53125 L 1.046875 0 L 2.15625 0 L 2.15625 -4.03125 C 2.15625 -4.375 2.203125 -4.664062 2.296875 -4.90625 C 2.390625 -5.15625 2.519531 -5.363281 2.6875 -5.53125 C 2.851562 -5.695312 3.039062 -5.816406 3.25 -5.890625 C 3.46875 -5.972656 3.691406 -6.015625 3.921875 -6.015625 C 4.285156 -6.015625 4.566406 -5.941406 4.765625 -5.796875 C 4.960938 -5.648438 5.109375 -5.476562 5.203125 -5.28125 C 5.296875 -5.09375 5.347656 -4.898438 5.359375 -4.703125 C 5.378906 -4.515625 5.390625 -4.378906 5.390625 -4.296875 L 5.390625 0 Z M 6.5 0 "/></g></g></g><g fill="#f5f5f5" fill-opacity="1"><g transform="translate(76.879413, 11.922137)"><g><path d="M 4.328125 -0.515625 C 4.015625 -0.515625 3.710938 -0.5625 3.421875 -0.65625 C 3.128906 -0.757812 2.867188 -0.914062 2.640625 -1.125 C 2.410156 -1.34375 2.226562 -1.628906 2.09375 -1.984375 C 1.957031 -2.335938 1.890625 -2.769531 1.890625 -3.28125 C 1.890625 -3.8125 1.960938 -4.257812 2.109375 -4.625 C 2.265625 -5 2.453125 -5.296875 2.671875 -5.515625 C 2.890625 -5.742188 3.132812 -5.90625 3.40625 -6 C 3.675781 -6.101562 3.9375 -6.15625 4.1875 -6.15625 C 4.582031 -6.15625 4.925781 -6.050781 5.21875 -5.84375 C 5.519531 -5.632812 5.71875 -5.375 5.8125 -5.0625 L 6.71875 -5.0625 C 6.625 -5.375 6.484375 -5.632812 6.296875 -5.84375 C 6.109375 -6.050781 5.890625 -6.21875 5.640625 -6.34375 C 5.390625 -6.46875 5.125 -6.550781 4.84375 -6.59375 C 4.5625 -6.644531 4.285156 -6.671875 4.015625 -6.671875 C 3.472656 -6.671875 2.992188 -6.582031 2.578125 -6.40625 C 2.160156 -6.226562 1.804688 -5.984375 1.515625 -5.671875 C 1.222656 -5.367188 1.003906 -5.015625 0.859375 -4.609375 C 0.722656 -4.203125 0.65625 -3.769531 0.65625 -3.3125 C 0.65625 -2.820312 0.734375 -2.363281 0.890625 -1.9375 C 1.046875 -1.519531 1.269531 -1.15625 1.5625 -0.84375 C 1.851562 -0.53125 2.203125 -0.285156 2.609375 -0.109375 C 3.015625 0.0664062 3.476562 0.15625 4 0.15625 C 4.570312 0.15625 5.070312 0.0625 5.5 -0.125 C 5.9375 -0.320312 6.300781 -0.53125 6.59375 -0.75 L 6.21875 -1.25 C 5.914062 -1 5.613281 -0.8125 5.3125 -0.6875 C 5.007812 -0.570312 4.679688 -0.515625 4.328125 -0.515625 Z M 4.328125 -0.515625 "/></g></g></g><g fill="#f5f5f5" fill-opacity="1"><g transform="translate(83.981158, 11.922137)"><g><path d="M 6.84375 -2.984375 L 6.84375 -3.25 C 6.84375 -3.832031 6.757812 -4.335938 6.59375 -4.765625 C 6.425781 -5.191406 6.203125 -5.546875 5.921875 -5.828125 C 5.640625 -6.109375 5.3125 -6.316406 4.9375 -6.453125 C 4.5625 -6.585938 4.164062 -6.65625 3.75 -6.65625 C 3.300781 -6.65625 2.890625 -6.578125 2.515625 -6.421875 C 2.140625 -6.273438 1.8125 -6.054688 1.53125 -5.765625 C 1.257812 -5.472656 1.046875 -5.117188 0.890625 -4.703125 C 0.734375 -4.296875 0.65625 -3.832031 0.65625 -3.3125 C 0.65625 -2.875 0.722656 -2.445312 0.859375 -2.03125 C 0.992188 -1.613281 1.195312 -1.242188 1.46875 -0.921875 C 1.738281 -0.597656 2.082031 -0.335938 2.5 -0.140625 C 2.925781 0.0546875 3.429688 0.15625 4.015625 0.15625 C 4.566406 0.15625 5.078125 0.0546875 5.546875 -0.140625 C 6.015625 -0.335938 6.425781 -0.617188 6.78125 -0.984375 L 6.359375 -1.390625 C 6.179688 -1.234375 6.007812 -1.085938 5.84375 -0.953125 C 5.6875 -0.828125 5.523438 -0.722656 5.359375 -0.640625 C 5.191406 -0.554688 5.019531 -0.488281 4.84375 -0.4375 C 4.664062 -0.382812 4.46875 -0.359375 4.25 -0.359375 C 4 -0.359375 3.738281 -0.394531 3.46875 -0.46875 C 3.195312 -0.550781 2.941406 -0.6875 2.703125 -0.875 C 2.460938 -1.0625 2.265625 -1.328125 2.109375 -1.671875 C 1.953125 -2.015625 1.875 -2.453125 1.875 -2.984375 Z M 1.875 -3.5 C 1.875 -3.84375 1.910156 -4.175781 1.984375 -4.5 C 2.066406 -4.832031 2.179688 -5.125 2.328125 -5.375 C 2.484375 -5.632812 2.675781 -5.835938 2.90625 -5.984375 C 3.144531 -6.140625 3.425781 -6.21875 3.75 -6.21875 C 4.363281 -6.21875 4.84375 -5.972656 5.1875 -5.484375 C 5.53125 -5.003906 5.703125 -4.34375 5.703125 -3.5 Z M 1.875 -3.5 "/></g></g></g><g fill="#f5f5f5" fill-opacity="1"><g transform="translate(91.474542, 11.922137)"><g><path d="M 5.21875 -5.046875 C 5.21875 -5.273438 5.15625 -5.488281 5.03125 -5.6875 C 4.90625 -5.894531 4.734375 -6.066406 4.515625 -6.203125 C 4.304688 -6.347656 4.0625 -6.460938 3.78125 -6.546875 C 3.5 -6.628906 3.195312 -6.671875 2.875 -6.671875 C 2.570312 -6.671875 2.285156 -6.628906 2.015625 -6.546875 C 1.753906 -6.472656 1.523438 -6.359375 1.328125 -6.203125 C 1.128906 -6.046875 0.972656 -5.851562 0.859375 -5.625 C 0.742188 -5.394531 0.6875 -5.125 0.6875 -4.8125 C 0.6875 -4.394531 0.78125 -4.066406 0.96875 -3.828125 C 1.164062 -3.585938 1.40625 -3.390625 1.6875 -3.234375 C 1.976562 -3.085938 2.289062 -2.96875 2.625 -2.875 C 2.96875 -2.789062 3.28125 -2.691406 3.5625 -2.578125 C 3.851562 -2.472656 4.09375 -2.335938 4.28125 -2.171875 C 4.476562 -2.003906 4.578125 -1.773438 4.578125 -1.484375 C 4.578125 -1.367188 4.554688 -1.242188 4.515625 -1.109375 C 4.472656 -0.984375 4.398438 -0.863281 4.296875 -0.75 C 4.191406 -0.644531 4.046875 -0.550781 3.859375 -0.46875 C 3.679688 -0.394531 3.453125 -0.359375 3.171875 -0.359375 C 2.828125 -0.359375 2.535156 -0.410156 2.296875 -0.515625 C 2.054688 -0.628906 1.859375 -0.765625 1.703125 -0.921875 C 1.546875 -1.078125 1.4375 -1.234375 1.375 -1.390625 C 1.3125 -1.546875 1.28125 -1.675781 1.28125 -1.78125 L 0.4375 -1.78125 C 0.4375 -1.53125 0.488281 -1.289062 0.59375 -1.0625 C 0.707031 -0.832031 0.878906 -0.625 1.109375 -0.4375 C 1.347656 -0.257812 1.632812 -0.113281 1.96875 0 C 2.300781 0.101562 2.691406 0.15625 3.140625 0.15625 C 3.941406 0.15625 4.539062 -0.0195312 4.9375 -0.375 C 5.34375 -0.726562 5.546875 -1.191406 5.546875 -1.765625 C 5.546875 -2.179688 5.445312 -2.515625 5.25 -2.765625 C 5.0625 -3.015625 4.816406 -3.21875 4.515625 -3.375 C 4.222656 -3.53125 3.90625 -3.65625 3.5625 -3.75 C 3.21875 -3.84375 2.894531 -3.941406 2.59375 -4.046875 C 2.300781 -4.148438 2.054688 -4.273438 1.859375 -4.421875 C 1.660156 -4.578125 1.5625 -4.789062 1.5625 -5.0625 C 1.5625 -5.164062 1.582031 -5.28125 1.625 -5.40625 C 1.675781 -5.539062 1.753906 -5.660156 1.859375 -5.765625 C 1.960938 -5.878906 2.097656 -5.972656 2.265625 -6.046875 C 2.441406 -6.117188 2.660156 -6.15625 2.921875 -6.15625 C 3.179688 -6.15625 3.40625 -6.117188 3.59375 -6.046875 C 3.789062 -5.972656 3.953125 -5.878906 4.078125 -5.765625 C 4.210938 -5.660156 4.3125 -5.539062 4.375 -5.40625 C 4.4375 -5.28125 4.46875 -5.160156 4.46875 -5.046875 Z M 5.21875 -5.046875 "/></g></g></g><g fill="#f5f5f5" fill-opacity="1"><g transform="translate(97.740789, 11.922137)"><g><path d="M 6.84375 -2.984375 L 6.84375 -3.25 C 6.84375 -3.832031 6.757812 -4.335938 6.59375 -4.765625 C 6.425781 -5.191406 6.203125 -5.546875 5.921875 -5.828125 C 5.640625 -6.109375 5.3125 -6.316406 4.9375 -6.453125 C 4.5625 -6.585938 4.164062 -6.65625 3.75 -6.65625 C 3.300781 -6.65625 2.890625 -6.578125 2.515625 -6.421875 C 2.140625 -6.273438 1.8125 -6.054688 1.53125 -5.765625 C 1.257812 -5.472656 1.046875 -5.117188 0.890625 -4.703125 C 0.734375 -4.296875 0.65625 -3.832031 0.65625 -3.3125 C 0.65625 -2.875 0.722656 -2.445312 0.859375 -2.03125 C 0.992188 -1.613281 1.195312 -1.242188 1.46875 -0.921875 C 1.738281 -0.597656 2.082031 -0.335938 2.5 -0.140625 C 2.925781 0.0546875 3.429688 0.15625 4.015625 0.15625 C 4.566406 0.15625 5.078125 0.0546875 5.546875 -0.140625 C 6.015625 -0.335938 6.425781 -0.617188 6.78125 -0.984375 L 6.359375 -1.390625 C 6.179688 -1.234375 6.007812 -1.085938 5.84375 -0.953125 C 5.6875 -0.828125 5.523438 -0.722656 5.359375 -0.640625 C 5.191406 -0.554688 5.019531 -0.488281 4.84375 -0.4375 C 4.664062 -0.382812 4.46875 -0.359375 4.25 -0.359375 C 4 -0.359375 3.738281 -0.394531 3.46875 -0.46875 C 3.195312 -0.550781 2.941406 -0.6875 2.703125 -0.875 C 2.460938 -1.0625 2.265625 -1.328125 2.109375 -1.671875 C 1.953125 -2.015625 1.875 -2.453125 1.875 -2.984375 Z M 1.875 -3.5 C 1.875 -3.84375 1.910156 -4.175781 1.984375 -4.5 C 2.066406 -4.832031 2.179688 -5.125 2.328125 -5.375 C 2.484375 -5.632812 2.675781 -5.835938 2.90625 -5.984375 C 3.144531 -6.140625 3.425781 -6.21875 3.75 -6.21875 C 4.363281 -6.21875 4.84375 -5.972656 5.1875 -5.484375 C 5.53125 -5.003906 5.703125 -4.34375 5.703125 -3.5 Z M 1.875 -3.5 "/></g></g></g></g></g></g><g fill="#f5f5f5" fill-opacity="1"><g transform="translate(115.124614, 148.372368)"><g><path d="M 3.234375 -2 C 3.140625 -2.113281 3.003906 -2.222656 2.828125 -2.328125 C 2.648438 -2.441406 2.554688 -2.519531 2.546875 -2.5625 C 2.492188 -2.800781 2.398438 -2.976562 2.265625 -3.09375 C 2.203125 -3.125 2.15625 -3.210938 2.125 -3.359375 C 2.039062 -3.722656 2.070312 -4.363281 2.21875 -5.28125 C 2.363281 -6.195312 2.597656 -7.210938 2.921875 -8.328125 C 3.023438 -8.484375 3.140625 -8.75 3.265625 -9.125 C 3.398438 -9.5 3.492188 -9.71875 3.546875 -9.78125 C 3.523438 -9.851562 3.535156 -9.9375 3.578125 -10.03125 C 3.628906 -10.125 3.703125 -10.179688 3.796875 -10.203125 L 3.75 -10.40625 C 3.707031 -10.601562 3.957031 -11.160156 4.5 -12.078125 C 5.039062 -13.003906 5.515625 -13.671875 5.921875 -14.078125 C 6.390625 -14.566406 6.90625 -14.878906 7.46875 -15.015625 C 7.863281 -15.097656 8.222656 -15.0625 8.546875 -14.90625 C 8.691406 -14.8125 9.304688 -14.460938 10.390625 -13.859375 L 11.859375 -13.046875 L 11.65625 -11.265625 C 11.59375 -10.640625 11.613281 -10.082031 11.71875 -9.59375 C 11.914062 -8.757812 12.34375 -8.015625 13 -7.359375 C 13.164062 -7.148438 13.4375 -6.972656 13.8125 -6.828125 C 14.195312 -6.679688 14.5625 -6.628906 14.90625 -6.671875 C 15.394531 -6.679688 15.6875 -6.488281 15.78125 -6.09375 C 15.875 -5.65625 15.734375 -5.347656 15.359375 -5.171875 C 15.296875 -5.128906 15.171875 -5.085938 14.984375 -5.046875 C 13.691406 -4.742188 12.363281 -5.394531 11 -7 C 10.882812 -7.113281 10.71875 -7.328125 10.5 -7.640625 C 10.28125 -7.960938 10.140625 -8.179688 10.078125 -8.296875 C 9.992188 -8.109375 9.878906 -7.867188 9.734375 -7.578125 C 9.597656 -7.285156 9.457031 -7.035156 9.3125 -6.828125 C 7.476562 -3.890625 5.867188 -2.257812 4.484375 -1.9375 C 4.046875 -1.84375 3.628906 -1.863281 3.234375 -2 Z M 3.984375 -4.09375 C 4.015625 -3.988281 4.140625 -3.984375 4.359375 -4.078125 C 4.585938 -4.179688 4.847656 -4.359375 5.140625 -4.609375 C 5.441406 -4.867188 5.734375 -5.175781 6.015625 -5.53125 C 7.535156 -7.582031 8.566406 -9.3125 9.109375 -10.71875 L 9.5625 -12.0625 C 9.226562 -12.46875 8.914062 -12.75 8.625 -12.90625 C 8.34375 -13.0625 8.101562 -13.117188 7.90625 -13.078125 C 7.445312 -12.960938 6.859375 -12.21875 6.140625 -10.84375 C 5.421875 -9.46875 4.835938 -7.90625 4.390625 -6.15625 C 4.273438 -5.75 4.1875 -5.332031 4.125 -4.90625 C 4.0625 -4.488281 4.015625 -4.21875 3.984375 -4.09375 Z M 9.484375 -17.453125 C 9.328125 -17.265625 9.203125 -17.160156 9.109375 -17.140625 C 9.023438 -17.128906 8.9375 -17.171875 8.84375 -17.265625 C 8.757812 -17.359375 8.640625 -17.53125 8.484375 -17.78125 C 8.429688 -17.832031 8.160156 -18.097656 7.671875 -18.578125 C 7.140625 -19.117188 6.722656 -19.554688 6.421875 -19.890625 C 6.128906 -20.234375 5.953125 -20.546875 5.890625 -20.828125 C 5.847656 -21.003906 5.847656 -21.144531 5.890625 -21.25 C 6.234375 -21.738281 6.503906 -22.007812 6.703125 -22.0625 C 6.878906 -22.101562 7.035156 -22.066406 7.171875 -21.953125 C 7.390625 -21.890625 7.707031 -21.613281 8.125 -21.125 C 8.550781 -20.632812 8.953125 -20.113281 9.328125 -19.5625 C 9.703125 -19.007812 9.910156 -18.640625 9.953125 -18.453125 C 10.003906 -18.347656 9.984375 -18.175781 9.890625 -17.9375 C 9.796875 -17.695312 9.660156 -17.535156 9.484375 -17.453125 Z M 9.484375 -17.453125 "/></g></g></g><g fill="#f5f5f5" fill-opacity="1"><g transform="translate(128.947472, 145.258407)"><g/></g></g><g fill="#f5f5f5" fill-opacity="1"><g transform="translate(136.515427, 143.912925)"><g><path d="M 5.875 -2.796875 C 5.601562 -2.941406 5.203125 -3.644531 4.671875 -4.90625 C 4.148438 -6.175781 3.710938 -7.414062 3.359375 -8.625 C 3.210938 -9.082031 2.957031 -9.695312 2.59375 -10.46875 C 2.457031 -10.8125 2.378906 -11.050781 2.359375 -11.1875 C 2.304688 -11.59375 2.441406 -11.914062 2.765625 -12.15625 C 2.835938 -12.226562 2.957031 -12.289062 3.125 -12.34375 C 3.289062 -12.40625 3.429688 -12.425781 3.546875 -12.40625 C 4.054688 -12.300781 4.671875 -10.992188 5.390625 -8.484375 C 5.523438 -7.859375 5.691406 -7.296875 5.890625 -6.796875 C 6.085938 -6.296875 6.203125 -6.007812 6.234375 -5.9375 C 6.328125 -5.800781 6.425781 -5.664062 6.53125 -5.53125 C 6.632812 -5.394531 6.738281 -5.335938 6.84375 -5.359375 C 6.90625 -5.359375 6.976562 -5.414062 7.0625 -5.53125 C 7.4375 -6 7.832031 -6.582031 8.25 -7.28125 C 8.6875 -8.09375 8.988281 -8.628906 9.15625 -8.890625 C 9.363281 -9.304688 9.640625 -9.789062 9.984375 -10.34375 C 10.035156 -10.445312 10.160156 -10.679688 10.359375 -11.046875 C 10.566406 -11.410156 10.765625 -11.722656 10.953125 -11.984375 C 11.148438 -12.242188 11.328125 -12.40625 11.484375 -12.46875 C 11.554688 -12.5 11.660156 -12.519531 11.796875 -12.53125 C 12.160156 -12.582031 12.359375 -12.453125 12.390625 -12.140625 C 12.429688 -11.847656 12.285156 -11.390625 11.953125 -10.765625 C 11.835938 -10.578125 11.726562 -10.320312 11.625 -10 C 11.519531 -9.675781 11.445312 -9.488281 11.40625 -9.4375 C 11.21875 -8.925781 10.847656 -8.179688 10.296875 -7.203125 C 9.753906 -6.222656 9.382812 -5.613281 9.1875 -5.375 C 9.144531 -5.3125 8.976562 -5.128906 8.6875 -4.828125 C 8.40625 -4.523438 8.15625 -4.171875 7.9375 -3.765625 C 7.300781 -2.992188 6.828125 -2.59375 6.515625 -2.5625 C 6.304688 -2.53125 6.09375 -2.609375 5.875 -2.796875 Z M 5.875 -2.796875 "/></g></g></g><g fill="#f5f5f5" fill-opacity="1"><g transform="translate(147.029508, 142.604075)"><g><path d="M 5.65625 -0.859375 C 5.382812 -0.847656 5.164062 -0.882812 5 -0.96875 C 4.832031 -1.050781 4.59375 -1.203125 4.28125 -1.421875 C 3.507812 -2.160156 3.101562 -2.851562 3.0625 -3.5 C 3.050781 -3.65625 3.050781 -3.769531 3.0625 -3.84375 C 3.125 -4 3.144531 -4.15625 3.125 -4.3125 C 3.101562 -4.46875 3.09375 -4.570312 3.09375 -4.625 C 2.988281 -4.695312 2.9375 -4.75 2.9375 -4.78125 C 2.9375 -4.820312 2.957031 -4.859375 3 -4.890625 C 3.050781 -4.929688 3.082031 -4.972656 3.09375 -5.015625 C 3.226562 -5.023438 3.265625 -5.148438 3.203125 -5.390625 C 3.148438 -5.566406 3.210938 -5.972656 3.390625 -6.609375 C 3.566406 -7.242188 3.8125 -7.832031 4.125 -8.375 C 4.34375 -8.789062 4.671875 -9.316406 5.109375 -9.953125 C 5.554688 -10.585938 5.960938 -11.078125 6.328125 -11.421875 C 6.835938 -11.910156 7.300781 -12.28125 7.71875 -12.53125 C 8.132812 -12.789062 8.59375 -12.988281 9.09375 -13.125 C 9.53125 -13.269531 9.828125 -13.347656 9.984375 -13.359375 C 10.140625 -13.367188 10.28125 -13.335938 10.40625 -13.265625 C 10.539062 -13.203125 10.710938 -13.078125 10.921875 -12.890625 C 11.546875 -12.648438 11.988281 -12.332031 12.25 -11.9375 C 12.507812 -11.539062 12.671875 -10.90625 12.734375 -10.03125 C 12.816406 -8.570312 12.320312 -6.953125 11.25 -5.171875 C 10.78125 -4.410156 10.332031 -3.816406 9.90625 -3.390625 C 9.488281 -2.960938 8.925781 -2.503906 8.21875 -2.015625 C 7.757812 -1.648438 7.335938 -1.378906 6.953125 -1.203125 C 6.578125 -1.035156 6.144531 -0.921875 5.65625 -0.859375 Z M 8.65625 -4.625 C 9.15625 -5.269531 9.550781 -5.875 9.84375 -6.4375 C 10.132812 -7 10.398438 -7.703125 10.640625 -8.546875 C 10.734375 -8.929688 10.757812 -9.394531 10.71875 -9.9375 C 10.675781 -10.613281 10.5625 -10.988281 10.375 -11.0625 C 10.144531 -11.164062 9.914062 -11.207031 9.6875 -11.1875 C 9.195312 -11.15625 8.695312 -10.898438 8.1875 -10.421875 C 7.570312 -9.816406 7.03125 -9.085938 6.5625 -8.234375 C 6.09375 -7.390625 5.632812 -6.335938 5.1875 -5.078125 C 4.988281 -4.597656 4.898438 -4.140625 4.921875 -3.703125 C 4.941406 -3.359375 5.039062 -3.09375 5.21875 -2.90625 C 5.40625 -2.71875 5.644531 -2.632812 5.9375 -2.65625 C 6.6875 -2.695312 7.59375 -3.351562 8.65625 -4.625 Z M 8.65625 -4.625 "/></g></g></g><g fill="#f5f5f5" fill-opacity="1"><g transform="translate(158.342482, 141.876295)"><g><path d="M 6.03125 -0.265625 C 5.675781 -0.335938 5.304688 -0.578125 4.921875 -0.984375 C 4.546875 -1.398438 4.304688 -1.789062 4.203125 -2.15625 C 4.203125 -2.195312 4.175781 -2.242188 4.125 -2.296875 C 4.082031 -2.359375 4.050781 -2.398438 4.03125 -2.421875 C 3.9375 -2.484375 3.890625 -2.847656 3.890625 -3.515625 C 3.878906 -4.054688 3.898438 -4.617188 3.953125 -5.203125 C 4.015625 -5.796875 4.085938 -6.273438 4.171875 -6.640625 L 4.765625 -8.421875 L 5.234375 -9.765625 L 6.140625 -11.71875 L 4.78125 -12.09375 C 4.625 -12.113281 4.492188 -12.191406 4.390625 -12.328125 C 4.285156 -12.460938 4.234375 -12.585938 4.234375 -12.703125 C 4.234375 -12.878906 4.328125 -13.097656 4.515625 -13.359375 C 4.710938 -13.617188 4.867188 -13.75 4.984375 -13.75 C 5.046875 -13.726562 5.222656 -13.71875 5.515625 -13.71875 C 6.191406 -13.726562 6.695312 -13.765625 7.03125 -13.828125 C 7.257812 -13.921875 7.414062 -14.101562 7.5 -14.375 C 7.582031 -14.550781 7.6875 -14.773438 7.8125 -15.046875 C 7.9375 -15.316406 8.050781 -15.5625 8.15625 -15.78125 C 8.226562 -15.914062 8.335938 -16.125 8.484375 -16.40625 C 8.628906 -16.6875 8.8125 -17.007812 9.03125 -17.375 C 9.070312 -17.4375 9.171875 -17.597656 9.328125 -17.859375 C 9.484375 -18.128906 9.675781 -18.351562 9.90625 -18.53125 C 10.0625 -18.6875 10.25 -18.765625 10.46875 -18.765625 C 10.695312 -18.765625 10.988281 -18.617188 11.34375 -18.328125 C 11.394531 -18.265625 11.457031 -18.175781 11.53125 -18.0625 C 11.613281 -17.945312 11.65625 -17.84375 11.65625 -17.75 C 11.65625 -17.664062 11.566406 -17.476562 11.390625 -17.1875 C 11.265625 -16.914062 11.140625 -16.671875 11.015625 -16.453125 C 10.890625 -16.242188 10.78125 -16.0625 10.6875 -15.90625 C 10.414062 -15.457031 10.226562 -15.117188 10.125 -14.890625 C 9.90625 -14.597656 9.796875 -14.375 9.796875 -14.21875 C 9.796875 -14.0625 9.941406 -13.984375 10.234375 -13.984375 C 10.546875 -13.984375 11.070312 -14.054688 11.8125 -14.203125 C 12.132812 -14.242188 12.347656 -14.265625 12.453125 -14.265625 C 13.242188 -14.265625 13.671875 -13.941406 13.734375 -13.296875 C 13.765625 -13.160156 13.78125 -13 13.78125 -12.8125 C 13.78125 -12.5 13.671875 -12.304688 13.453125 -12.234375 C 13.242188 -12.171875 12.765625 -12.140625 12.015625 -12.140625 C 11.296875 -12.015625 10.554688 -11.953125 9.796875 -11.953125 C 9.660156 -11.953125 9.507812 -11.941406 9.34375 -11.921875 C 9.175781 -11.910156 9.003906 -11.882812 8.828125 -11.84375 C 8.648438 -11.800781 8.519531 -11.734375 8.4375 -11.640625 C 8.363281 -11.546875 8.28125 -11.398438 8.1875 -11.203125 C 8.125 -11.128906 7.96875 -10.867188 7.71875 -10.421875 C 7.40625 -9.773438 7.207031 -9.382812 7.125 -9.25 C 6.53125 -7.4375 6.09375 -5.585938 5.8125 -3.703125 C 5.769531 -3.347656 5.75 -3.125 5.75 -3.03125 C 5.75 -2.695312 5.859375 -2.460938 6.078125 -2.328125 C 6.304688 -2.191406 6.691406 -2.128906 7.234375 -2.140625 C 7.992188 -2.140625 8.65625 -2.222656 9.21875 -2.390625 C 9.894531 -2.679688 10.398438 -2.925781 10.734375 -3.125 C 10.929688 -3.238281 11.113281 -3.34375 11.28125 -3.4375 C 11.457031 -3.539062 11.578125 -3.617188 11.640625 -3.671875 C 11.710938 -3.804688 11.789062 -3.878906 11.875 -3.890625 C 12.0625 -3.890625 12.222656 -3.707031 12.359375 -3.34375 C 12.359375 -2.988281 12.273438 -2.675781 12.109375 -2.40625 C 11.953125 -2.132812 11.5625 -1.8125 10.9375 -1.4375 C 9.644531 -0.601562 8.347656 -0.1875 7.046875 -0.1875 C 6.679688 -0.175781 6.34375 -0.203125 6.03125 -0.265625 Z M 6.03125 -0.265625 "/></g></g></g><g fill="#f5f5f5" fill-opacity="1"><g transform="translate(168.931901, 141.782954)"><g><path d="M 4.078125 -0.96875 C 3.898438 -1.101562 3.78125 -1.226562 3.71875 -1.34375 C 3.65625 -1.46875 3.628906 -1.644531 3.640625 -1.875 C 3.648438 -2.070312 3.675781 -2.238281 3.71875 -2.375 C 3.8125 -3.132812 4.019531 -4.007812 4.34375 -5 L 4.5625 -5.65625 C 4.65625 -6.207031 5.101562 -7.363281 5.90625 -9.125 C 6.71875 -10.894531 7.363281 -12.09375 7.84375 -12.71875 C 8.03125 -12.820312 8.222656 -12.867188 8.421875 -12.859375 C 8.710938 -12.847656 8.957031 -12.734375 9.15625 -12.515625 C 9.289062 -12.421875 9.351562 -12.25 9.34375 -12 C 9.332031 -11.78125 9.226562 -11.453125 9.03125 -11.015625 C 8.832031 -10.585938 8.507812 -9.957031 8.0625 -9.125 C 7.96875 -8.945312 7.800781 -8.613281 7.5625 -8.125 C 7.320312 -7.644531 7.203125 -7.363281 7.203125 -7.28125 C 7.191406 -7.226562 7.195312 -7.203125 7.21875 -7.203125 C 7.257812 -7.203125 7.304688 -7.21875 7.359375 -7.25 C 7.410156 -7.28125 7.457031 -7.304688 7.5 -7.328125 C 7.769531 -7.742188 8.398438 -8.296875 9.390625 -8.984375 C 10.378906 -9.671875 11.0625 -10.101562 11.4375 -10.28125 C 11.601562 -10.351562 11.8125 -10.425781 12.0625 -10.5 C 12.3125 -10.570312 12.484375 -10.632812 12.578125 -10.6875 C 12.941406 -10.84375 13.375 -10.910156 13.875 -10.890625 C 14.1875 -10.867188 14.457031 -10.800781 14.6875 -10.6875 C 14.914062 -10.582031 15.070312 -10.421875 15.15625 -10.203125 C 15.164062 -10.046875 15.21875 -9.921875 15.3125 -9.828125 C 15.414062 -9.734375 15.488281 -9.675781 15.53125 -9.65625 C 15.59375 -9.644531 15.632812 -9.609375 15.65625 -9.546875 C 15.675781 -9.492188 15.6875 -9.457031 15.6875 -9.4375 C 15.6875 -9.28125 15.59375 -9.1875 15.40625 -9.15625 C 15.21875 -9.132812 14.890625 -9.125 14.421875 -9.125 C 14.171875 -9.125 13.90625 -9.082031 13.625 -9 C 13.351562 -8.925781 13.078125 -8.832031 12.796875 -8.71875 C 11.515625 -8.0625 10.550781 -7.546875 9.90625 -7.171875 C 9.269531 -6.796875 8.617188 -6.273438 7.953125 -5.609375 C 7.691406 -5.367188 7.335938 -4.910156 6.890625 -4.234375 C 6.734375 -4.078125 6.550781 -3.671875 6.34375 -3.015625 C 6.144531 -2.367188 6.039062 -1.96875 6.03125 -1.8125 C 6 -1.738281 5.945312 -1.609375 5.875 -1.421875 C 5.800781 -1.242188 5.695312 -1.066406 5.5625 -0.890625 C 5.269531 -0.546875 5.03125 -0.378906 4.84375 -0.390625 C 4.644531 -0.398438 4.390625 -0.59375 4.078125 -0.96875 Z M 4.078125 -0.96875 "/></g></g></g><g fill="#f5f5f5" fill-opacity="1"><g transform="translate(180.487182, 142.389174)"><g><path d="M 9.359375 -0.15625 C 8.753906 0.269531 8.0625 0.441406 7.28125 0.359375 C 6.71875 0.296875 6.203125 0.101562 5.734375 -0.21875 C 5.265625 -0.539062 4.890625 -0.953125 4.609375 -1.453125 C 4.359375 -1.847656 4.191406 -2.273438 4.109375 -2.734375 C 4.023438 -3.203125 4.019531 -3.753906 4.09375 -4.390625 C 4.113281 -4.617188 4.179688 -5.066406 4.296875 -5.734375 C 4.453125 -6.554688 4.816406 -7.382812 5.390625 -8.21875 C 5.972656 -9.050781 6.660156 -9.78125 7.453125 -10.40625 C 8.242188 -11.03125 9.003906 -11.441406 9.734375 -11.640625 C 10.117188 -11.816406 10.453125 -11.890625 10.734375 -11.859375 C 10.890625 -11.835938 11.046875 -11.804688 11.203125 -11.765625 C 11.359375 -11.734375 11.523438 -11.695312 11.703125 -11.65625 C 12.191406 -11.539062 12.550781 -11.40625 12.78125 -11.25 C 13.019531 -11.101562 13.222656 -10.894531 13.390625 -10.625 C 13.878906 -10.007812 14.082031 -9.332031 14 -8.59375 C 13.851562 -8.0625 13.4375 -7.476562 12.75 -6.84375 C 12.070312 -6.21875 11.285156 -5.738281 10.390625 -5.40625 C 9.984375 -5.34375 9.523438 -5.335938 9.015625 -5.390625 C 8.316406 -5.472656 7.769531 -5.675781 7.375 -6 C 7.1875 -6.082031 7.035156 -6.128906 6.921875 -6.140625 C 6.710938 -6.171875 6.546875 -6.054688 6.421875 -5.796875 C 6.296875 -5.546875 6.144531 -5.066406 5.96875 -4.359375 C 5.925781 -4.203125 5.890625 -3.976562 5.859375 -3.6875 C 5.734375 -2.550781 6.046875 -1.882812 6.796875 -1.6875 C 7.296875 -1.519531 7.660156 -1.425781 7.890625 -1.40625 C 8.160156 -1.375 8.472656 -1.429688 8.828125 -1.578125 L 9.484375 -1.875 C 9.628906 -1.925781 9.765625 -2 9.890625 -2.09375 C 10.023438 -2.195312 10.132812 -2.285156 10.21875 -2.359375 C 10.269531 -2.398438 10.347656 -2.46875 10.453125 -2.5625 C 10.554688 -2.65625 10.648438 -2.707031 10.734375 -2.71875 C 10.816406 -2.738281 10.890625 -2.75 10.953125 -2.75 C 11.046875 -2.738281 11.140625 -2.675781 11.234375 -2.5625 C 11.335938 -2.457031 11.421875 -2.378906 11.484375 -2.328125 C 11.679688 -2.304688 11.707031 -2.160156 11.5625 -1.890625 C 11.425781 -1.628906 11.148438 -1.332031 10.734375 -1 C 10.328125 -0.675781 9.867188 -0.394531 9.359375 -0.15625 Z M 10.125 -7.265625 C 10.519531 -7.378906 10.9375 -7.613281 11.375 -7.96875 C 11.8125 -8.320312 12.046875 -8.628906 12.078125 -8.890625 C 12.097656 -9.160156 12.019531 -9.398438 11.84375 -9.609375 C 11.664062 -9.816406 11.394531 -9.941406 11.03125 -9.984375 C 10.757812 -10.003906 10.554688 -10 10.421875 -9.96875 C 10.109375 -9.914062 9.71875 -9.710938 9.25 -9.359375 C 8.78125 -9.015625 8.363281 -8.660156 8 -8.296875 C 7.644531 -7.941406 7.492188 -7.722656 7.546875 -7.640625 C 7.640625 -7.429688 8.066406 -7.285156 8.828125 -7.203125 C 9.347656 -7.140625 9.78125 -7.160156 10.125 -7.265625 Z M 10.125 -7.265625 "/></g></g></g><g fill="#f5f5f5" fill-opacity="1"><g transform="translate(190.9082, 143.564443)"><g/></g></g><g fill="#f5f5f5" fill-opacity="1"><g transform="translate(198.499303, 144.720681)"><g><path d="M 5.28125 1.25 C 4.90625 1.007812 4.5625 0.695312 4.25 0.3125 C 3.945312 -0.0625 3.753906 -0.363281 3.671875 -0.59375 C 3.679688 -0.644531 3.695312 -0.722656 3.71875 -0.828125 C 3.738281 -0.941406 3.785156 -1.007812 3.859375 -1.03125 C 3.929688 -1.050781 4.054688 -1.039062 4.234375 -1 C 4.609375 -0.925781 5.195312 -0.757812 6 -0.5 C 6.476562 -0.394531 7.039062 -0.335938 7.6875 -0.328125 C 8.332031 -0.328125 8.703125 -0.394531 8.796875 -0.53125 C 8.859375 -0.519531 8.890625 -0.523438 8.890625 -0.546875 C 8.898438 -0.585938 8.84375 -0.710938 8.71875 -0.921875 C 8.664062 -0.929688 8.566406 -0.992188 8.421875 -1.109375 C 8.285156 -1.222656 8.195312 -1.28125 8.15625 -1.28125 C 8.164062 -1.363281 8.085938 -1.492188 7.921875 -1.671875 C 7.753906 -1.859375 7.5625 -2.035156 7.34375 -2.203125 C 6.820312 -2.867188 6.453125 -3.351562 6.234375 -3.65625 C 6.023438 -3.96875 5.96875 -4.171875 6.0625 -4.265625 L 6.109375 -4.421875 C 5.941406 -4.460938 5.8125 -4.71875 5.71875 -5.1875 C 5.625 -5.65625 5.617188 -6.078125 5.703125 -6.453125 C 5.785156 -6.847656 6.070312 -7.359375 6.5625 -7.984375 C 7.050781 -8.617188 7.5625 -9.109375 8.09375 -9.453125 C 8.820312 -9.898438 9.738281 -10.335938 10.84375 -10.765625 C 11.957031 -11.203125 12.820312 -11.445312 13.4375 -11.5 C 13.84375 -11.5625 14.238281 -11.554688 14.625 -11.484375 C 14.96875 -11.410156 15.242188 -11.273438 15.453125 -11.078125 C 15.703125 -10.835938 15.929688 -10.523438 16.140625 -10.140625 C 16.347656 -9.753906 16.457031 -9.414062 16.46875 -9.125 C 16.375 -8.644531 16.234375 -8.191406 16.046875 -7.765625 C 15.859375 -7.335938 15.664062 -7.144531 15.46875 -7.1875 C 15.4375 -7.195312 15.398438 -7.191406 15.359375 -7.171875 C 15.316406 -7.148438 15.285156 -7.097656 15.265625 -7.015625 C 15.242188 -6.921875 15.171875 -6.8125 15.046875 -6.6875 C 14.929688 -6.570312 14.78125 -6.460938 14.59375 -6.359375 C 14.039062 -6.117188 13.613281 -6.03125 13.3125 -6.09375 C 13.0625 -6.144531 12.929688 -6.296875 12.921875 -6.546875 C 12.878906 -6.597656 12.847656 -6.671875 12.828125 -6.765625 C 12.804688 -6.867188 12.757812 -6.925781 12.6875 -6.9375 C 12.664062 -6.945312 12.632812 -6.992188 12.59375 -7.078125 C 12.550781 -7.171875 12.546875 -7.285156 12.578125 -7.421875 C 12.585938 -7.472656 12.628906 -7.53125 12.703125 -7.59375 C 12.773438 -7.664062 12.828125 -7.710938 12.859375 -7.734375 C 12.992188 -7.710938 13.265625 -7.925781 13.671875 -8.375 C 14.085938 -8.820312 14.316406 -9.128906 14.359375 -9.296875 C 14.390625 -9.429688 14.390625 -9.515625 14.359375 -9.546875 C 14.328125 -9.578125 14.222656 -9.609375 14.046875 -9.640625 C 12.171875 -9.242188 10.984375 -8.890625 10.484375 -8.578125 C 10.390625 -8.460938 10.320312 -8.382812 10.28125 -8.34375 C 10.25 -8.3125 10.1875 -8.304688 10.09375 -8.328125 C 10.125 -8.523438 9.378906 -7.894531 7.859375 -6.4375 C 7.796875 -6.40625 7.71875 -6.28125 7.625 -6.0625 C 7.53125 -5.851562 7.46875 -5.671875 7.4375 -5.515625 C 7.351562 -5.359375 7.304688 -5.269531 7.296875 -5.25 C 7.285156 -5.15625 7.304688 -5.054688 7.359375 -4.953125 C 7.410156 -4.847656 7.492188 -4.734375 7.609375 -4.609375 C 7.722656 -4.492188 7.835938 -4.363281 7.953125 -4.21875 C 8.910156 -3.125 9.566406 -2.316406 9.921875 -1.796875 C 10.285156 -1.273438 10.484375 -0.859375 10.515625 -0.546875 C 10.703125 -0.0351562 10.757812 0.390625 10.6875 0.734375 C 10.625 0.992188 10.472656 1.203125 10.234375 1.359375 C 10.003906 1.523438 9.675781 1.648438 9.25 1.734375 C 8.976562 1.796875 8.546875 1.804688 7.953125 1.765625 C 7.367188 1.722656 6.800781 1.644531 6.25 1.53125 C 5.945312 1.46875 5.625 1.375 5.28125 1.25 Z M 5.28125 1.25 "/></g></g></g><g fill="#f5f5f5" fill-opacity="1"><g transform="translate(209.21319, 146.965332)"><g><path d="M 9.28125 1.296875 C 8.601562 1.617188 7.890625 1.675781 7.140625 1.46875 C 6.597656 1.320312 6.117188 1.050781 5.703125 0.65625 C 5.285156 0.269531 4.976562 -0.191406 4.78125 -0.734375 C 4.59375 -1.160156 4.488281 -1.609375 4.46875 -2.078125 C 4.457031 -2.546875 4.535156 -3.085938 4.703125 -3.703125 C 4.765625 -3.929688 4.90625 -4.363281 5.125 -5 C 5.40625 -5.800781 5.894531 -6.570312 6.59375 -7.3125 C 7.289062 -8.050781 8.078125 -8.664062 8.953125 -9.15625 C 9.835938 -9.65625 10.648438 -9.941406 11.390625 -10.015625 C 11.796875 -10.128906 12.140625 -10.148438 12.421875 -10.078125 C 12.578125 -10.035156 12.726562 -9.984375 12.875 -9.921875 C 13.019531 -9.859375 13.175781 -9.800781 13.34375 -9.75 C 13.800781 -9.550781 14.140625 -9.359375 14.359375 -9.171875 C 14.578125 -8.984375 14.742188 -8.742188 14.859375 -8.453125 C 15.234375 -7.765625 15.328125 -7.066406 15.140625 -6.359375 C 14.921875 -5.859375 14.425781 -5.347656 13.65625 -4.828125 C 12.894531 -4.304688 12.039062 -3.957031 11.09375 -3.78125 C 10.6875 -3.757812 10.234375 -3.816406 9.734375 -3.953125 C 9.054688 -4.128906 8.546875 -4.414062 8.203125 -4.8125 C 8.035156 -4.925781 7.894531 -5 7.78125 -5.03125 C 7.582031 -5.082031 7.398438 -4.988281 7.234375 -4.75 C 7.066406 -4.519531 6.84375 -4.066406 6.5625 -3.390625 C 6.5 -3.253906 6.429688 -3.039062 6.359375 -2.75 C 6.054688 -1.644531 6.257812 -0.9375 6.96875 -0.625 C 7.445312 -0.394531 7.796875 -0.25 8.015625 -0.1875 C 8.273438 -0.113281 8.585938 -0.117188 8.953125 -0.203125 L 9.671875 -0.40625 C 9.816406 -0.425781 9.957031 -0.476562 10.09375 -0.5625 C 10.238281 -0.644531 10.363281 -0.710938 10.46875 -0.765625 C 10.519531 -0.796875 10.601562 -0.847656 10.71875 -0.921875 C 10.832031 -1.003906 10.929688 -1.046875 11.015625 -1.046875 C 11.109375 -1.054688 11.1875 -1.054688 11.25 -1.046875 C 11.332031 -1.015625 11.414062 -0.9375 11.5 -0.8125 C 11.582031 -0.695312 11.648438 -0.609375 11.703125 -0.546875 C 11.898438 -0.492188 11.90625 -0.347656 11.71875 -0.109375 C 11.539062 0.128906 11.222656 0.378906 10.765625 0.640625 C 10.316406 0.910156 9.820312 1.128906 9.28125 1.296875 Z M 11.125 -5.640625 C 11.53125 -5.679688 11.972656 -5.84375 12.453125 -6.125 C 12.941406 -6.414062 13.222656 -6.691406 13.296875 -6.953125 C 13.359375 -7.210938 13.316406 -7.453125 13.171875 -7.671875 C 13.023438 -7.898438 12.773438 -8.0625 12.421875 -8.15625 C 12.160156 -8.226562 11.960938 -8.265625 11.828125 -8.265625 C 11.503906 -8.253906 11.082031 -8.113281 10.5625 -7.84375 C 10.039062 -7.570312 9.578125 -7.28125 9.171875 -6.96875 C 8.765625 -6.664062 8.582031 -6.472656 8.625 -6.390625 C 8.6875 -6.171875 9.082031 -5.960938 9.8125 -5.765625 C 10.320312 -5.628906 10.757812 -5.585938 11.125 -5.640625 Z M 11.125 -5.640625 "/></g></g></g><g fill="#f5f5f5" fill-opacity="1"><g transform="translate(219.255938, 149.639157)"><g><path d="M 4.1875 0.15625 C 4.050781 -0.03125 3.96875 -0.1875 3.9375 -0.3125 C 3.90625 -0.445312 3.925781 -0.625 4 -0.84375 C 4.0625 -1.03125 4.128906 -1.1875 4.203125 -1.3125 C 4.503906 -2.007812 4.941406 -2.796875 5.515625 -3.671875 L 5.890625 -4.25 C 6.128906 -4.757812 6.875 -5.753906 8.125 -7.234375 C 9.375 -8.722656 10.316406 -9.703125 10.953125 -10.171875 C 11.160156 -10.222656 11.359375 -10.21875 11.546875 -10.15625 C 11.816406 -10.070312 12.019531 -9.894531 12.15625 -9.625 C 12.269531 -9.5 12.285156 -9.316406 12.203125 -9.078125 C 12.128906 -8.867188 11.9375 -8.582031 11.625 -8.21875 C 11.320312 -7.863281 10.847656 -7.34375 10.203125 -6.65625 C 10.066406 -6.507812 9.816406 -6.234375 9.453125 -5.828125 C 9.097656 -5.429688 8.910156 -5.191406 8.890625 -5.109375 C 8.867188 -5.054688 8.867188 -5.03125 8.890625 -5.03125 C 8.921875 -5.007812 8.960938 -5.007812 9.015625 -5.03125 C 9.078125 -5.0625 9.132812 -5.078125 9.1875 -5.078125 C 9.550781 -5.410156 10.300781 -5.773438 11.4375 -6.171875 C 12.582031 -6.566406 13.351562 -6.796875 13.75 -6.859375 C 13.9375 -6.890625 14.15625 -6.90625 14.40625 -6.90625 C 14.664062 -6.914062 14.851562 -6.9375 14.96875 -6.96875 C 15.351562 -7.019531 15.785156 -6.96875 16.265625 -6.8125 C 16.554688 -6.707031 16.796875 -6.570312 16.984375 -6.40625 C 17.179688 -6.238281 17.289062 -6.039062 17.3125 -5.8125 C 17.28125 -5.65625 17.300781 -5.519531 17.375 -5.40625 C 17.445312 -5.289062 17.5 -5.21875 17.53125 -5.1875 C 17.59375 -5.164062 17.625 -5.117188 17.625 -5.046875 C 17.632812 -4.984375 17.632812 -4.941406 17.625 -4.921875 C 17.570312 -4.773438 17.453125 -4.710938 17.265625 -4.734375 C 17.085938 -4.765625 16.773438 -4.847656 16.328125 -4.984375 C 16.085938 -5.035156 15.820312 -5.0625 15.53125 -5.0625 C 15.25 -5.070312 14.957031 -5.050781 14.65625 -5 C 13.25 -4.71875 12.1875 -4.476562 11.46875 -4.28125 C 10.75 -4.09375 9.984375 -3.765625 9.171875 -3.296875 C 8.847656 -3.128906 8.382812 -2.773438 7.78125 -2.234375 C 7.582031 -2.140625 7.300781 -1.800781 6.9375 -1.21875 C 6.570312 -0.644531 6.363281 -0.285156 6.3125 -0.140625 C 6.257812 -0.078125 6.171875 0.03125 6.046875 0.1875 C 5.921875 0.34375 5.769531 0.488281 5.59375 0.625 C 5.21875 0.875 4.941406 0.96875 4.765625 0.90625 C 4.578125 0.84375 4.382812 0.59375 4.1875 0.15625 Z M 4.1875 0.15625 "/></g></g></g><g fill="#f5f5f5" fill-opacity="1"><g transform="translate(230.231122, 153.289776)"><g><path d="M 6.5 0.359375 C 6.332031 0.109375 6.320312 -0.695312 6.46875 -2.0625 C 6.613281 -3.425781 6.816406 -4.722656 7.078125 -5.953125 C 7.179688 -6.421875 7.253906 -7.082031 7.296875 -7.9375 C 7.347656 -8.300781 7.394531 -8.546875 7.4375 -8.671875 C 7.59375 -9.046875 7.867188 -9.269531 8.265625 -9.34375 C 8.359375 -9.363281 8.492188 -9.359375 8.671875 -9.328125 C 8.847656 -9.304688 8.976562 -9.257812 9.0625 -9.1875 C 9.46875 -8.832031 9.382812 -7.394531 8.8125 -4.875 C 8.632812 -4.25 8.507812 -3.664062 8.4375 -3.125 C 8.363281 -2.59375 8.328125 -2.285156 8.328125 -2.203125 C 8.335938 -2.054688 8.351562 -1.894531 8.375 -1.71875 C 8.40625 -1.550781 8.472656 -1.445312 8.578125 -1.40625 C 8.640625 -1.382812 8.734375 -1.398438 8.859375 -1.453125 C 9.398438 -1.679688 10.023438 -2.007812 10.734375 -2.4375 C 11.503906 -2.925781 12.03125 -3.25 12.3125 -3.40625 C 12.6875 -3.664062 13.15625 -3.957031 13.71875 -4.28125 C 13.8125 -4.34375 14.035156 -4.484375 14.390625 -4.703125 C 14.742188 -4.921875 15.066406 -5.097656 15.359375 -5.234375 C 15.660156 -5.378906 15.890625 -5.441406 16.046875 -5.421875 C 16.128906 -5.410156 16.234375 -5.382812 16.359375 -5.34375 C 16.703125 -5.195312 16.816406 -4.976562 16.703125 -4.6875 C 16.597656 -4.414062 16.25 -4.085938 15.65625 -3.703125 C 15.46875 -3.578125 15.25 -3.398438 15 -3.171875 C 14.75 -2.953125 14.59375 -2.828125 14.53125 -2.796875 C 14.125 -2.429688 13.445312 -1.953125 12.5 -1.359375 C 11.550781 -0.765625 10.929688 -0.410156 10.640625 -0.296875 C 10.578125 -0.265625 10.34375 -0.1875 9.9375 -0.0625 C 9.539062 0.0625 9.148438 0.253906 8.765625 0.515625 C 7.835938 0.878906 7.226562 1.003906 6.9375 0.890625 C 6.75 0.804688 6.601562 0.628906 6.5 0.359375 Z M 6.5 0.359375 "/></g></g></g><g fill="#f5f5f5" fill-opacity="1"><g transform="translate(240.180195, 157.30553)"><g><path d="M 12.453125 -10.59375 C 12.378906 -10.789062 12.367188 -11.085938 12.421875 -11.484375 C 12.472656 -11.878906 12.550781 -12.050781 12.65625 -12 C 12.820312 -11.945312 13.085938 -12.039062 13.453125 -12.28125 C 13.828125 -12.53125 14.050781 -12.769531 14.125 -13 C 14.164062 -13.082031 14.234375 -13.144531 14.328125 -13.1875 C 14.421875 -13.226562 14.515625 -13.242188 14.609375 -13.234375 C 14.816406 -13.265625 14.984375 -13.25 15.109375 -13.1875 C 15.460938 -13.03125 15.671875 -12.644531 15.734375 -12.03125 C 15.742188 -11.695312 15.703125 -11.429688 15.609375 -11.234375 C 15.523438 -11.046875 15.382812 -10.875 15.1875 -10.71875 C 15 -10.570312 14.703125 -10.410156 14.296875 -10.234375 C 13.722656 -9.921875 13.285156 -9.832031 12.984375 -9.96875 C 12.785156 -10.0625 12.609375 -10.269531 12.453125 -10.59375 Z M 3.84375 0.546875 C 3.695312 0.140625 3.742188 -0.328125 3.984375 -0.859375 C 4.109375 -1.160156 4.269531 -1.390625 4.46875 -1.546875 C 4.519531 -1.648438 4.597656 -1.757812 4.703125 -1.875 C 4.804688 -2 4.867188 -2.082031 4.890625 -2.125 C 4.910156 -2.257812 5.140625 -2.5625 5.578125 -3.03125 C 6.316406 -3.6875 7.457031 -4.914062 9 -6.71875 C 9.039062 -6.8125 9.125 -6.875 9.25 -6.90625 C 9.375 -6.9375 9.515625 -6.925781 9.671875 -6.875 C 9.859375 -6.84375 9.984375 -6.8125 10.046875 -6.78125 C 10.171875 -6.726562 10.253906 -6.632812 10.296875 -6.5 C 10.347656 -6.363281 10.40625 -6.140625 10.46875 -5.828125 C 10.53125 -5.648438 10.507812 -5.4375 10.40625 -5.1875 C 10.226562 -4.800781 9.878906 -4.390625 9.359375 -3.953125 C 8.816406 -3.472656 8.414062 -3.035156 8.15625 -2.640625 C 7.65625 -2.210938 7.226562 -1.789062 6.875 -1.375 C 6.769531 -1.269531 6.59375 -1.050781 6.34375 -0.71875 C 6.101562 -0.382812 5.859375 -0.140625 5.609375 0.015625 C 5.222656 0.535156 4.925781 0.878906 4.71875 1.046875 C 4.519531 1.222656 4.359375 1.285156 4.234375 1.234375 C 4.097656 1.171875 3.96875 0.941406 3.84375 0.546875 Z M 3.84375 0.546875 "/></g></g></g><g fill="#f5f5f5" fill-opacity="1"><g transform="translate(245.552453, 159.644016)"><g><path d="M 6.453125 2.859375 C 6.160156 2.753906 5.941406 2.671875 5.796875 2.609375 C 5.054688 2.222656 4.5625 1.675781 4.3125 0.96875 C 4.0625 0.257812 4.144531 -0.503906 4.5625 -1.328125 C 4.9375 -2.234375 5.6875 -3.21875 6.8125 -4.28125 C 7.9375 -5.351562 9.085938 -6.144531 10.265625 -6.65625 C 11.046875 -6.988281 11.707031 -7.242188 12.25 -7.421875 C 12.800781 -7.609375 13.257812 -7.675781 13.625 -7.625 C 14.132812 -7.601562 14.648438 -7.460938 15.171875 -7.203125 C 15.492188 -6.929688 15.773438 -6.597656 16.015625 -6.203125 C 16.253906 -5.804688 16.316406 -5.5 16.203125 -5.28125 L 16.265625 -5.046875 C 16.390625 -4.984375 16.429688 -4.78125 16.390625 -4.4375 C 16.347656 -4.101562 16.238281 -3.765625 16.0625 -3.421875 C 15.925781 -3.140625 15.753906 -2.921875 15.546875 -2.765625 C 15.265625 -2.429688 14.957031 -2.171875 14.625 -1.984375 C 14.289062 -1.804688 14.035156 -1.757812 13.859375 -1.84375 C 13.640625 -1.957031 13.5 -1.957031 13.4375 -1.84375 C 13.394531 -1.757812 13.332031 -1.738281 13.25 -1.78125 C 13.15625 -1.832031 13.066406 -1.953125 12.984375 -2.140625 C 12.898438 -2.335938 12.875 -2.53125 12.90625 -2.71875 C 12.9375 -2.78125 13.0625 -2.929688 13.28125 -3.171875 C 13.5 -3.410156 13.738281 -3.679688 14 -3.984375 C 14.164062 -4.191406 14.296875 -4.382812 14.390625 -4.5625 C 14.585938 -4.957031 14.539062 -5.234375 14.25 -5.390625 C 14.09375 -5.460938 13.914062 -5.503906 13.71875 -5.515625 C 12.6875 -5.472656 11.613281 -5.128906 10.5 -4.484375 C 9.394531 -3.847656 8.207031 -2.789062 6.9375 -1.3125 C 6.625 -0.925781 6.398438 -0.601562 6.265625 -0.34375 C 6.160156 -0.144531 6.09375 0.0195312 6.0625 0.15625 C 6.03125 0.300781 6.023438 0.390625 6.046875 0.421875 C 6.128906 0.515625 6.328125 0.640625 6.640625 0.796875 C 7.390625 1.171875 7.960938 1.347656 8.359375 1.328125 C 9.179688 1.304688 10.128906 1.207031 11.203125 1.03125 C 11.304688 1 11.472656 0.953125 11.703125 0.890625 C 11.941406 0.828125 12.148438 0.800781 12.328125 0.8125 C 12.578125 0.65625 12.773438 0.582031 12.921875 0.59375 C 13.066406 0.601562 13.269531 0.675781 13.53125 0.8125 C 13.75 1.019531 13.898438 1.226562 13.984375 1.4375 C 14.078125 1.65625 14.03125 1.757812 13.84375 1.75 C 13.789062 1.71875 13.738281 1.71875 13.6875 1.75 C 13.644531 1.78125 13.617188 1.804688 13.609375 1.828125 C 13.609375 1.953125 13.320312 2.125 12.75 2.34375 C 12.1875 2.5625 11.59375 2.734375 10.96875 2.859375 C 10.351562 2.992188 9.960938 3.023438 9.796875 2.953125 C 9.710938 2.898438 9.640625 2.867188 9.578125 2.859375 C 9.515625 2.847656 9.460938 2.878906 9.421875 2.953125 C 9.378906 3.035156 8.976562 3.066406 8.21875 3.046875 C 7.457031 3.023438 6.867188 2.960938 6.453125 2.859375 Z M 6.453125 2.859375 "/></g></g></g><g fill="#f5f5f5" fill-opacity="1"><g transform="translate(255.728204, 164.798337)"><g><path d="M 8.625 3.65625 C 7.894531 3.800781 7.191406 3.675781 6.515625 3.28125 C 6.023438 3 5.628906 2.613281 5.328125 2.125 C 5.023438 1.632812 4.851562 1.101562 4.8125 0.53125 C 4.726562 0.0703125 4.742188 -0.382812 4.859375 -0.84375 C 4.972656 -1.300781 5.191406 -1.804688 5.515625 -2.359375 C 5.628906 -2.554688 5.867188 -2.941406 6.234375 -3.515625 C 6.722656 -4.203125 7.398438 -4.804688 8.265625 -5.328125 C 9.128906 -5.859375 10.046875 -6.25 11.015625 -6.5 C 11.992188 -6.757812 12.851562 -6.828125 13.59375 -6.703125 C 14.03125 -6.722656 14.375 -6.660156 14.625 -6.515625 C 14.757812 -6.429688 14.890625 -6.335938 15.015625 -6.234375 C 15.140625 -6.140625 15.269531 -6.035156 15.40625 -5.921875 C 15.8125 -5.617188 16.09375 -5.347656 16.25 -5.109375 C 16.40625 -4.878906 16.503906 -4.613281 16.546875 -4.3125 C 16.742188 -3.539062 16.65625 -2.835938 16.28125 -2.203125 C 15.9375 -1.773438 15.328125 -1.410156 14.453125 -1.109375 C 13.578125 -0.816406 12.660156 -0.695312 11.703125 -0.75 C 11.296875 -0.84375 10.867188 -1.019531 10.421875 -1.28125 C 9.816406 -1.632812 9.398438 -2.039062 9.171875 -2.5 C 9.035156 -2.65625 8.914062 -2.765625 8.8125 -2.828125 C 8.632812 -2.929688 8.4375 -2.890625 8.21875 -2.703125 C 8 -2.515625 7.664062 -2.140625 7.21875 -1.578125 C 7.125 -1.453125 7.003906 -1.265625 6.859375 -1.015625 C 6.273438 -0.0234375 6.289062 0.71875 6.90625 1.21875 C 7.289062 1.5625 7.582031 1.789062 7.78125 1.90625 C 8.019531 2.039062 8.328125 2.113281 8.703125 2.125 L 9.4375 2.125 C 9.582031 2.132812 9.734375 2.117188 9.890625 2.078125 C 10.054688 2.046875 10.195312 2.015625 10.3125 1.984375 C 10.375 1.972656 10.46875 1.941406 10.59375 1.890625 C 10.726562 1.847656 10.835938 1.832031 10.921875 1.84375 C 11.003906 1.851562 11.070312 1.875 11.125 1.90625 C 11.207031 1.957031 11.269531 2.050781 11.3125 2.1875 C 11.351562 2.332031 11.394531 2.441406 11.4375 2.515625 C 11.613281 2.609375 11.582031 2.75 11.34375 2.9375 C 11.113281 3.132812 10.742188 3.296875 10.234375 3.421875 C 9.722656 3.554688 9.1875 3.632812 8.625 3.65625 Z M 12.203125 -2.546875 C 12.609375 -2.484375 13.082031 -2.53125 13.625 -2.6875 C 14.175781 -2.84375 14.515625 -3.035156 14.640625 -3.265625 C 14.773438 -3.492188 14.800781 -3.738281 14.71875 -4 C 14.644531 -4.257812 14.445312 -4.476562 14.125 -4.65625 C 13.894531 -4.800781 13.707031 -4.878906 13.5625 -4.890625 C 13.25 -4.972656 12.804688 -4.953125 12.234375 -4.828125 C 11.671875 -4.703125 11.148438 -4.539062 10.671875 -4.34375 C 10.203125 -4.15625 9.976562 -4.015625 10 -3.921875 C 10 -3.703125 10.328125 -3.398438 10.984375 -3.015625 C 11.429688 -2.753906 11.835938 -2.597656 12.203125 -2.546875 Z M 12.203125 -2.546875 "/></g></g></g><g fill="#f5f5f5" fill-opacity="1"><g transform="translate(264.800567, 170.110319)"><g><path d="M 8.6875 -1.234375 C 8.28125 -1.378906 8.0625 -1.660156 8.03125 -2.078125 C 8.007812 -2.503906 8.171875 -2.988281 8.515625 -3.53125 C 8.835938 -4.019531 9.289062 -4.53125 9.875 -5.0625 C 10.476562 -5.425781 10.863281 -5.738281 11.03125 -6 C 11.332031 -6.257812 11.742188 -6.570312 12.265625 -6.9375 C 12.796875 -7.3125 13.21875 -7.59375 13.53125 -7.78125 C 13.613281 -7.726562 13.738281 -7.738281 13.90625 -7.8125 C 14.070312 -7.894531 14.195312 -8.003906 14.28125 -8.140625 C 14.382812 -8.304688 14.53125 -8.453125 14.71875 -8.578125 C 14.90625 -8.710938 15.054688 -8.800781 15.171875 -8.84375 C 15.210938 -8.894531 15.316406 -8.96875 15.484375 -9.0625 C 15.648438 -9.15625 15.75 -9.226562 15.78125 -9.28125 C 15.800781 -9.3125 15.863281 -9.351562 15.96875 -9.40625 C 16.070312 -9.46875 16.140625 -9.523438 16.171875 -9.578125 C 16.878906 -9.929688 18.0625 -10.6875 19.71875 -11.84375 C 21.375 -13 22.285156 -13.691406 22.453125 -13.921875 C 22.710938 -14.203125 22.96875 -14.222656 23.21875 -13.984375 C 23.363281 -14.003906 23.539062 -13.945312 23.75 -13.8125 L 23.84375 -13.109375 C 23.90625 -12.878906 23.90625 -12.6875 23.84375 -12.53125 C 23.78125 -12.375 23.65625 -12.15625 23.46875 -11.875 C 23.269531 -11.59375 22.984375 -11.335938 22.609375 -11.109375 C 22.242188 -10.878906 21.84375 -10.648438 21.40625 -10.421875 C 20.976562 -10.203125 20.671875 -10.039062 20.484375 -9.9375 L 19.6875 -9.5 C 19.039062 -9.15625 18.691406 -8.941406 18.640625 -8.859375 C 18.585938 -8.773438 18.453125 -8.664062 18.234375 -8.53125 C 18.015625 -8.394531 17.835938 -8.28125 17.703125 -8.1875 C 17.335938 -8.007812 16.910156 -7.769531 16.421875 -7.46875 C 15.941406 -7.175781 15.679688 -7 15.640625 -6.9375 C 15.597656 -6.894531 15.53125 -6.835938 15.4375 -6.765625 C 15.351562 -6.703125 15.25 -6.65625 15.125 -6.625 C 15.0625 -6.65625 14.992188 -6.632812 14.921875 -6.5625 C 14.859375 -6.488281 14.8125 -6.429688 14.78125 -6.390625 C 14.726562 -6.304688 14.554688 -6.148438 14.265625 -5.921875 C 13.984375 -5.703125 13.648438 -5.476562 13.265625 -5.25 C 11.441406 -3.832031 10.253906 -2.75 9.703125 -2 C 9.390625 -1.582031 9.191406 -1.34375 9.109375 -1.28125 C 9.023438 -1.21875 8.882812 -1.203125 8.6875 -1.234375 Z M 4.234375 2.3125 C 3.785156 2.21875 3.46875 2.113281 3.28125 2 C 3.03125 1.84375 2.816406 1.546875 2.640625 1.109375 C 2.554688 0.671875 2.597656 0.320312 2.765625 0.0625 C 3.035156 -0.351562 3.628906 -0.578125 4.546875 -0.609375 C 5.078125 -0.597656 5.425781 -0.535156 5.59375 -0.421875 C 5.695312 -0.359375 5.882812 -0.144531 6.15625 0.21875 C 6.46875 0.851562 6.492188 1.367188 6.234375 1.765625 C 6.085938 1.992188 5.84375 2.15625 5.5 2.25 C 5.15625 2.351562 4.734375 2.375 4.234375 2.3125 Z M 4.234375 2.3125 "/></g></g></g><g clip-path="url(#b0cc96fd86)"><g clip-path="url(#15fcf44d5b)"><g clip-path="url(#7f80885976)"><path fill="#f5f5f5" d="M 134.90625 188.675781 L 240.386719 206.976562 L 237.816406 221.785156 L 132.335938 203.484375 Z M 134.90625 188.675781 " fill-opacity="1" fill-rule="nonzero"/></g></g></g><path stroke-linecap="butt" transform="matrix(0.749217, -0.00542353, 0.00542905, 0.74998, 132.335197, 233.478736)" fill="none" stroke-linejoin="miter" d="M -0.00106052 1.002329 L 138.143201 1.001301 " stroke="#e30b21" stroke-width="2" stroke-opacity="1" stroke-miterlimit="4"/><g clip-path="url(#68499a3b05)"><g clip-path="url(#6e9bcaf018)"><path fill="#f5f5f5" d="M 197.625 157.800781 L 207.976562 157.800781 L 207.976562 169.648438 L 197.625 169.648438 Z M 197.625 157.800781 " fill-opacity="1" fill-rule="nonzero"/></g></g><g fill="#f5f5f5" fill-opacity="1"><g transform="translate(149.267764, 218.008843)"><g><path d="M 2.21875 -1.75 C 2.175781 -1.757812 2.097656 -1.78125 1.984375 -1.8125 C 1.867188 -1.851562 1.789062 -1.890625 1.75 -1.921875 C 1.695312 -2.054688 1.671875 -2.207031 1.671875 -2.375 C 1.671875 -2.664062 1.710938 -2.910156 1.796875 -3.109375 C 1.890625 -3.316406 2.023438 -3.507812 2.203125 -3.6875 C 2.378906 -3.875 2.679688 -4.144531 3.109375 -4.5 C 3.460938 -4.789062 3.71875 -5.0625 3.875 -5.3125 C 4.039062 -5.5625 4.125 -5.867188 4.125 -6.234375 C 4.125 -6.640625 4.023438 -6.945312 3.828125 -7.15625 C 3.628906 -7.363281 3.351562 -7.46875 3 -7.46875 C 2.550781 -7.46875 2.1875 -7.300781 1.90625 -6.96875 C 1.632812 -6.632812 1.5 -6.203125 1.5 -5.671875 C 1.5 -5.535156 1.503906 -5.390625 1.515625 -5.234375 C 1.535156 -5.085938 1.554688 -4.972656 1.578125 -4.890625 C 1.378906 -4.890625 1.226562 -4.984375 1.125 -5.171875 C 1.03125 -5.359375 0.984375 -5.585938 0.984375 -5.859375 C 0.984375 -6.222656 1.066406 -6.550781 1.234375 -6.84375 C 1.410156 -7.144531 1.65625 -7.378906 1.96875 -7.546875 C 2.28125 -7.722656 2.640625 -7.8125 3.046875 -7.8125 C 3.554688 -7.8125 3.953125 -7.664062 4.234375 -7.375 C 4.523438 -7.09375 4.671875 -6.695312 4.671875 -6.1875 C 4.671875 -5.863281 4.613281 -5.578125 4.5 -5.328125 C 4.382812 -5.085938 4.242188 -4.882812 4.078125 -4.71875 C 3.910156 -4.5625 3.695312 -4.382812 3.4375 -4.1875 C 3.113281 -3.9375 2.875 -3.734375 2.71875 -3.578125 C 2.5625 -3.421875 2.441406 -3.238281 2.359375 -3.03125 C 2.285156 -2.832031 2.242188 -2.566406 2.234375 -2.234375 C 2.222656 -2.140625 2.21875 -1.976562 2.21875 -1.75 Z M 1.78125 0.125 C 1.632812 0.125 1.519531 0.078125 1.4375 -0.015625 C 1.351562 -0.109375 1.3125 -0.234375 1.3125 -0.390625 C 1.3125 -0.554688 1.363281 -0.695312 1.46875 -0.8125 C 1.570312 -0.925781 1.707031 -0.984375 1.875 -0.984375 C 2.019531 -0.984375 2.132812 -0.9375 2.21875 -0.84375 C 2.300781 -0.757812 2.34375 -0.644531 2.34375 -0.5 C 2.34375 -0.320312 2.289062 -0.171875 2.1875 -0.046875 C 2.082031 0.0664062 1.945312 0.125 1.78125 0.125 Z M 1.78125 0.125 "/></g></g></g><g fill="#f5f5f5" fill-opacity="1"><g transform="translate(153.884505, 218.008843)"><g><path d="M 2.203125 -2.3125 C 2.128906 -2.3125 2.0625 -2.316406 2 -2.328125 C 1.9375 -2.347656 1.90625 -2.375 1.90625 -2.40625 L 2.28125 -4.484375 C 2.320312 -4.753906 2.398438 -5.222656 2.515625 -5.890625 C 2.628906 -6.566406 2.710938 -7.035156 2.765625 -7.296875 C 2.816406 -7.554688 2.867188 -7.722656 2.921875 -7.796875 C 2.972656 -7.878906 3.0625 -7.921875 3.1875 -7.921875 C 3.40625 -7.921875 3.597656 -7.863281 3.765625 -7.75 C 3.679688 -7.6875 3.625 -7.628906 3.59375 -7.578125 C 3.5625 -7.523438 3.535156 -7.4375 3.515625 -7.3125 C 3.304688 -6.507812 3.113281 -5.707031 2.9375 -4.90625 C 2.757812 -4.101562 2.578125 -3.253906 2.390625 -2.359375 C 2.367188 -2.328125 2.304688 -2.3125 2.203125 -2.3125 Z M 1.765625 0.109375 C 1.617188 0.109375 1.5 0.0625 1.40625 -0.03125 C 1.3125 -0.132812 1.265625 -0.273438 1.265625 -0.453125 C 1.265625 -0.660156 1.320312 -0.832031 1.4375 -0.96875 C 1.550781 -1.101562 1.707031 -1.171875 1.90625 -1.171875 C 2.0625 -1.171875 2.179688 -1.125 2.265625 -1.03125 C 2.359375 -0.9375 2.40625 -0.800781 2.40625 -0.625 C 2.40625 -0.414062 2.347656 -0.238281 2.234375 -0.09375 C 2.117188 0.0390625 1.960938 0.109375 1.765625 0.109375 Z M 1.765625 0.109375 "/></g></g></g><g clip-path="url(#366f4b5c8f)"><g clip-path="url(#980d2c3581)"><path fill="#f5f5f5" d="M 135.148438 163.648438 L 239.101562 163.648438 L 239.101562 219.226562 L 135.148438 219.226562 Z M 135.148438 163.648438 " fill-opacity="1" fill-rule="nonzero"/></g></g></svg>