<?xml version="1.0" encoding="UTF-8" standalone="no"?>
<!-- Created with Inkscape (http://www.inkscape.org/) -->

<svg
   version="1.1"
   id="svg1"
   width="512"
   height="512"
   viewBox="0 0 512 512"
   sodipodi:docname="2_cloche.svg"
   inkscape:version="1.3.1 (9b9bdc1480, 2023-11-25, custom)"
   xmlns:inkscape="http://www.inkscape.org/namespaces/inkscape"
   xmlns:sodipodi="http://sodipodi.sourceforge.net/DTD/sodipodi-0.dtd"
   xmlns="http://www.w3.org/2000/svg"
   xmlns:svg="http://www.w3.org/2000/svg">
  <defs
     id="defs1" />
  <sodipodi:namedview
     id="namedview1"
     pagecolor="#505050"
     bordercolor="#eeeeee"
     borderopacity="1"
     inkscape:showpageshadow="0"
     inkscape:pageopacity="0"
     inkscape:pagecheckerboard="0"
     inkscape:deskcolor="#505050"
     showgrid="false"
     inkscape:zoom="1.59375"
     inkscape:cx="213.33333"
     inkscape:cy="237.17647"
     inkscape:window-width="1850"
     inkscape:window-height="1016"
     inkscape:window-x="0"
     inkscape:window-y="0"
     inkscape:window-maximized="1"
     inkscape:current-layer="svg1" />
  <path
     style="display:inline;fill:#ffffff;fill-opacity:1"
     d="m 125.5,495.00808 c -1.1,-0.46558 -26.0375,-24.92194 -55.416667,-54.34746 -48.008712,-48.08446 -53.416666,-53.821 -53.416666,-56.66229 0,-2.81996 3.68074,-6.84209 34.085158,-37.24651 30.290263,-30.29026 34.434356,-34.08515 37.2216,-34.08515 2.515,0 4.412379,1.26459 9.576149,6.38246 l 6.439706,6.38247 16.25536,-16.0373 C 129.18509,300.57379 138.075,292.15667 140,290.68959 l 3.5,-2.66741 -11,-0.0309 c -6.05,-0.017 -14.05325,-0.47238 -17.785,-1.01198 -3.73175,-0.53959 -9.079,-2.14354 -11.88278,-3.56432 -2.80379,-1.42079 -7.334661,-4.67557 -10.068608,-7.23286 -2.733947,-2.55729 -6.256727,-7.197 -7.8284,-10.31046 -1.571673,-3.11347 -3.312513,-8.48568 -3.868533,-11.93825 -0.753609,-4.67949 -0.699852,-6.92617 0.211188,-8.82614 C 81.95004,243.70546 83.625,241.98949 85,241.29401 c 1.439732,-0.72823 6.210939,-1.27078 11.25,-1.27927 L 105,240 v -5.44878 c 0,-2.99683 0.67133,-10.53433 1.49185,-16.75 0.82052,-6.21567 2.58979,-15.80122 3.93172,-21.30122 1.34193,-5.5 3.85794,-14.05 5.59112,-19 1.73318,-4.95 5.36201,-13.53829 8.06406,-19.08509 2.70205,-5.5468 7.50222,-13.95259 10.66704,-18.67953 3.16481,-4.72694 8.96617,-12.35956 12.89191,-16.96137 3.92573,-4.60182 10.90073,-11.55671 15.5,-15.45532 4.59926,-3.89861 12.13966,-9.612507 16.75644,-12.697553 4.61677,-3.085047 12.94177,-7.828056 18.5,-10.540022 5.55822,-2.711965 14.65843,-6.503637 20.22268,-8.425937 5.56425,-1.922299 15.23925,-4.615677 21.5,-5.985283 6.26075,-1.369606 13.52068,-2.783198 16.13318,-3.141317 2.75985,-0.378317 4.75,-1.170124 4.75,-1.889851 0,-0.6813 -0.43152,-1.670247 -0.95893,-2.19766 -0.52742,-0.527413 -1.67657,-3.76013 -2.55368,-7.183814 -1.2795,-4.994382 -1.38642,-7.351792 -0.54088,-11.925724 0.57962,-3.135463 1.98911,-7.632814 3.1322,-9.994114 1.14308,-2.361299 4.30639,-6.296487 7.02957,-8.744862 2.86233,-2.573481 7.15364,-5.198632 10.17148,-6.222268 2.87113,-0.973872 7.69524,-1.770677 10.72024,-1.770677 3.025,0 7.84911,0.796805 10.72024,1.770677 2.96199,1.004692 7.29325,3.634498 10.01229,6.079141 2.63562,2.369655 5.79847,6.323631 7.02854,8.786614 1.23007,2.462983 2.6754,6.792458 3.21183,9.621055 0.62102,3.274635 0.63206,6.952959 0.0304,10.125555 -0.51972,2.740458 -1.84648,6.749824 -2.94837,8.909703 l -2.00344,3.927052 5.22426,0.668678 c 2.87334,0.367773 10.34669,1.794427 16.60744,3.170342 6.26075,1.375915 15.93575,4.074454 21.5,5.996753 5.56425,1.9223 14.61682,5.700342 20.11682,8.395649 5.5,2.695307 13.375,7.076682 17.5,9.736389 4.125,2.659707 11.67326,8.340524 16.77391,12.624034 5.10065,4.28352 12.52565,11.60004 16.5,16.25895 3.97435,4.65891 9.81549,12.33824 12.9803,17.06518 3.16482,4.72694 7.96499,13.13273 10.66704,18.67953 2.70205,5.5468 6.33088,14.13509 8.06406,19.08509 1.73318,4.95 4.24919,13.5 5.59112,19 1.34193,5.5 3.1112,15.08555 3.93172,21.30122 0.82052,6.21567 1.49185,13.75317 1.49185,16.75 l 0,5.44878 8.75,0.0147 c 5.03906,0.008 9.81027,0.55104 11.25,1.27927 1.375,0.69548 3.01688,2.37635 3.64861,3.73525 0.79717,1.71477 0.8776,4.38546 0.26287,8.72859 -0.48716,3.44182 -2.0544,8.56408 -3.48275,11.38279 -1.42835,2.81871 -4.68932,7.3618 -7.24661,10.09575 -2.55729,2.73394 -7.23163,6.27421 -10.38743,7.86725 -3.17443,1.60245 -8.76611,3.33433 -12.51625,3.87659 -3.72814,0.53908 -12.71798,0.98907 -19.97741,0.99996 L 428.10205,288 l 1.59321,3.75 c 0.93974,2.21192 1.60067,6.62109 1.61141,10.75 0.0132,5.08257 -0.58805,8.3696 -2.19506,12 -1.73249,3.91386 -7.68725,10.50331 -27.41244,30.33419 C 387.83963,358.768 373.8,372.09555 370.5,374.45098 c -3.3,2.35543 -8.7,5.35028 -12,6.65523 l -6,2.37264 -67.5,0.5275 c -60.80701,0.47519 -67.93202,0.69868 -71.85704,2.25398 -2.39638,0.94957 -6.44638,3.27367 -9,5.16467 -2.55363,1.891 -7.55496,6.39397 -11.11407,10.00659 L 186.55778,408 l 6.38777,6.44507 c 5.12269,5.16862 6.38778,7.06623 6.38778,9.58151 0,2.78877 -3.75956,6.88564 -33.91666,36.95964 C 146.7625,479.58897 130.6,495.04458 129.5,495.332 c -1.1,0.28742 -2.9,0.14166 -4,-0.32392 z m 29.50287,-44.51095 26.48872,-26.50287 -46.7453,-46.74529 L 88.001,330.50367 61.253684,357.25099 34.506369,383.9983 80.999152,430.49915 C 106.57018,456.07462 127.72193,477 128.00304,477 c 0.28111,0 12.43103,-11.92629 26.99983,-26.50287 z M 185.90384,387.75 c 6.45352,-6.18707 11.79203,-10.32023 16.12225,-12.48209 3.56065,-1.77765 9.17391,-4.00047 12.47391,-4.93961 5.2829,-1.50344 13.88815,-1.77449 72,-2.26791 l 66,-0.56039 5,-2.42525 c 3.64522,-1.76811 11.72468,-9.08394 29.81828,-27 13.65005,-13.51611 25.72505,-26.03854 26.83333,-27.82762 1.23119,-1.98748 2.01506,-4.98464 2.01506,-7.70464 0,-2.51767 -0.7965,-5.80484 -1.83334,-7.5662 -1.00833,-1.71294 -3.23645,-3.98335 -4.95136,-5.04536 C 407.6376,288.85068 404.47225,288 402.19707,288 c -2.23678,0 -5.33367,0.47824 -6.88197,1.06276 -1.54831,0.58452 -13.06542,11.27202 -25.59358,23.75 L 346.94304,335.5 l -64.72152,0.3012 c -43.33574,0.20167 -65.92113,-0.0476 -68.35199,-0.75433 -2.58312,-0.75102 -3.98845,-1.91976 -4.87132,-4.0512 -0.97807,-2.36126 -0.98338,-3.61725 -0.0251,-5.93077 0.7472,-1.80391 2.39306,-3.3455 4.27054,-4 1.89759,-0.6615 14.40014,-1.0649 33.00443,-1.0649 25.5613,0 30.45089,-0.23785 33.37047,-1.62329 1.88146,-0.8928 4.39335,-2.98907 5.58199,-4.65836 1.31098,-1.8411 2.33093,-5.08217 2.5927,-8.23874 0.30119,-3.63199 -0.0986,-6.3209 -1.32378,-8.9027 -0.96542,-2.03447 -3.37045,-4.79656 -5.34452,-6.13797 L 277.53573,288 h -48.1079 c -44.81165,0 -48.64294,0.13684 -55.91666,1.99714 -4.29481,1.09843 -10.58616,3.55036 -13.98078,5.44874 -3.39461,1.89838 -9.96516,6.80249 -14.60121,10.89803 -4.63605,4.09554 -13.37396,12.44607 -19.41757,18.55673 l -10.98839,11.11029 30.48224,30.49453 C 161.77069,383.27746 175.66046,397 175.8716,397 c 0.21114,0 4.72565,-4.1625 10.03224,-9.25 z M 357.5,304 373.47656,288 h -37.18205 -37.18205 l 2.09083,4.72666 c 1.42686,3.22566 2.09083,6.80565 2.09083,11.27334 0,4.46769 -0.66397,8.04768 -2.09083,11.27334 L 299.11246,320 h 21.20549 21.20549 z m 109.61753,-34.79274 c 3.06939,-1.60347 6.73768,-4.61747 8.61419,-7.07774 C 477.52927,259.77277 479,257.4295 479,256.92226 479,256.37664 464.56321,256 443.64922,256 c -22.4245,0 -36.46778,-0.38939 -38.40556,-1.0649 -1.87748,-0.6545 -3.52334,-2.19609 -4.27054,-4 -0.9437,-2.27829 -0.94971,-3.57741 -0.0268,-5.80538 0.6539,-1.57865 2.30467,-3.37865 3.66837,-4 C 406.24146,240.38849 415.50306,240 431.54705,240 H 456 v -3.40826 c 0,-1.87454 -0.7181,-8.96204 -1.59578,-15.75 -0.87768,-6.78796 -2.85769,-17.3485 -4.40002,-23.46786 -1.54233,-6.11937 -4.46707,-15.34437 -6.49943,-20.5 -2.03235,-5.15564 -5.93499,-13.46753 -8.67253,-18.47089 -2.73754,-5.00335 -7.83464,-12.90412 -11.32688,-17.55727 -3.49224,-4.65315 -10.61625,-12.53928 -15.83113,-17.52473 -5.21487,-4.98546 -13.66346,-11.86167 -18.77462,-15.28047 -5.11117,-3.41881 -12.73,-7.94408 -16.93073,-10.056166 -4.20073,-2.112087 -12.32471,-5.477347 -18.05329,-7.478355 -5.72857,-2.001007 -14.17923,-4.537471 -18.77923,-5.636586 -4.60001,-1.099114 -13.15001,-2.635585 -19,-3.414379 -5.85,-0.778794 -18.29817,-1.424774 -27.66259,-1.435511 -9.36443,-0.01074 -20.83943,0.451833 -25.5,1.027934 -4.66058,0.576102 -12.74877,1.913081 -17.97377,2.971066 -5.225,1.057984 -13.775,3.341192 -19,5.073795 -5.225,1.732603 -13.74158,5.126862 -18.92574,7.542797 -5.18415,2.415935 -13.87449,7.354265 -19.31186,10.974075 -5.43737,3.6198 -14.16835,10.67529 -19.40218,15.67886 -5.23382,5.00357 -12.37334,12.90452 -15.86558,17.55767 -3.49224,4.65315 -8.6114,12.55392 -11.3759,17.55727 -2.7645,5.00336 -6.64197,13.29386 -8.61659,18.42334 -1.97463,5.12948 -4.68108,13.45448 -6.01435,18.5 -1.33327,5.04552 -3.07714,12.99867 -3.87526,17.67367 -0.79813,4.675 -1.77049,12.6625 -2.16082,17.75 l -0.70969,9.25 h 108.58193 c 78.57003,0 109.26725,0.31225 111.0614,1.12972 1.3637,0.62135 3.01447,2.42135 3.66837,4 0.92286,2.22797 0.91685,3.52709 -0.0268,5.80538 -0.7472,1.80391 -2.39306,3.3455 -4.27054,4 C 336.66169,255.66529 298.18246,256 216.33045,256 H 96.959352 l 1.923006,3.75 c 1.057653,2.0625 2.979302,4.73457 4.270322,5.93793 1.29103,1.20336 4.37232,3.10598 6.84732,4.22804 l 4.5,2.04011 173.63581,0.022 L 461.77162,272 Z M 364.85071,254.87129 c -1.45711,-0.53395 -3.19921,-2.29842 -3.87132,-3.92105 -0.94958,-2.29247 -0.95696,-3.59018 -0.0331,-5.82052 0.6539,-1.57865 2.30467,-3.37865 3.66837,-4 C 365.97835,240.50837 369.30176,240 372,240 c 2.69824,0 6.02165,0.50837 7.38536,1.12972 1.3637,0.62135 3.01447,2.42135 3.66837,4 0.92286,2.22797 0.91685,3.52709 -0.0268,5.80538 -0.7472,1.80391 -2.39306,3.3455 -4.27054,4 -1.68013,0.58569 -4.90014,1.02937 -7.15556,0.98595 -2.25543,-0.0434 -5.29296,-0.51581 -6.75007,-1.04976 z M 297.69211,61.219237 c 1.68372,-1.198917 3.84237,-3.825799 4.79699,-5.837514 1.20562,-2.540662 1.60389,-5.246794 1.30415,-8.861328 -0.26177,-3.156572 -1.28172,-6.397648 -2.5927,-8.238743 -1.18864,-1.669293 -3.80711,-3.816132 -5.81883,-4.770754 -2.54066,-1.205623 -5.24679,-1.603892 -8.86133,-1.304147 -3.15657,0.261768 -6.39764,1.28172 -8.23874,2.592695 -1.66929,1.188642 -3.81613,3.807116 -4.77075,5.818831 -1.20562,2.540662 -1.60389,5.246794 -1.30415,8.861328 0.26085,3.145473 1.28153,6.397387 2.58057,8.221717 1.18198,1.659929 3.62586,3.771244 5.43086,4.691811 2.23493,1.139832 5.05717,1.567243 8.84722,1.339855 3.69994,-0.221982 6.59151,-1.064563 8.62671,-2.513751 z"
     id="path18" />
</svg>
