<?xml version="1.0" encoding="UTF-8" standalone="no"?>
<svg
   height="100%"
   style="fill-rule:evenodd;clip-rule:evenodd;stroke-linejoin:round;stroke-miterlimit:2;"
   version="1.1"
   viewBox="0 0 64 64"
   width="100%"
   xml:space="preserve"
   id="svg1"
   sodipodi:docname="3_teacher.svg"
   inkscape:version="1.3.1 (9b9bdc1480, 2023-11-25, custom)"
   xmlns:inkscape="http://www.inkscape.org/namespaces/inkscape"
   xmlns:sodipodi="http://sodipodi.sourceforge.net/DTD/sodipodi-0.dtd"
   xmlns="http://www.w3.org/2000/svg"
   xmlns:svg="http://www.w3.org/2000/svg"><defs
     id="defs1" /><sodipodi:namedview
     id="namedview1"
     pagecolor="#505050"
     bordercolor="#eeeeee"
     borderopacity="1"
     inkscape:showpageshadow="0"
     inkscape:pageopacity="0"
     inkscape:pagecheckerboard="0"
     inkscape:deskcolor="#505050"
     inkscape:zoom="12.75"
     inkscape:cx="32"
     inkscape:cy="32"
     inkscape:window-width="1850"
     inkscape:window-height="1016"
     inkscape:window-x="0"
     inkscape:window-y="0"
     inkscape:window-maximized="1"
     inkscape:current-layer="svg1" /><g
     id="ICON"><path
       d="M60,3.5l-56,-0c-0.552,0 -1,0.448 -1,1c0,0.552 0.448,1 1,1l2.171,-0c-0.111,0.313 -0.171,0.649 -0.171,1l-0,10.176c-0,0.552 0.448,1 1,1c0.552,0 1,-0.448 1,-1l0,-6.676l44,-0c0.552,0 1,-0.448 1,-1c0,-0.552 -0.448,-1 -1,-1l-44,-0l0,-1.5c0,-0.552 0.448,-1 1,-1l46,-0c0.552,-0 1,0.448 1,1c0,0 -0,30.5 -0,30.5c-0,0.552 -0.448,1 -1,1l-23,-0l-0,-10.25c-0,-6.075 -4.925,-11 -11,-11c-0.665,0 -1.335,0 -2,0c-6.075,0 -11,4.925 -11,11l0,17.542c-1.104,0.329 -2.12,0.929 -2.95,1.758c-1.313,1.313 -2.05,3.093 -2.05,4.95c0,3.799 0,8 0,8c0,0.552 0.448,1 1,1l32,-0c0.552,-0 1,-0.448 1,-1l-0,-8c0,-1.857 -0.737,-3.637 -2.05,-4.95c-0.83,-0.829 -1.846,-1.429 -2.95,-1.758l-0,-5.292l23,0c1.657,-0 3,-1.343 3,-3l0,-30.5c-0,-0.351 -0.06,-0.687 -0.171,-1l2.171,-0c0.552,0 1,-0.448 1,-1c0,-0.552 -0.448,-1 -1,-1Zm-30,43.5l-4.083,0c-0.477,2.836 -2.946,5 -5.917,5c-2.971,-0 -5.44,-2.164 -5.917,-5l-4.083,0c-1.326,-0 -2.598,0.527 -3.536,1.464c-0.937,0.938 -1.464,2.21 -1.464,3.536c0,0 0,7 0,7l4,-0l0,-4c0,-0.552 0.448,-1 1,-1c0.552,0 1,0.448 1,1l0,4l18,-0l0,-4c0,-0.552 0.448,-1 1,-1c0.552,0 1,0.448 1,1l0,4l4,-0l0,-7c0,-1.326 -0.527,-2.598 -1.464,-3.536c-0.938,-0.937 -2.21,-1.464 -3.536,-1.464Zm-6.126,0l-7.748,0c0.445,1.724 2.012,3 3.874,3c1.862,-0 3.429,-1.276 3.874,-3Zm6.126,-2l-20,-0c0,0 0,-17.25 0,-17.25c0,-4.971 4.029,-9 9,-9c0.665,0 1.335,0 2,0c4.971,0 9,4.029 9,9l0,17.25Zm-2,-17c-0,-0.552 -0.448,-1 -1,-1l-6.382,0c0,-0 -1.724,-3.447 -1.724,-3.447c-0.169,-0.339 -0.515,-0.553 -0.894,-0.553c-0.379,-0 -0.725,0.214 -0.894,0.553l-1.724,3.447c-0,0 -2.382,0 -2.382,0c-0.552,0 -1,0.448 -1,1l0,10c0,2.761 2.239,5 5,5c1.881,0 4.119,0 6,0c2.761,-0 5,-2.239 5,-5c-0,-4.138 -0,-10 -0,-10Zm-2,1l-0,9c-0,1.657 -1.343,3 -3,3c-0,-0 -6,0 -6,0c-1.657,-0 -3,-1.343 -3,-3c0,-0 0,-9 0,-9c-0,0 2,0 2,0c0.379,-0 0.725,-0.214 0.894,-0.553l1.106,-2.211c0,0 1.106,2.211 1.106,2.211c0.169,0.339 0.515,0.553 0.894,0.553l6,-0Zm14.5,6l11.5,0c0.552,-0 1,-0.448 1,-1c-0,-0.552 -0.448,-1 -1,-1l-11.5,0c-0.552,-0 -1,0.448 -1,1c-0,0.552 0.448,1 1,1Zm-3.5,-5l15,0c0.552,0 1,-0.448 1,-1c0,-0.552 -0.448,-1 -1,-1l-15,0c-0.552,0 -1,0.448 -1,1c0,0.552 0.448,1 1,1Zm-0,-5l15,0c0.552,-0 1,-0.448 1,-1c-0,-0.552 -0.448,-1 -1,-1l-15,0c-0.552,-0 -1,0.448 -1,1c-0,0.552 0.448,1 1,1Zm0,-5l15,0c0.552,0 1,-0.448 1,-1c0,-0.552 -0.448,-1 -1,-1l-15,0c-0.552,0 -1,0.448 -1,1c0,0.552 0.448,1 1,1Zm-7,-5l22,0c0.552,-0 1,-0.448 1,-1c-0,-0.552 -0.448,-1 -1,-1l-22,0c-0.552,-0 -1,0.448 -1,1c-0,0.552 0.448,1 1,1Z"
       id="path1"
       style="fill:#ffffff;fill-opacity:1" /></g></svg>
