<?xml version="1.0" encoding="UTF-8" standalone="no"?>
<!-- Created with Inkscape (http://www.inkscape.org/) -->

<svg
   version="1.1"
   id="svg1"
   width="512"
   height="512"
   viewBox="0 0 512 512"
   sodipodi:docname="4_italy.svg"
   inkscape:version="1.3.1 (9b9bdc1480, 2023-11-25, custom)"
   xmlns:inkscape="http://www.inkscape.org/namespaces/inkscape"
   xmlns:sodipodi="http://sodipodi.sourceforge.net/DTD/sodipodi-0.dtd"
   xmlns="http://www.w3.org/2000/svg"
   xmlns:svg="http://www.w3.org/2000/svg">
  <defs
     id="defs1" />
  <sodipodi:namedview
     id="namedview1"
     pagecolor="#505050"
     bordercolor="#eeeeee"
     borderopacity="1"
     inkscape:showpageshadow="0"
     inkscape:pageopacity="0"
     inkscape:pagecheckerboard="0"
     inkscape:deskcolor="#505050"
     inkscape:zoom="1.59375"
     inkscape:cx="256"
     inkscape:cy="256"
     inkscape:window-width="1850"
     inkscape:window-height="1016"
     inkscape:window-x="0"
     inkscape:window-y="0"
     inkscape:window-maximized="1"
     inkscape:current-layer="svg1" />
  <path
     style="fill:#ffffff;fill-opacity:1"
     d="m 284.08027,445.08311 c -17.83085,-9.88242 -33.48232,-19.03061 -34.78103,-20.32932 -3.19955,-3.19955 -3.95929,-8.56058 -1.84468,-13.01679 2.33203,-4.91438 8.34414,-11.70997 11.3816,-12.86481 1.71904,-0.65358 8.81307,-0.4313 21.90658,0.68639 l 19.36425,1.65298 18.89595,-4.71229 18.89594,-4.7123 3.77272,1.85652 c 2.075,1.02108 4.64713,3.37544 5.71585,5.23191 1.90372,3.30694 1.90706,3.61119 0.16494,15 -0.978,6.39353 -2.12905,16.84099 -2.55789,23.21658 -1.03626,15.40619 -1.94889,17.07683 -11.81659,21.63119 -13.88771,6.40976 -11.95082,6.94786 -49.09764,-13.64006 z m 47.0383,-2.13959 c 0.37514,-1.34394 0.72244,-5.14352 0.77178,-8.44352 0.0494,-3.3 0.85474,-10.82696 1.78978,-16.72657 0.93503,-5.89962 1.50202,-10.9203 1.25996,-11.15707 -0.24205,-0.23678 -7.41509,1.31326 -15.94009,3.44453 -17.07298,4.26829 -19.96899,4.44893 -41.34608,2.57906 l -13.84607,-1.21113 -1.91793,2.43825 c -1.05486,1.34104 -1.78091,2.57527 -1.61345,2.74273 0.16746,0.16746 13.73965,7.71111 30.16043,16.76367 l 29.85595,16.45919 5.07182,-2.22281 c 3.52321,-1.5441 5.28009,-2.96891 5.7539,-4.66633 z M 367.84591,425.75 c -2.47897,-2.01694 -10.74069,-13.34304 -11.83775,-16.22854 -1.73262,-4.55712 -1.15485,-8.18752 3.90461,-24.53481 l 4.91277,-15.87331 -4.16277,-12.61834 C 357.11178,345.73109 355.54473,342.56067 350,334.9222 l -6.5,-8.95445 -10,-3.13731 c -10.91743,-3.42514 -13.84389,-5.61657 -18.64161,-13.95948 -2.62376,-4.56253 -2.70484,-4.60894 -12,-6.86673 -13.1458,-3.19311 -14.31842,-3.77974 -27.59466,-13.80508 -8.45618,-6.38554 -18.11418,-15.36898 -33.67837,-31.32608 C 217.47622,232.15529 219.51519,235.18934 208.06911,207 l -7.10575,-17.5 -9.46266,-7.25 c -5.20446,-3.9875 -10.25872,-7.24222 -11.23168,-7.23271 -0.97296,0.01 -10.07977,4.05951 -20.23736,9 C 145.33798,191.16406 140.66494,193 137.16781,193 c -5.21355,0 -11.17081,-3.0422 -13.4229,-6.85468 -3.60837,-6.10849 -11.744,-27.62765 -11.7299,-31.02623 0.008,-1.9905 1.13152,-7.2139 2.49615,-11.60756 2.39757,-7.71934 2.44056,-8.35355 1.27625,-18.82452 -1.16945,-10.51709 -1.13817,-10.96185 1.06265,-15.11044 2.59652,-4.89448 7.44785,-8.00966 14.14994,-9.08608 6.14706,-0.987282 7.45882,-1.797696 15.50528,-9.579253 10.29865,-9.959596 13.18172,-10.621551 27.80129,-6.38319 9.26,2.684568 10.50441,2.549494 14.20462,-1.541833 2.87749,-3.181648 8.89727,-5.994399 12.69897,-5.933608 1.80941,0.02893 6.6356,0.650875 10.72485,1.382093 l 7.43502,1.329486 9.6911,-9.273763 c 9.28137,-8.881664 9.98174,-9.339718 16.56499,-10.833703 16.84295,-3.822293 17.89394,-3.561813 30.45264,7.547456 7.44947,6.589708 9.62956,7.902051 18.89233,11.372575 18.81747,7.050426 20.48517,9.289179 19.59807,26.3087 C 313.60525,123.37828 309.42707,128 293.67286,128 c -4.70515,0 -8.82736,0.44098 -9.16047,0.97995 -0.3331,0.53897 -1.28752,4.92647 -2.12094,9.75 -0.83342,4.82353 -2.61244,13.1266 -3.95338,18.45127 C 277.09713,162.50589 276,167.51036 276,168.30226 c 0,0.79191 5.9625,5.50263 13.25,10.46827 7.2875,4.96565 14.22515,10.08618 15.417,11.37896 1.19184,1.29278 4.74506,8.20051 7.89603,15.35051 4.10959,9.32527 8.47154,16.9574 15.43113,27 9.35328,13.49668 9.82439,13.99593 13.10397,13.88666 1.87103,-0.0623 9.70187,-0.43261 17.40187,-0.82283 13.11266,-0.66452 14.2073,-0.57824 17.27068,1.36122 8.18159,5.17986 11.47829,16.40848 7.17486,24.43774 -1.12995,2.10824 -1.91727,4.54548 -1.74961,5.41608 0.18615,0.96661 12.95852,7.8394 32.80446,17.65202 C 450.49605,312.47581 451,312.85694 451,322.41348 c 0,6.56387 -2.59311,11.44723 -7.6041,14.32007 -6.44063,3.69246 -10.2552,3.05902 -25.40032,-4.21791 -7.42257,-3.56641 -14.24308,-6.49141 -15.15669,-6.5 -0.9136,-0.009 -2.82449,1.36696 -4.2464,3.05682 -3.08207,3.66283 -3.03416,3.78025 5.47906,13.42754 7.23916,8.20351 10.37215,14.37837 9.62653,18.9731 -0.28517,1.7573 -2.95627,8.55725 -5.93578,15.11099 -4.07496,8.96333 -8.59369,16.37604 -18.23647,29.91591 -7.05055,9.9 -13.51419,18.5625 -14.36364,19.25 -0.84945,0.6875 -2.49743,1.25 -3.66219,1.25 -1.16476,0 -2.8091,-0.5625 -3.65409,-1.25 z m 13.16768,-30.21438 C 389.94164,383.06774 400,364.15405 400,359.83365 c 0,-1.07728 -3.19594,-5.58554 -7.10208,-10.01836 -3.90615,-4.43282 -7.77034,-9.65904 -8.5871,-11.61382 -2.26259,-5.41515 -0.99051,-11.08655 3.85039,-17.16647 8.49853,-10.67371 13.80895,-10.91783 33.08698,-1.52101 7.56151,3.68576 14.42401,6.44204 15.25,6.12508 0.826,-0.31697 1.50181,-1.52281 1.50181,-2.67966 0,-1.76534 -4.9416,-4.52621 -30.75,-17.18003 -16.9125,-8.29217 -32.03994,-15.97776 -33.61653,-17.07909 -3.16805,-2.21306 -6.57742,-8.78991 -6.61151,-12.75395 -0.0121,-1.40451 1.14826,-4.90198 2.57853,-7.77216 2.45924,-4.93505 2.51231,-5.35308 0.97695,-7.69634 -1.87257,-2.8579 -1.58676,-2.83802 -19.64978,-1.3673 -19.50733,1.58832 -19.60079,1.53801 -32.96702,-17.746 C 310.61273,230.7634 305.81982,222.48456 301.24993,212.5 l -6.40773,-14 -13.6711,-9.34812 c -7.5191,-5.14147 -14.53123,-10.49741 -15.58251,-11.90209 -2.99418,-4.00075 -3.07778,-10.52886 -0.27852,-21.74979 1.37207,-5.5 3.28087,-14.60405 4.24177,-20.23121 2.88812,-16.91318 5.5612,-19.50603 20.89597,-20.26879 l 10.05219,-0.5 0.84263,-8.87165 c 0.663,-6.980378 0.55641,-9.142566 -0.5,-10.14244 -0.73845,-0.698931 -5.9575,-2.964196 -11.5979,-5.033922 -11.20261,-4.110766 -12.66896,-5.008349 -23.06582,-14.11912 l -7.0377,-6.167133 -6.81637,1.554822 c -6.41193,1.462569 -7.38981,2.083967 -16.48124,10.473067 -11.72494,10.81916 -13.29754,11.388356 -25.85347,9.357586 l -9.20528,-1.488843 -4.64243,3.904943 c -8.13471,6.84246 -12.11116,7.41012 -24.64242,3.51782 -4.4,-1.366672 -8.45,-2.481829 -9,-2.478127 -0.55,0.0037 -4.92598,3.583194 -9.72439,7.954427 -8.64283,7.87339 -10.57374,8.89402 -20.03666,10.59088 -2.06857,0.37093 -4.00061,1.06206 -4.29343,1.53584 -0.29281,0.47378 0.0131,5.55374 0.67971,11.28879 1.18463,10.19117 1.15004,10.63912 -1.52717,19.77522 l -2.73926,9.34784 4.98943,12 c 2.74419,6.6 5.63917,12.1336 6.43329,12.29688 0.79412,0.16328 9.8181,-3.73571 20.05329,-8.66442 10.2352,-4.92872 19.97043,-9.26023 21.63386,-9.62558 4.676,-1.02702 9.77293,1.19293 19.03133,8.28904 15.23704,11.67845 14.72543,10.94616 24.07392,34.45843 L 229.5,225.44667 251,247.47025 c 22.98692,23.54671 39.88028,37.65025 47.43802,39.60396 22.38018,5.78538 22.99483,6.12965 28.72394,16.08852 2.59156,4.50489 2.92236,4.70816 12.50968,7.68671 11.04174,3.43041 11.83982,4.07501 22.31931,18.02716 5.6099,7.46889 6.81557,9.96123 11.12631,23 2.65904,8.04287 4.84545,15.58335 4.85868,16.75662 0.0132,1.17327 -2.25876,9.63967 -5.04887,18.81422 -4.86853,16.00886 -5.00634,16.78264 -3.4201,19.20354 0.90906,1.3874 1.78113,2.371 1.93793,2.18578 0.1568,-0.18522 4.46271,-6.17073 9.56869,-13.30114 z M 159.6979,374.00126 c -9.48403,-8.17007 -11.6981,-10.59337 -12.10599,-13.25 -0.78145,-5.08973 -2.61251,-47.04083 -2.58616,-59.25126 0.0146,-6.7855 0.50396,-11.9491 1.27714,-13.47717 1.66536,-3.29131 28.41656,-15.58218 31.90509,-14.65882 2.21174,0.58541 16.1615,11.85652 24.06202,19.44161 l 3.75,3.60028 v 34.86279 c 0,22.29177 -0.37616,35.56565 -1.04319,36.81201 C 203.70226,370.42484 177.0188,384 173.66568,384 c -1.55001,0 -6.34782,-3.43448 -13.96778,-9.99874 z m 24.7874,-9.22412 8.5147,-4.22285 v -29.2462 -29.2462 l -8.67421,-7.40166 -8.67421,-7.40166 -8.07579,3.70041 -8.07579,3.70041 -0.32472,10.92031 c -0.1786,6.00616 -0.0159,20.05328 0.36163,31.21582 l 0.68636,20.29552 7.07392,5.95448 c 3.89066,3.27496 7.43381,5.95448 7.87367,5.95448 0.43986,0 4.63136,-1.90029 9.31444,-4.22286 z"
     id="path1" />
</svg>
