<?xml version="1.0" encoding="UTF-8" standalone="no"?>
<!-- Created with Inkscape (http://www.inkscape.org/) -->

<svg
   version="1.1"
   id="svg1"
   width="136.99359"
   height="119.93401"
   viewBox="0 0 136.99359 119.93401"
   sodipodi:docname="logo_cloche.svg"
   inkscape:version="1.3 (0e150ed6c4, 2023-07-21)"
   xmlns:inkscape="http://www.inkscape.org/namespaces/inkscape"
   xmlns:sodipodi="http://sodipodi.sourceforge.net/DTD/sodipodi-0.dtd"
   xmlns="http://www.w3.org/2000/svg"
   xmlns:svg="http://www.w3.org/2000/svg">
  <defs
     id="defs1" />
  <sodipodi:namedview
     id="namedview1"
     pagecolor="#ffffff"
     bordercolor="#000000"
     borderopacity="0.25"
     inkscape:showpageshadow="2"
     inkscape:pageopacity="0.0"
     inkscape:pagecheckerboard="0"
     inkscape:deskcolor="#d1d1d1"
     inkscape:zoom="4.6442773"
     inkscape:cx="44.570982"
     inkscape:cy="60.39691"
     inkscape:window-width="1920"
     inkscape:window-height="1017"
     inkscape:window-x="-8"
     inkscape:window-y="-8"
     inkscape:window-maximized="1"
     inkscape:current-layer="g2" />
  <g
     id="g2"
     inkscape:label="logo"
     style="display:inline"
     transform="translate(-255,-189.06599)">
    <path
       style="display:inline;fill:#999999;fill-opacity:1"
       d="M 360.77825,298.15783 C 352.92521,292.19464 344.925,285.94422 343,284.268 c -1.925,-1.67621 -7.59418,-6.62021 -12.59817,-10.98666 -5.00399,-4.36645 -11.17723,-9.43207 -13.71831,-11.25693 -2.54108,-1.82487 -4.40743,-3.66212 -4.14744,-4.08278 0.71074,-1.15001 -9.3301,-8.18697 -10.57975,-7.41464 -1.38819,0.85795 -5.11332,-2.46396 -4.27824,-3.81515 0.3665,-0.593 0.13591,-0.71492 -0.5502,-0.29088 -0.69689,0.4307 -5.30115,-2.27326 -11.23066,-6.59549 -5.52725,-4.02901 -11.70519,-8.45047 -13.72875,-9.82547 -7.44758,-5.06058 -13.12889,-9.37292 -12.79209,-9.70972 0.84566,-0.84566 31.74286,17.99391 49.62361,30.258 10.98515,7.53453 26.51521,18.96284 31.09017,22.87874 1.97459,1.69014 7.14959,5.99047 11.5,9.55629 4.35041,3.56582 8.13483,6.72306 8.40983,7.01609 0.275,0.29303 2.075,1.8033 4,3.35616 7.58878,6.12172 13.87045,12.81846 13.33437,14.21546 -0.30159,0.78594 -0.93749,1.42898 -1.41311,1.42898 -0.47562,0 -7.28997,-4.87898 -15.14301,-10.84217 z m 23.30368,-3.19249 c -0.0451,-0.29406 0.81847,-3.09645 1.91896,-6.22754 4.35724,-12.39713 4.99255,-25.75873 1.85932,-39.10457 -2.52413,-10.75138 -7.23282,-21.71057 -8.22131,-19.1346 -0.5125,1.33555 -1.4417,0.66534 -4.57728,-3.30145 -15.95927,-20.19 -36.95305,-30.19649 -63.35378,-30.19701 -19.83474,-3.9e-4 -37.6714,6.70965 -50.45784,18.9819 -1.7875,1.71561 -3.25,2.74491 -3.25,2.28731 0,-1.06592 10.55532,-11.17419 14.53068,-13.91526 4.92714,-3.39733 10.521,-5.98366 17.96932,-8.30812 8.81678,-2.75154 27.2708,-3.81365 36.95627,-2.127 3.72777,0.64916 6.98579,0.97227 7.24005,0.71801 1.24891,-1.2489 -12.45265,-3.12604 -22.19632,-3.04092 -13.28321,0.11602 -21.94339,2.11419 -33,7.6141 -8.80051,4.37765 -12.62315,7.01892 -19.75,13.64635 -2.6125,2.42943 -4.75,3.94727 -4.75,3.37297 0,-1.60549 9.74822,-10.05994 17,-14.74377 20.69704,-13.36796 46.54258,-16.06472 71.94055,-7.50637 5.88902,1.98442 19.72394,9.97193 21.16018,12.2167 0.3304,0.51639 1.15059,-0.3886 1.82265,-2.0111 1.55384,-3.75129 6.5775,-8.61148 7.99536,-7.73519 1.85009,1.14342 1.21093,3.22715 -2.46845,8.0474 l -3.54971,4.65037 3.57864,3.96112 c 7.85142,8.69059 14.71982,21.58992 18.08289,33.96093 1.90186,6.99598 1.91007,23.08276 0.0159,31.25006 -1.25971,5.43176 -6.25362,18.22816 -6.49613,16.64568 z M 371.17126,203.34501 C 372.17707,202.43477 373,200.79002 373,199.69002 c 0,-1.90168 -0.0934,-1.91545 -1.90031,-0.28024 C 369.2465,201.0869 367.61215,205 368.76488,205 c 0.3177,0 1.40057,-0.74474 2.40638,-1.65499 z M 340,196 c -0.825,-0.53316 -2.175,-0.94464 -3,-0.9144 -0.98906,0.0362 -0.81874,0.34772 0.5,0.9144 2.74909,1.18132 4.32797,1.18132 2.5,0 z m -33.73662,58.73878 c -2.33013,-1.70439 -4.04719,-3.2883 -3.81568,-3.51982 0.35578,-0.35577 5.78054,3.24528 9.0023,5.97587 2.5822,2.18854 -1.44207,0.2829 -5.18662,-2.45605 z"
       id="path5"
       sodipodi:nodetypes="ssssssssssssssssssssssssssssssssssssssssscssssssssssssssssss"
       inkscape:label="coupole" />
  </g>
</svg>
