<?xml version="1.0" encoding="UTF-8" standalone="no"?>
<!-- Created with Inkscape (http://www.inkscape.org/) -->

<svg
   version="1.1"
   id="svg1"
   width="318.51401"
   height="165.04262"
   viewBox="0 0 318.51401 165.04262"
   sodipodi:docname="logo.svg"
   inkscape:version="1.3.1 (9b9bdc1480, 2023-11-25, custom)"
   xmlns:inkscape="http://www.inkscape.org/namespaces/inkscape"
   xmlns:sodipodi="http://sodipodi.sourceforge.net/DTD/sodipodi-0.dtd"
   xmlns="http://www.w3.org/2000/svg"
   xmlns:svg="http://www.w3.org/2000/svg">
  <defs
     id="defs1" />
  <sodipodi:namedview
     id="namedview1"
     pagecolor="#ffffff"
     bordercolor="#000000"
     borderopacity="0.25"
     inkscape:showpageshadow="2"
     inkscape:pageopacity="0.0"
     inkscape:pagecheckerboard="0"
     inkscape:deskcolor="#d1d1d1"
     inkscape:zoom="1.642"
     inkscape:cx="205.23752"
     inkscape:cy="93.17905"
     inkscape:window-width="1850"
     inkscape:window-height="1016"
     inkscape:window-x="0"
     inkscape:window-y="0"
     inkscape:window-maximized="1"
     inkscape:current-layer="g2" />
  <g
     id="g2"
     inkscape:label="logo"
     style="display:inline"
     transform="translate(-79.171738,-183.92204)">
    <path
       style="display:inline;fill:#a8865c;fill-opacity:1"
       d="M 360.77825,298.15783 C 352.92521,292.19464 344.925,285.94422 343,284.268 c -1.925,-1.67621 -7.59418,-6.62021 -12.59817,-10.98666 -5.00399,-4.36645 -11.17723,-9.43207 -13.71831,-11.25693 -2.54108,-1.82487 -4.40743,-3.66212 -4.14744,-4.08278 0.71074,-1.15001 -9.3301,-8.18697 -10.57975,-7.41464 -1.38819,0.85795 -5.11332,-2.46396 -4.27824,-3.81515 0.3665,-0.593 0.13591,-0.71492 -0.5502,-0.29088 -0.69689,0.4307 -5.30115,-2.27326 -11.23066,-6.59549 -5.52725,-4.02901 -11.70519,-8.45047 -13.72875,-9.82547 -7.44758,-5.06058 -13.12889,-9.37292 -12.79209,-9.70972 0.84566,-0.84566 31.74286,17.99391 49.62361,30.258 10.98515,7.53453 26.51521,18.96284 31.09017,22.87874 1.97459,1.69014 7.14959,5.99047 11.5,9.55629 4.35041,3.56582 8.13483,6.72306 8.40983,7.01609 0.275,0.29303 2.075,1.8033 4,3.35616 7.58878,6.12172 13.87045,12.81846 13.33437,14.21546 -0.30159,0.78594 -0.93749,1.42898 -1.41311,1.42898 -0.47562,0 -7.28997,-4.87898 -15.14301,-10.84217 z m 23.30368,-3.19249 c -0.0451,-0.29406 0.81847,-3.09645 1.91896,-6.22754 4.35724,-12.39713 4.99255,-25.75873 1.85932,-39.10457 -2.52413,-10.75138 -7.23282,-21.71057 -8.22131,-19.1346 -0.5125,1.33555 -1.4417,0.66534 -4.57728,-3.30145 -15.95927,-20.19 -36.95305,-30.19649 -63.35378,-30.19701 -19.83474,-3.9e-4 -37.6714,6.70965 -50.45784,18.9819 -1.7875,1.71561 -3.25,2.74491 -3.25,2.28731 0,-1.06592 10.55532,-11.17419 14.53068,-13.91526 4.92714,-3.39733 10.521,-5.98366 17.96932,-8.30812 8.81678,-2.75154 27.2708,-3.81365 36.95627,-2.127 3.72777,0.64916 6.98579,0.97227 7.24005,0.71801 1.24891,-1.2489 -12.45265,-3.12604 -22.19632,-3.04092 -13.28321,0.11602 -21.94339,2.11419 -33,7.6141 -8.80051,4.37765 -12.62315,7.01892 -19.75,13.64635 -2.6125,2.42943 -4.75,3.94727 -4.75,3.37297 0,-1.60549 9.74822,-10.05994 17,-14.74377 20.69704,-13.36796 46.54258,-16.06472 71.94055,-7.50637 5.88902,1.98442 19.72394,9.97193 21.16018,12.2167 0.3304,0.51639 1.15059,-0.3886 1.82265,-2.0111 1.55384,-3.75129 6.5775,-8.61148 7.99536,-7.73519 1.85009,1.14342 1.21093,3.22715 -2.46845,8.0474 l -3.54971,4.65037 3.57864,3.96112 c 7.85142,8.69059 14.71982,21.58992 18.08289,33.96093 1.90186,6.99598 1.91007,23.08276 0.0159,31.25006 -1.25971,5.43176 -6.25362,18.22816 -6.49613,16.64568 z M 371.17126,203.34501 C 372.17707,202.43477 373,200.79002 373,199.69002 c 0,-1.90168 -0.0934,-1.91545 -1.90031,-0.28024 C 369.2465,201.0869 367.61215,205 368.76488,205 c 0.3177,0 1.40057,-0.74474 2.40638,-1.65499 z M 340,196 c -0.825,-0.53316 -2.175,-0.94464 -3,-0.9144 -0.98906,0.0362 -0.81874,0.34772 0.5,0.9144 2.74909,1.18132 4.32797,1.18132 2.5,0 z m -33.73662,58.73878 c -2.33013,-1.70439 -4.04719,-3.2883 -3.81568,-3.51982 0.35578,-0.35577 5.78054,3.24528 9.0023,5.97587 2.5822,2.18854 -1.44207,0.2829 -5.18662,-2.45605 z"
       id="path5"
       sodipodi:nodetypes="ssssssssssssssssssssssssssssssssssssssssscssssssssssssssssss"
       inkscape:label="coupole" />
    <path
       style="display:inline;fill:#a8865c;fill-opacity:1"
       d="M 126.91766,317.03502 C 118.70821,315.99074 108.50495,312.00031 99.88083,306.46107 92.477558,301.70599 88.768399,297.42933 86.519618,291.0556 84.810794,286.21228 84.470227,277 86,277 c 1.144333,0 1.074404,-0.33662 1.512254,7.27949 0.687894,11.96544 7.652187,18.99454 24.281896,24.50785 10.65711,3.5332 10.79007,3.54973 29.20585,3.63101 17.86893,0.0789 27.34901,-1.08606 41.5,-5.09956 1.1,-0.31199 1.71144,-0.26028 1.35875,0.1149 -0.35269,0.37518 -6.20269,2.01682 -13,3.64807 -10.86672,2.60786 -14.16965,2.96562 -27.35875,2.96339 -8.25,-10e-4 -17.025,-0.24404 -19.5,-0.53922 -3.54658,-0.42298 -4.0143,-0.32506 -2.20757,0.46216 3.61202,1.57382 21.83291,2.15955 32.56389,1.04681 23.89979,-2.47828 59.83778,-14.79818 72.60418,-24.88944 2.8705,-2.269 5.73252,-4.12546 6.36003,-4.12546 0.62752,0 5.097,1.41512 9.93217,3.1447 4.83518,1.72959 9.11766,2.81827 9.51664,2.41929 0.39897,-0.39897 -1.22564,-4.32554 -3.61026,-8.7257 l -4.33568,-8.00029 2.25683,-5.169 c 2.34939,-5.38098 3.02624,-13.27055 1.68743,-19.669 -0.6555,-3.13278 -0.58554,-3.30827 0.6668,-1.67265 2.49297,3.25594 2.91929,11.1629 1.03361,19.17018 -1.64882,7.00145 -1.64881,7.59216 2.3e-4,11.6883 0.95524,2.37279 2.58161,6.44537 3.61414,9.05017 l 1.87734,4.73599 -2.57933,0.64737 c -1.47394,0.36994 -6.38585,-0.28617 -11.46158,-1.53097 -7.40593,-1.81628 -9.25928,-1.96935 -11.15057,-0.92092 -1.24756,0.69159 -2.6058,1.16183 -3.0183,1.04498 -0.4125,-0.11685 -0.75,0.26411 -0.75,0.84657 0,0.58246 -0.42234,0.79799 -0.93854,0.47896 -0.5162,-0.31902 -1.40251,0.21692 -1.96959,1.19099 -0.56708,0.97407 -1.05163,1.32103 -1.07677,0.77103 -0.0252,-0.55174 -0.37506,-0.48802 -0.78041,0.14215 -2.19306,3.40936 -30.33247,13.74437 -51.23469,18.81743 -11.71005,2.84207 -32.45726,4.05419 -44.08234,2.57544 z"
       id="path4"
       inkscape:label="semi-bulle"
       sodipodi:nodetypes="sssssssssscsssssssscsssssscsssssssssss" />
    <rect
       style="display:inline;fill:#a8865c;fill-opacity:1;stroke:none;stroke-width:1.333"
       id="rect1"
       width="146.46773"
       height="2.7405603"
       x="227.31425"
       y="340.43848" />
    <path
       style="font-size:20.7041px;font-family:'Cooper Hewitt';-inkscape-font-specification:'Cooper Hewitt';fill:#393735;stroke-width:1.29369"
       d="m 223.20132,336.66073 v -0.41408 c 0,-2.79505 1.11802,-4.69983 3.58181,-4.69983 2.31886,0 3.20914,1.49069 3.20914,3.35406 h 0.82816 v -0.39337 c 0,-1.57352 -1.05591,-3.74745 -4.0373,-3.74745 -3.12632,0 -4.45138,2.4845 -4.45138,5.48659 v 0.41408 c 0,3.0021 1.32506,5.48659 4.45138,5.48659 2.98139,0 4.0373,-2.07041 4.0373,-3.64392 v -0.28986 h -0.82816 c 0,1.61492 -0.80746,3.14702 -3.20914,3.14702 -2.46379,0 -3.58181,-1.90477 -3.58181,-4.69983 z m 14.34795,5.48659 c 3.12632,0 4.45138,-2.48449 4.45138,-5.48659 v -0.41408 c 0,-3.00209 -1.32506,-5.48659 -4.45138,-5.48659 -3.12632,0 -4.45138,2.4845 -4.45138,5.48659 v 0.41408 c 0,3.0021 1.32506,5.48659 4.45138,5.48659 z m 0,-0.78676 c -2.46379,0 -3.58181,-1.90477 -3.58181,-4.69983 v -0.41408 c 0,-2.79505 1.11802,-4.69983 3.58181,-4.69983 2.46379,0 3.58181,1.90478 3.58181,4.69983 v 0.41408 c 0,2.79506 -1.11802,4.69983 -3.58181,4.69983 z m 10.86967,-10.6005 c -1.55281,0 -2.56731,0.82817 -3.12632,1.75985 l -0.18633,-1.55281 h -0.62113 l 0.10352,3.10562 v 7.86756 h 0.82817 v -8.48868 c 0.5176,-0.82817 1.34576,-1.90478 3.10561,-1.90478 h 0.20704 v -0.76605 c 0,0 -0.16563,-0.0207 -0.31056,-0.0207 z m 6.12842,10.6005 c -2.5466,0 -3.20913,-1.36647 -3.20913,-2.73294 h -0.82816 v 0.0828 c 0,1.5114 0.95238,3.43688 4.03729,3.43688 2.56731,0 4.0373,-1.30436 4.0373,-3.06421 v -0.0828 c 0,-1.90477 -0.97309,-2.77434 -3.72673,-2.98139 -2.75365,-0.22774 -3.35407,-0.95238 -3.35407,-2.25674 0,-1.42859 1.13873,-2.21534 3.0435,-2.21534 2.40168,0 3.10562,1.13872 3.10562,2.93998 h 0.82816 v -0.0828 c 0,-2.07041 -1.0145,-3.64392 -3.93378,-3.64392 -2.5673,0 -3.91307,1.28366 -3.91307,2.96069 v 0.10352 c 0,1.4907 0.70394,2.60872 3.60251,2.87787 2.42238,0.20704 3.47829,0.57971 3.47829,2.33956 0,1.42859 -1.13872,2.31886 -3.16773,2.31886 z m 7.03941,0.57972 h 0.82816 V 330.9671 h -0.82816 z m 1.0352,-15.21752 h -1.24224 v 1.24225 h 1.24224 z m 10.97321,4.0373 c -3.0021,0 -4.24434,2.4845 -4.24434,5.48659 v 0.41408 c 0,3.0021 1.24224,5.48659 4.24434,5.48659 1.73914,0 2.77435,-0.82817 3.31265,-1.75985 l 0.20705,1.55281 h 0.62112 l -0.10352,-3.10562 V 325.377 h -0.82817 v 6.95657 c -0.57971,-0.84886 -1.57351,-1.57351 -3.20913,-1.57351 z m 3.20913,8.69573 c -0.5176,0.82816 -1.42858,1.90477 -3.10561,1.90477 -2.33956,0 -3.47829,-1.84266 -3.47829,-4.69983 v -0.41408 c 0,-2.85717 1.13873,-4.69983 3.47829,-4.69983 1.67703,0 2.58801,1.07661 3.10561,1.90478 z m 3.93377,2.48449 h 0.82817 V 330.9671 h -0.82817 z m 1.03521,-15.21752 h -1.24225 v 1.24225 h 1.24225 z m 8.90279,1.55281 c 0,-1.86337 0.76605,-2.31886 2.27745,-2.31886 0.4969,0 1.05591,0.10352 1.24225,0.18634 V 325.377 c -0.14493,-0.0621 -0.62112,-0.20704 -1.44929,-0.20704 -1.65633,0 -2.89857,0.82816 -2.89857,3.00209 v 2.79505 h -1.75985 v 0.78676 h 1.75985 v 10.18642 h 0.82816 v -10.18642 h 3.31266 v -0.78676 h -3.31266 z m 9.62743,2.48449 c -1.55281,0 -2.56731,0.82817 -3.12632,1.75985 l -0.18634,-1.55281 h -0.62112 l 0.10352,3.10562 v 7.86756 h 0.82816 v -8.48868 c 0.51761,-0.82817 1.34577,-1.90478 3.10562,-1.90478 h 0.20704 v -0.76605 c 0,0 -0.16563,-0.0207 -0.31056,-0.0207 z m 9.13051,11.18022 h 0.62112 l -0.10352,-3.10562 v -4.0373 c 0,-2.33956 -0.86957,-4.0373 -3.72674,-4.0373 -3.10561,0 -3.72673,2.07041 -3.72673,3.64392 v 0.18634 h 0.82816 c 0,-1.65633 0.5176,-3.0435 2.89857,-3.0435 2.21534,0 2.89858,1.11802 2.89858,3.25054 v 0.41408 l -3.56111,0.55902 c -1.61492,0.24844 -3.47829,0.89027 -3.47829,3.27124 v 0.20704 c 0,1.75985 1.24225,2.89858 3.10562,2.89858 2.07041,0 3.33336,-0.91098 4.0373,-1.86337 z m -4.14082,-0.57972 c -1.65633,0 -2.38097,-1.0145 -2.38097,-2.11182 v -0.20704 c 0,-1.42858 1.0352,-2.19463 2.58801,-2.46378 l 3.62322,-0.60042 v 3.31265 c -0.39338,0.70394 -1.38718,2.07041 -3.83026,2.07041 z m 15.32103,0.57972 v -7.76404 c 0,-2.07041 -1.24224,-3.41618 -3.31265,-3.41618 -1.96689,0 -3.14703,0.86958 -3.74744,1.82196 l -0.18634,-1.61492 h -0.62112 l 0.10352,3.10562 v 7.86756 h 0.82816 v -8.48868 c 0.5176,-0.82817 1.44929,-1.90478 3.41618,-1.90478 1.5528,0 2.69153,0.76605 2.69153,2.73294 v 7.66052 z m 3.35407,-5.27955 v -0.41408 c 0,-2.79505 1.11803,-4.69983 3.58181,-4.69983 2.31886,0 3.20914,1.49069 3.20914,3.35406 h 0.82816 v -0.39337 c 0,-1.57352 -1.05591,-3.74745 -4.0373,-3.74745 -3.12632,0 -4.45138,2.4845 -4.45138,5.48659 v 0.41408 c 0,3.0021 1.32506,5.48659 4.45138,5.48659 2.98139,0 4.0373,-2.07041 4.0373,-3.64392 v -0.28986 h -0.82816 c 0,1.61492 -0.80746,3.14702 -3.20914,3.14702 -2.46378,0 -3.58181,-1.90477 -3.58181,-4.69983 z m 18.79934,0.18634 v -0.60042 c 0,-3.00209 -1.32506,-5.48659 -4.45138,-5.48659 -3.12632,0 -4.45138,2.4845 -4.45138,5.48659 v 0.41408 c 0,3.0021 1.34576,5.48659 4.5549,5.48659 3.0642,0 4.34786,-2.07041 4.34786,-3.64392 v -0.0828 h -0.82817 c 0,1.34577 -0.97309,2.93998 -3.51969,2.93998 -2.54661,0 -3.64392,-1.82196 -3.68533,-4.51349 z m -4.45138,-5.30025 c 2.40167,0 3.51969,1.82196 3.58181,4.51349 h -7.16362 c 0.0414,-2.69153 1.15943,-4.51349 3.58181,-4.51349 z m 10.97319,9.81374 c -2.54661,0 -3.20914,-1.36647 -3.20914,-2.73294 h -0.82816 v 0.0828 c 0,1.5114 0.95238,3.43688 4.0373,3.43688 2.5673,0 4.0373,-1.30436 4.0373,-3.06421 v -0.0828 c 0,-1.90477 -0.9731,-2.77434 -3.72674,-2.98139 -2.75365,-0.22774 -3.35407,-0.95238 -3.35407,-2.25674 0,-1.42859 1.13873,-2.21534 3.04351,-2.21534 2.40167,0 3.10561,1.13872 3.10561,2.93998 h 0.82816 v -0.0828 c 0,-2.07041 -1.0145,-3.64392 -3.93377,-3.64392 -2.56731,0 -3.91308,1.28366 -3.91308,2.96069 v 0.10352 c 0,1.4907 0.70394,2.60872 3.60251,2.87787 2.42238,0.20704 3.47829,0.57971 3.47829,2.33956 0,1.42859 -1.13872,2.31886 -3.16772,2.31886 z m 15.42455,-4.51349 v -0.60042 c 0,-3.00209 -1.32506,-5.48659 -4.45138,-5.48659 -3.12632,0 -4.45138,2.4845 -4.45138,5.48659 v 0.41408 c 0,3.0021 1.34577,5.48659 4.5549,5.48659 3.06421,0 4.34786,-2.07041 4.34786,-3.64392 v -0.0828 h -0.82816 c 0,1.34577 -0.97309,2.93998 -3.5197,2.93998 -2.5466,0 -3.64392,-1.82196 -3.68533,-4.51349 z m -4.45138,-5.30025 c 2.40168,0 3.5197,1.82196 3.58181,4.51349 h -7.16362 c 0.0414,-2.69153 1.15943,-4.51349 3.58181,-4.51349 z"
       id="text5"
       inkscape:label="corsi di francese"
       transform="scale(1.0239768,0.97658461)"
       aria-label="corsi di francese" />
    <path
       d="m 125.94476,226.00265 c -0.60289,-0.24431 -1.85824,-1.20109 -2.72025,-1.50839 -0.43101,-0.15365 -0.8646,-0.16132 -1.34437,-0.009 -0.56701,0.17981 -0.96728,0.74225 -1.20082,1.68729 -0.17367,0.82929 0.83882,1.62115 2.96392,2.44727 2.15503,0.76826 3.88678,0.94491 5.15164,0.5438 0.21808,-0.0692 0.42249,-0.18233 0.56959,-0.32579 0.23691,-0.31707 0.34297,-0.59265 0.24722,-0.901 -0.16416,-0.5286 -0.6935,-0.84462 -2.20202,-1.3824 z m 4.74595,27.62475 c -0.84237,0.21879 -1.64116,0.42365 -2.46986,0.68644 l -1.827,-18.53402 c -0.0101,-1.88393 -4.00475,-1.63333 -4.29737,0.20145 -2.12246,9.67331 -3.94459,17.07389 -5.45268,22.24581 -2.75038,1.01735 -4.52753,1.77447 -5.34513,2.2273 -1.16911,0.70946 0.74208,3.00669 1.71788,2.60047 0.17447,-0.0553 1.61637,-0.65775 2.44765,-1.06652 -1.45418,4.57415 -3.10502,8.82356 -4.90892,12.73441 l -0.0599,0.11578 -0.0898,0.17365 c -0.49781,1.17401 0.0315,1.49003 1.60171,0.9921 1.35209,-0.42877 1.80966,-0.96098 2.61278,-2.23182 1.24959,-1.99308 2.77474,-6.49296 4.64643,-13.42538 l 0.13085,-0.0415 c 1.86438,-0.78479 3.87329,-1.56701 6.05666,-2.40456 l 0.15465,1.88649 0.1709,1.78455 c 0.0521,0.32218 0.0991,0.93634 0.15723,1.74052 l 0.20341,1.58069 0.19232,1.39066 c 0.11796,0.68843 0.19746,1.09871 0.28212,1.21703 0.0846,0.11832 0.23771,0.45688 0.34457,0.95527 0.13937,0.29452 0.36598,0.56138 0.65246,0.71247 0.70123,0.40668 1.44012,0.31753 2.24404,-0.17935 0.52597,-0.31196 0.71926,-0.6152 0.47898,-0.92611 -0.52161,-0.75397 -1.1499,-4.47418 -1.8686,-11.26257 2.86498,-0.95689 4.71052,-1.49379 5.59394,-1.58039 0.20441,-0.11317 0.16594,-0.39134 -0.0145,-0.81802 -0.56265,-0.88611 -1.70003,-1.15447 -3.35486,-0.77486 z m -7.60548,-8.13683 0.66553,-2.4853 c 0.26825,3.64084 0.65368,7.19612 1.18363,10.75397 l 0.21967,1.47877 c -1.0904,0.34578 -2.73413,0.91539 -4.98846,1.67873 z m 26.90753,14.59677 c 0.47978,-0.15215 0.89631,-0.81651 1.33682,-2.02075 0.42684,-1.24828 0.75019,-2.36698 0.95637,-3.40013 0.20618,-1.03315 0.3388,-1.99459 0.48511,-2.91197 l 0.634,-3.97535 c 0.34138,-2.14057 0.59633,-3.47951 0.72123,-4.003 0.10012,-0.75758 0.6013,-1.30362 0.4645,-1.74412 -0.15047,-0.48455 -1.32375,-1.17703 -1.89076,-0.99723 -0.61062,0.19364 -0.91771,1.21041 -1.22222,2.08119 -0.22839,0.65308 -0.94784,3.73614 -1.8247,7.54657 l -0.9068,3.86829 c -0.35825,-0.99932 -0.8533,-2.43915 -1.44153,-4.33331 l -0.97126,-3.12756 c -0.36936,-1.18936 -0.74644,-1.94077 -1.10389,-2.16613 -0.31384,-0.2392 -1.00654,-0.30986 -2.00713,-0.13772 -0.18813,0.0113 -0.40621,0.0805 -0.62429,0.14963 -0.39255,0.12449 -0.54223,0.41389 -0.39175,0.89844 0.10944,0.3524 0.2052,0.66075 0.31721,0.86717 0.98415,2.39766 1.68954,4.20627 2.10251,5.3818 1.52877,4.30565 2.58389,6.77758 3.15169,7.37173 0.58148,0.6382 1.73513,0.80463 2.2149,0.65249 z m 13.1978,-5.63691 c 1.39571,-0.44261 2.74106,-2.12734 4.06598,-5.11207 l 0.75355,-1.73901 c 0.0898,-0.17365 0.16594,-0.39134 0.28826,-0.76885 0.32077,-0.97272 0.50812,-1.75795 0.26704,-2.84281 0.003,-0.14598 -0.0658,-0.36624 -0.1479,-0.63054 -0.2736,-0.88101 -0.94231,-1.49154 -1.53153,-1.69181 -0.58921,-0.20025 -1.86855,-0.61715 -2.47144,-0.86145 -0.44469,-0.1977 -0.67387,-0.31858 -0.71491,-0.45074 l -0.0274,-0.0881 c -0.0547,-0.1762 -0.22402,-0.41283 -0.52161,-0.75396 -0.52676,-0.462 -1.94805,-1.02744 -2.58861,-0.77592 -0.84495,0.36475 -1.44546,2.4423 -1.83641,4.11471 -0.2498,1.04698 -0.5099,2.67789 -0.57235,2.93964 -0.47481,2.32804 -0.46726,4.35796 0.0936,6.16402 0.53351,1.71796 1.55968,2.55386 3.10586,2.59581 0.66277,0.12854 1.27082,0.0809 1.83782,-0.0989 z m -1.5349,-2.31978 c -0.21808,0.0692 -0.40364,-0.0656 -0.51308,-0.41795 -0.12312,-0.39645 -0.15385,-1.11254 -0.0922,-2.14824 0.13877,-2.9473 0.63578,-4.89529 1.46111,-5.78606 0.47125,-0.48816 1.35467,-0.57475 2.10723,-0.6199 l 0.56443,-0.0338 c 0.22918,0.12087 0.37114,0.26941 0.43953,0.48966 0.21888,0.7048 -0.25672,2.25889 -1.3832,4.64843 -1.12647,2.38953 -1.97321,3.6742 -2.58383,3.86784 z m 11.77431,-0.34666 c 0.62429,-0.14963 0.9185,-0.43645 0.86894,-0.90461 -0.0547,-0.1762 -0.39076,-0.79546 -0.45658,-1.16169 -0.0137,-0.044 -0.13502,-1.36045 -0.39396,-3.89131 -0.0331,-3.03795 0.0739,-5.00744 0.2476,-5.83672 l 1.69249,-0.87544 1.66256,-0.81756 c 0.0436,-0.0138 0.0872,-0.0277 0.11718,-0.0855 1.2264,-0.67924 2.18258,-1.61151 2.82492,-2.78297 0.4764,-0.78013 0.38064,-1.08848 -0.2736,-0.88101 -0.87232,0.27663 -2.64947,1.03375 -3.39094,1.26888 -0.47978,0.15215 -1.77715,0.75712 -2.43139,0.96459 0.15582,-2.27528 0.29875,-3.82064 0.41512,-4.68015 0.39114,-4.14026 0.61536,-6.19528 0.60168,-6.23934 0.0351,-0.34984 -0.26249,-0.69096 -0.84913,-1.03721 -0.58664,-0.34624 -1.13481,-0.41434 -1.61459,-0.2622 -0.0872,0.0277 -0.20441,0.11317 -0.36517,0.21261 -0.33783,0.30068 -0.57652,1.5377 -0.71608,3.71104 l -0.51266,5.29174 -0.32017,4.21453 c -1.13916,0.65159 -2.15601,0.92566 -2.40918,1.34466 -0.28052,0.3309 -0.2147,0.69714 0.004,1.40194 0.21888,0.70481 0.63363,0.96039 1.28787,0.75292 0.17446,-0.0553 0.84495,-0.36475 1.03311,-0.37597 -0.2474,3.36886 -0.12447,6.23318 0.44235,8.52123 0.18894,0.76269 0.39671,1.27746 0.71055,1.51666 0.51051,0.56393 1.15701,0.7944 1.82494,0.63099 z m 10.91769,-3.41385 c 0.39254,-0.12448 0.65859,-1.2734 0.78447,-3.4908 0.0728,-0.84567 0.24047,-2.15695 0.59038,-3.9615 0.14374,-0.77141 0.45083,-1.78817 0.94864,-2.96219 0.48413,-1.21807 0.93317,-2.08629 1.31719,-2.54679 1.43061,1.67542 2.40464,2.18913 3.84396,1.7327 0.61063,-0.19364 1.34535,-1.68474 0.92802,-1.79434 -1.16216,-0.50244 -2.18834,-1.33835 -3.04857,-2.56558 -0.81661,-1.24108 -2.23196,-1.32452 -2.88797,-0.19711 -1.3394,2.16673 -2.24779,4.48711 -2.68156,6.9473 0.17723,-2.66917 0.19447,-4.46501 0.0517,-5.3875 -0.12907,-0.87846 -0.4566,-1.1617 -2.46371,-1.29941 -0.24545,-0.019 -0.47977,0.15214 -0.61578,0.4856 -0.14969,0.28941 -0.25238,1.19296 -0.30808,2.71066 -0.0258,1.45983 0.0391,3.51996 0.23814,6.16659 l 0.0563,1.72411 c 0.0418,0.90612 0.11361,1.75435 0.18795,2.45659 0.0744,0.70226 0.12392,1.17042 0.19232,1.39067 0.27359,0.881 0.90385,1.21342 2.86657,0.591 z m 16.25252,-5.05717 c 2.26803,-0.71923 4.68156,-3.12981 5.64725,-5.41997 l 0.10607,-0.27558 c 0.4542,-1.16019 0.49959,-2.09397 0.20716,-2.72705 -0.0846,-0.11834 -0.14196,-0.14854 -0.17188,-0.0907 -1.76624,3.41502 -4.07371,5.55002 -6.90875,6.44906 -0.87232,0.27663 -1.53766,0.29406 -2.00971,0.008 -0.87311,-0.49733 -1.31601,-1.61498 -1.31503,-3.30887 0.89194,0.24941 1.84635,0.23709 2.80589,-0.0672 0.2617,-0.083 0.43616,-0.13832 0.55334,-0.22382 1.9867,-1.16229 2.98233,-3.51033 3.02097,-5.70007 0.0129,-0.7299 -0.0751,-1.47621 -0.29401,-2.18101 -0.0958,-0.30835 -0.17784,-0.57265 -0.27623,-0.735 -0.3634,-0.70737 -0.87648,-1.12532 -1.59654,-1.28408 -0.51824,-0.12599 -1.03905,-0.10599 -1.51883,0.0462 -1.70102,0.53943 -3.17464,2.11967 -4.47815,4.71051 -1.2599,2.57701 -1.56281,4.99571 -0.85147,7.28632 0.50616,1.62986 1.05255,2.61791 2.74663,3.2904 1.47859,0.59565 2.89392,0.6791 4.33325,0.22266 z m -4.01628,-7.53305 c 0.39016,-2.44636 3.1211,-6.45763 3.47082,-5.79432 0.21293,0.2228 0.0854,0.89227 -0.41236,2.0663 -0.4542,1.16018 -0.84336,1.91264 -1.15383,2.30144 -0.58247,1.05569 -1.24186,1.55512 -1.90463,1.42658 z"
       id="text1"
       style="font-size:45.9402px;font-family:Lumios;-inkscape-font-specification:Lumios;fill:#000000;fill-opacity:1;stroke-width:1.2758"
       inkscape:label="à votre"
       aria-label="À votre " />
    <path
       d="m 136.80453,301.14935 c 0.99144,-0.31182 1.20109,-0.85206 0.80901,-2.10421 -0.0946,-0.30224 -0.82646,-1.73212 -2.23858,-4.27605 -0.18085,-0.27513 -0.99046,-1.34852 -2.3054,-3.73331 -1.1045,-2.1664 -1.02495,-3.42459 -0.20595,-3.68218 0.43106,-0.13558 0.82744,0.0718 1.23225,0.60847 0.18084,0.27512 0.30507,0.52063 0.37267,0.73652 0.12168,0.3886 0.15205,1.09049 0.20613,1.2632 0.0676,0.21589 0.27803,0.43428 0.56116,0.58238 0.50963,0.26658 0.95166,0.31728 1.33962,0.19526 0.7759,-0.24403 0.94754,-1.05689 0.5149,-2.43857 -0.77062,-2.46112 -3.15987,-3.89143 -5.5062,-2.91633 -2.18997,1.02078 -2.86457,2.79813 -2.05338,5.38879 0.36503,1.16579 1.13997,2.5821 2.34087,4.14902 1.89725,2.58108 2.77192,4.01346 2.56736,4.26751 -0.54176,-0.0668 -1.34804,-0.52462 -2.53208,-1.43283 -1.18405,-0.9082 -1.87707,-1.30682 -2.17881,-1.21191 -0.12932,0.0407 -0.28823,0.13806 -0.43361,0.27866 -0.39305,0.40819 -0.51393,0.77823 -0.4193,1.08047 0.22984,0.73401 1.24401,1.55336 3.09913,2.48764 1.84161,0.89111 3.22178,1.21591 4.127,0.9312 0.18594,-0.0111 0.40147,-0.0788 0.70321,-0.17375 z m 9.31261,-3.83012 c 2.2415,-0.70498 4.62681,-3.06781 5.5812,-5.31259 l 0.10483,-0.27012 c 0.44888,-1.1372 0.49374,-2.05248 0.20474,-2.67302 -0.0837,-0.11598 -0.14029,-0.1456 -0.16988,-0.0889 -1.74558,3.34737 -4.02606,5.44008 -6.82794,6.3213 -0.86211,0.27115 -1.51968,0.28824 -1.9862,0.008 -0.8629,-0.48749 -1.30063,-1.58299 -1.29966,-3.24333 0.88152,0.24447 1.82475,0.23239 2.77308,-0.0659 0.25863,-0.0813 0.43106,-0.13558 0.54686,-0.21941 1.96347,-1.13927 2.94744,-3.44079 2.98564,-5.58714 0.0127,-0.71545 -0.0743,-1.44696 -0.29058,-2.13781 -0.0946,-0.30224 -0.17576,-0.56131 -0.27294,-0.72045 -0.35916,-0.69336 -0.86624,-1.10302 -1.57788,-1.25864 -0.51218,-0.1235 -1.0269,-0.10389 -1.50107,0.0452 -1.68112,0.52874 -3.13751,2.07767 -4.42577,4.61718 -1.24516,2.52597 -1.54454,4.89675 -0.84151,7.14198 0.50023,1.59757 1.04023,2.56605 2.71451,3.2252 1.46129,0.58386 2.86007,0.66565 4.28257,0.21825 z m -3.96931,-7.3838 c 0.3856,-2.3979 3.08459,-6.32971 3.43023,-5.67953 0.21043,0.21839 0.0845,0.8746 -0.40754,2.02536 -0.44889,1.1372 -0.8335,1.87476 -1.14034,2.25584 -0.57565,1.03479 -1.22733,1.52432 -1.88235,1.39833 z m 12.60649,4.57243 c 0.38796,-0.12202 0.6509,-1.24817 0.77531,-3.42164 0.0719,-0.82891 0.23766,-2.11422 0.58347,-3.88303 0.14205,-0.75612 0.44555,-1.75273 0.93754,-2.9035 0.47847,-1.19393 0.92226,-2.04496 1.30179,-2.49633 1.41388,1.64222 2.37651,2.14576 3.799,1.69837 0.60349,-0.18981 1.32962,-1.65136 0.91717,-1.75879 -1.14858,-0.49249 -2.16274,-1.31183 -3.01291,-2.51476 -0.80707,-1.21649 -2.20586,-1.29828 -2.8542,-0.1932 -1.32373,2.12381 -2.2215,4.39821 -2.6502,6.80967 0.17516,-2.61629 0.1922,-4.37655 0.0511,-5.28077 -0.12756,-0.86105 -0.45124,-1.13868 -2.4349,-1.27367 -0.24256,-0.0185 -0.47416,0.14913 -0.60858,0.47598 -0.14793,0.28367 -0.24942,1.16933 -0.30447,2.65696 -0.0255,1.43091 0.0386,3.45023 0.23535,6.04442 l 0.0556,1.68996 c 0.0414,0.88817 0.11228,1.71959 0.18576,2.40793 0.0735,0.68833 0.12247,1.14722 0.19007,1.36311 0.27039,0.86355 0.89327,1.18937 2.83303,0.57929 z m 15.31691,-4.01108 c 0.47416,-0.14913 0.88582,-0.80032 1.32118,-1.98071 0.42185,-1.22356 0.74141,-2.32009 0.94518,-3.33277 0.20377,-1.01268 0.33485,-1.95508 0.47944,-2.85429 l 0.62659,-3.89658 c 0.33739,-2.09817 0.58935,-3.41059 0.71279,-3.92371 0.099,-0.74256 0.59427,-1.27778 0.45907,-1.70956 -0.14872,-0.47495 -1.30827,-1.15371 -1.86864,-0.97746 -0.60348,0.1898 -0.90698,1.18642 -1.20794,2.03995 -0.22571,0.64015 -0.93675,3.66213 -1.80335,7.39706 l -0.8962,3.79166 c -0.35406,-0.97953 -0.84331,-2.39083 -1.42466,-4.24746 l -0.95991,-3.0656 c -0.36503,-1.1658 -0.7377,-1.90233 -1.09098,-2.12322 -0.31016,-0.23446 -0.99476,-0.30372 -1.98365,-0.13499 -0.18594,0.0111 -0.40147,0.0788 -0.617,0.14664 -0.38795,0.12201 -0.53588,0.40569 -0.38716,0.88063 0.10815,0.34543 0.20279,0.64767 0.3135,0.84999 0.97264,2.35017 1.66978,4.12295 2.07793,5.27519 1.51087,4.22034 2.55366,6.64329 3.11482,7.22568 0.57468,0.62556 1.71483,0.78869 2.189,0.63956 z m 9.80082,-21.62751 c 0.51727,-0.16269 0.92893,-0.81389 1.20539,-1.89686 0.27646,-1.08298 0.33485,-1.95507 0.15909,-2.51638 -0.18928,-0.60449 -0.45379,-0.99559 -0.79355,-1.17331 -0.62288,-0.32582 -1.17816,-0.43576 -1.56611,-0.31374 -0.56038,0.17625 -0.85624,0.7436 -0.94421,1.67243 -0.0449,0.91527 0.0126,1.70353 0.21534,2.35119 0.22984,0.73401 0.49181,1.26821 0.75887,1.51622 0.33721,0.32081 0.66344,0.45536 0.96518,0.36045 z m 4.09455,16.40349 c 1.09372,-0.43882 2.10042,-1.60921 3.02013,-3.51108 0.75572,-1.51828 1.10233,-2.52847 0.99672,-3.01697 -0.011,-0.18627 -0.14029,-0.1456 -0.31526,0.0517 l -0.83174,0.97304 c -0.4387,0.56485 -0.9205,1.14324 -1.38624,1.62173 -0.87485,0.98661 -2.46898,2.24685 -3.49078,1.85678 -0.45555,-0.0939 -0.8198,-0.50104 -1.04964,-1.23506 -0.60838,-1.94298 -0.65719,-4.82085 -0.11936,-8.54723 0.15812,-0.85604 -0.42166,-1.19541 -1.76637,-1.1045 -0.97027,-0.0743 -1.37684,0.29075 -1.47499,1.79194 -0.18613,2.43003 -0.20826,4.47647 -0.01,6.16894 0.22886,2.39436 1.00125,3.95377 2.33068,4.72139 1.3159,0.72443 2.71469,0.80622 4.09662,0.2293 z m 9.13585,-2.73107 c 1.37939,-0.43383 2.44861,-1.10212 3.16456,-1.99132 1.05236,-1.327 1.72774,-2.34573 2.03967,-3.01299 0.49199,-1.15076 0.63658,-2.04997 0.40675,-2.78399 -0.0676,-0.21588 -0.15125,-0.33186 -0.26706,-0.24802 -2.73446,3.5161 -5.02847,5.56563 -6.88202,6.1486 -0.56037,0.17624 -1.04551,0.1391 -1.45541,-0.11142 -0.3668,-0.26408 -0.63131,-0.65518 -0.78003,-1.13012 -0.36503,-1.1658 -0.19164,-2.88037 0.57681,-5.11411 0.57232,-1.65033 1.00514,-2.68761 1.31198,-3.0687 0.32035,-0.3379 0.53842,-0.54878 0.71085,-0.60301 0.17242,-0.0542 0.75474,0.14206 1.31257,0.10891 0.31525,-0.0517 0.5012,-0.0628 0.63052,-0.10348 0.56037,-0.17625 0.78099,-0.53022 0.61875,-1.04835 -0.22983,-0.73401 -0.84763,-1.34602 -1.79673,-1.80638 -0.82235,-0.35795 -1.60668,-0.44328 -2.29638,-0.22636 -0.86211,0.27115 -1.69131,1.1011 -2.53069,2.50341 -1.4311,2.53701 -2.31123,6.22876 -1.4054,9.12166 0.45967,1.46804 1.32591,2.57105 2.62829,3.25231 1.07589,0.56279 2.41805,0.61496 4.01297,0.11333 z m 11.25062,-3.53847 c 2.2415,-0.70499 4.62681,-3.06781 5.58121,-5.3126 l 0.10482,-0.27012 c 0.44888,-1.13719 0.49375,-2.05248 0.20474,-2.67302 -0.0837,-0.11598 -0.14026,-0.14561 -0.16987,-0.0889 -1.74558,3.34736 -4.02606,5.44007 -6.82794,6.3213 -0.86212,0.27114 -1.51968,0.28823 -1.9862,0.008 -0.86291,-0.48748 -1.30064,-1.58299 -1.29966,-3.24333 0.88151,0.24447 1.82474,0.23239 2.77308,-0.0659 0.25863,-0.0813 0.43105,-0.13557 0.54686,-0.21941 1.96347,-1.13927 2.94744,-3.44079 2.98564,-5.58714 0.0127,-0.71545 -0.0743,-1.44696 -0.29058,-2.13781 -0.0946,-0.30224 -0.17576,-0.56131 -0.27293,-0.72046 -0.35915,-0.69335 -0.86624,-1.10302 -1.57787,-1.25864 -0.51218,-0.12349 -1.0269,-0.10389 -1.50107,0.0453 -1.68113,0.52873 -3.13751,2.07767 -4.42577,4.61718 -1.24517,2.52596 -1.54454,4.89674 -0.84151,7.14198 0.50023,1.59756 1.04023,2.56604 2.71451,3.2252 1.46128,0.58385 2.86007,0.66564 4.28256,0.21825 z m -3.9693,-7.38381 c 0.3856,-2.3979 3.08459,-6.3297 3.43022,-5.67953 0.21044,0.21839 0.0845,0.8746 -0.40753,2.02536 -0.44889,1.1372 -0.83351,1.87476 -1.14034,2.25584 -0.57566,1.03479 -1.22733,1.52432 -1.88235,1.39833 z m 24.15445,-8.45065 c -0.13755,-2.70766 -0.0114,-5.78284 0.27878,-9.24161 0.33327,-3.47233 0.61325,-6.35874 0.89657,-8.62961 0.2833,-2.27087 0.39243,-3.58579 0.27076,-3.97439 -0.41912,-1.33851 -2.08496,-1.66831 -2.77466,-1.45139 -0.30174,0.0949 -0.47671,0.29222 -0.4818,0.5784 -0.003,0.14309 -0.14732,3.46128 -0.52055,9.98167 -0.37323,6.52039 -0.39888,10.37027 -0.13613,11.66309 0.21379,0.83393 0.71832,1.38669 1.51362,1.65828 0.63894,0.22591 0.95675,0.0311 0.95341,-0.58444 z m -1.15695,9.61267 c 0.56038,-0.17625 1.0557,-0.71147 1.49949,-1.56249 0.4438,-0.85103 0.57232,-1.65032 0.36952,-2.29799 -0.33799,-1.07943 -1.03102,-1.47805 -2.02245,-1.16623 -1.5087,0.4745 -2.24247,2.36532 -1.86392,3.57429 0.338,1.07944 1.15525,1.72357 2.01736,1.45242 z"
       id="text1-5"
       style="font-size:45.2161px;font-family:Lumios;-inkscape-font-specification:Lumios;fill:#000000;fill-opacity:1;stroke-width:1.25569"
       inkscape:label="service"
       aria-label="service !" />
  </g>
</svg>
