<?xml version="1.0" encoding="UTF-8" standalone="no"?>
<!-- Created with Inkscape (http://www.inkscape.org/) -->

<svg
   version="1.1"
   id="svg1"
   width="351.08572"
   height="351.08572"
   viewBox="0 0 351.08572 351.08572"
   sodipodi:docname="medaille2.svg"
   inkscape:version="1.3.1 (9b9bdc1480, 2023-11-25, custom)"
   xmlns:inkscape="http://www.inkscape.org/namespaces/inkscape"
   xmlns:sodipodi="http://sodipodi.sourceforge.net/DTD/sodipodi-0.dtd"
   xmlns="http://www.w3.org/2000/svg"
   xmlns:svg="http://www.w3.org/2000/svg">
  <defs
     id="defs1" />
  <sodipodi:namedview
     id="namedview1"
     pagecolor="#505050"
     bordercolor="#eeeeee"
     borderopacity="1"
     inkscape:showpageshadow="0"
     inkscape:pageopacity="0"
     inkscape:pagecheckerboard="0"
     inkscape:deskcolor="#505050"
     inkscape:zoom="2.3242187"
     inkscape:cx="175.54286"
     inkscape:cy="175.54286"
     inkscape:window-width="1850"
     inkscape:window-height="1016"
     inkscape:window-x="0"
     inkscape:window-y="0"
     inkscape:window-maximized="1"
     inkscape:current-layer="svg1" />
  <path
     style="fill:#ffffff"
     d="m 197.21443,348.85715 c -1.77126,-1.80139 -4.13744,-7.35467 -12.34432,-28.97143 -5.58417,-14.70857 -10.22982,-26.82544 -10.32366,-26.92637 -0.0938,-0.10094 -4.44392,11.47049 -9.66684,25.71428 -10.9694,29.91542 -11.22446,30.35495 -17.6149,30.35495 -3.00998,0 -4.18088,-0.3555 -6.06857,-1.84253 -1.28645,-1.01339 -8.49738,-9.65339 -16.0243,-19.2 -9.07656,-11.51206 -14.113,-17.35747 -14.9553,-17.35747 -0.69849,0 -10.490221,1.54286 -21.759395,3.42857 -11.269174,1.88572 -22.091427,3.42857 -24.049451,3.42857 -3.164912,0 -3.805682,-0.26045 -5.773192,-2.34662 -2.143218,-2.27247 -3.091643,-4.87274 -3.091643,-8.47627 0,-0.95545 9.77476,-28.30259 21.721689,-60.77143 11.94693,-32.46884 21.845866,-59.66931 21.997636,-60.44549 0.242125,-1.23827 -1.925318,-2.45653 -17.684161,-9.93975 C 62.490562,166.44231 60.15458,164.8346 59.27723,160.15792 c -0.370073,-1.97266 0.878321,-6.04123 7.210816,-23.50038 L 74.14642,115.54286 66.558925,94.727919 C 61.780682,81.61966 58.97143,72.928136 58.97143,71.253022 c 0,-4.461732 1.934169,-5.762163 24.342858,-16.366827 l 20.571432,-9.735202 9.25714,-19.613804 C 122.76869,5.1422102 124.65891,2.2032685 129.09117,0.74049144 131.2439,0.03002579 132.99997,0.54919027 152.85066,7.7647422 L 174.28562,15.55616 195.63443,7.7780801 C 207.37628,3.500136 217.54876,0 218.23996,0 c 1.58203,0 4.78237,1.6322777 5.94354,3.0313985 0.48598,0.5855756 5.18341,10.0944935 10.43872,21.1309285 5.25531,11.036435 9.92664,20.429244 10.38074,20.872909 0.45409,0.443665 7.61419,4.029157 15.91133,7.967759 8.29715,3.938602 17.20879,8.185221 19.80366,9.436931 5.31301,2.562887 8.65349,6.329607 8.65349,9.75768 0,1.126939 -3.38747,11.356412 -7.5277,22.732161 l -7.52769,20.683183 7.86515,21.67765 c 8.26324,22.77483 8.48943,23.83398 5.79698,27.14445 -0.72041,0.88577 -9.4941,5.49702 -20.00218,10.51268 -10.29537,4.91413 -18.95978,9.16615 -19.25425,9.44893 -0.29447,0.28278 10.02392,28.10635 22.92975,61.83017 15.14546,39.57611 23.4744,62.21732 23.49124,63.85805 0.0345,3.35869 -1.94464,5.96558 -6.11391,8.0532 l -3.35704,1.68093 -23.31169,-3.87227 c -21.64293,-3.59509 -23.37095,-3.78904 -24.13955,-2.70951 -5.11772,7.18812 -28.01221,35.13247 -29.7448,36.30564 -1.60319,1.08555 -3.28506,1.54285 -5.67429,1.54285 -2.92445,0 -3.69987,-0.3093 -5.58703,-2.22857 z m -33.27548,-78.22211 c 12.12242,-33.02288 18.65542,-51.69865 18.1779,-51.96483 -0.40998,-0.22854 -2.35289,-0.97928 -4.31758,-1.66831 l -3.57217,-1.25279 -21.11874,7.6683 c -11.61531,4.21757 -22.10853,7.66831 -23.31826,7.66831 -1.48242,0 -2.98975,-0.69384 -4.62338,-2.12818 -1.33312,-1.17049 -2.42386,-2.35989 -2.42386,-2.6431 0,-0.28322 -2.34045,-5.41186 -5.201,-11.39698 -3.63937,-7.61466 -5.36699,-10.57853 -5.75385,-9.87118 -1.35856,2.48408 -33.61762,91.40983 -33.281957,91.74549 0.206929,0.20693 7.699149,-0.76775 16.649378,-2.16595 17.724389,-2.7689 22.396509,-3.05189 24.624269,-1.49151 0.80095,0.56101 6.63249,7.50098 12.95898,15.42216 6.32649,7.92119 11.67692,14.22795 11.88984,14.01502 0.21292,-0.21292 8.90262,-23.58432 19.31043,-51.93645 z m 51.40776,36.52458 c 11.0679,-13.79107 13.43052,-16.04136 17.68633,-16.84549 1.84675,-0.34894 28.10236,3.27815 35.59554,4.91735 0.84857,0.18563 1.54286,0.0154 1.54286,-0.37832 0,-1.17449 -33.12039,-91.19683 -33.54871,-91.18653 -0.21678,0.005 -2.55415,4.66819 -5.19415,10.36217 -3.23038,6.96732 -5.71455,11.33674 -7.59675,13.36195 -2.52011,2.7116 -3.10794,3.00926 -5.943,3.00926 -1.93486,0 -6.08039,-1.05107 -10.76675,-2.72984 l -7.62049,-2.72983 -0.67167,1.52983 c -0.36943,0.84141 -3.86359,10.23917 -7.76481,20.88391 l -7.09313,19.35407 9.50948,26.24593 c 5.23022,14.43526 9.6497,26.63164 9.82107,27.10307 0.17137,0.47143 0.4677,0.85714 0.65853,0.85714 0.19082,0 5.31436,-6.1896 11.38565,-13.75467 z m -58.7663,-105.95568 c 10.5408,-3.8859 16.62124,-5.77536 18.58555,-5.77536 1.98264,0 8.28049,1.9817 19.62661,6.17578 9.18895,3.39669 17.10267,6.25097 17.58604,6.34286 0.82881,0.15756 6.02267,-10.13359 14.90507,-29.533 l 3.55179,-7.75722 18.70992,-8.82757 c 10.29045,-4.85517 18.81942,-8.93708 18.95326,-9.07093 0.13384,-0.13384 -2.67503,-8.17134 -6.24193,-17.86112 -3.95749,-10.7508 -6.48528,-18.63249 -6.48528,-20.22113 0,-1.59287 2.50568,-9.38244 6.45542,-20.06838 3.55049,-9.605756 6.25049,-17.68029 6,-17.943408 -0.25048,-0.263119 -8.60155,-4.336103 -18.55793,-9.051075 -9.95638,-4.714973 -18.32577,-8.819695 -18.59865,-9.121603 -0.27288,-0.301909 -4.26623,-8.571783 -8.87411,-18.377497 -4.60788,-9.805715 -8.61043,-18.073652 -8.89455,-18.373194 -0.28411,-0.299542 -8.50071,2.400458 -18.2591,6 -9.75839,3.599542 -18.70637,6.544622 -19.8844,6.544622 -1.17803,0 -10.0867,-2.932582 -19.79704,-6.51685 -9.71034,-3.584267 -17.88106,-6.377239 -18.15716,-6.206603 -0.27609,0.170636 -4.30692,8.426075 -8.95738,18.345422 -4.65047,9.919346 -8.66106,18.272397 -8.91242,18.562336 -0.25135,0.289939 -8.60278,4.383786 -18.55872,9.09744 -9.955937,4.713653 -18.330671,8.799244 -18.610519,9.079092 -0.279847,0.279847 2.404583,8.374571 5.965401,17.988275 3.759595,10.150373 6.479263,18.534853 6.486253,19.996503 0.0072,1.50864 -2.598455,9.58928 -6.503909,20.16977 -3.583772,9.709 -6.378618,17.79005 -6.210768,17.9579 0.472973,0.47298 34.144982,16.36023 35.739542,16.86276 1.00718,0.31742 2.9654,3.74149 6.82048,11.92604 2.97421,6.31443 7.03946,14.94635 9.03389,19.18206 l 3.62623,7.70128 1.89614,-0.72592 c 1.04288,-0.39926 8.9459,-3.32483 17.56227,-6.50128 z"
     id="path1" />
</svg>
