<?xml version="1.0" encoding="UTF-8" standalone="no"?>
<!-- Created with Inkscape (http://www.inkscape.org/) -->

<svg
   version="1.1"
   id="svg1"
   width="512"
   height="512"
   viewBox="0 0 512 512"
   sodipodi:docname="money.svg"
   inkscape:version="1.3.1 (9b9bdc1480, 2023-11-25, custom)"
   xmlns:inkscape="http://www.inkscape.org/namespaces/inkscape"
   xmlns:sodipodi="http://sodipodi.sourceforge.net/DTD/sodipodi-0.dtd"
   xmlns="http://www.w3.org/2000/svg"
   xmlns:svg="http://www.w3.org/2000/svg">
  <defs
     id="defs1" />
  <sodipodi:namedview
     id="namedview1"
     pagecolor="#505050"
     bordercolor="#eeeeee"
     borderopacity="1"
     inkscape:showpageshadow="0"
     inkscape:pageopacity="0"
     inkscape:pagecheckerboard="0"
     inkscape:deskcolor="#505050"
     inkscape:zoom="1.59375"
     inkscape:cx="256"
     inkscape:cy="256"
     inkscape:window-width="1850"
     inkscape:window-height="1016"
     inkscape:window-x="0"
     inkscape:window-y="0"
     inkscape:window-maximized="1"
     inkscape:current-layer="svg1" />
  <path
     style="fill:#ffffff"
     d="M 195.74014,483.00872 C 92.317115,477.84274 46.851922,454.39567 31.872948,398.5 26.6734,379.09732 25.454041,349.93531 29.015328,330.1576 35.627126,293.43878 56.416944,254.51336 85.832045,223.77791 107.89657,200.72298 135.2513,182.18918 157.35374,175.31943 l 5.85374,-1.81943 -0.57927,-7.83852 c -0.78447,-10.61541 -3.11426,-19.57704 -7.61213,-29.28031 C 149.68341,124.87696 144.064,116.9808 133.03909,105.5 117.43072,89.246208 114,83.679248 114,74.60562 c 0,-4.070313 0.6057,-6.219069 2.56824,-9.111036 6.31674,-9.308247 13.08206,-11.412691 40.21424,-12.509192 25.69496,-1.038419 29.61338,-2.099558 36.71277,-9.942105 15.88146,-17.543946 22.14876,-21.541068 33.66812,-21.472648 5.61805,0.03337 7.8143,0.612949 14,3.69454 4.14371,2.064315 10.95739,6.827553 15.65635,10.944891 C 269.29543,47.141573 270.67517,48 275.76952,48 c 2.46057,0 10.38152,-1.302879 17.60212,-2.895287 18.21316,-4.016674 25.33154,-4.623627 31.88443,-2.718648 C 333.63371,44.821509 338,50.478528 338,58.897238 338,65.46807 335.33252,72.013979 327.83463,83.842737 314.57351,104.76363 309.75805,114.85746 305.90885,129.80192 304.05719,136.99098 302.02589,160 303.24288,160 c 0.30186,0 4.94947,-2.76586 10.32803,-6.14635 34.54633,-21.7128 62.28708,-25.54557 92.83856,-12.82696 9.06515,3.77383 12.59053,7.40298 12.59053,12.96114 0,3.05404 -0.62615,4.36125 -3.07673,6.42328 -4.06144,3.41748 -8.12092,3.32331 -16.061,-0.37256 -13.32857,-6.20405 -28.3071,-7.83439 -42.25617,-4.59939 -9.54275,2.21311 -11.06804,3.22346 -6.07683,4.02527 21.7659,3.49655 38.53587,11.64378 51.27548,24.91076 5.29222,5.51129 6.19525,6.9857 6.19525,10.11518 0,7.11091 -7.92978,11.73708 -14.31574,8.35169 -1.20134,-0.63687 -4.88426,-3.5992 -8.18426,-6.58297 -12.46914,-11.27423 -25.27754,-16.20161 -44,-16.92674 l -12,-0.46478 8.5,4.63826 c 20.47073,11.17042 41.39949,27.00138 57.65883,43.61438 12.77882,13.05675 18.94816,20.56933 27.92414,34.00398 20.6897,30.96695 30.39508,61.27047 30.4104,94.95174 0.0342,75.22883 -35.81125,111.19538 -122.49337,122.90714 -28.83839,3.89639 -98.37132,5.94316 -136.75986,4.02565 z M 303,462.02901 c 57.70439,-4.88084 88.49862,-14.66806 108.61468,-34.52062 6.77072,-6.68204 8.8742,-9.58178 12.70065,-17.50839 8.48414,-17.57519 11.25007,-33.19437 10.39908,-58.72359 -0.75457,-22.6368 -4.22627,-36.2621 -14.77818,-57.99959 -16.25644,-33.4891 -44.34668,-63.84658 -79.026,-85.40439 -9.73475,-6.05145 -27.45968,-14.655 -37.05149,-17.98454 l -6.64125,-2.30534 -7.85875,3.68547 c -35.0766,16.44968 -75.02928,17.96696 -109.53881,4.15994 -10.43646,-4.17556 -10.89804,-4.10932 -28.37419,4.07198 -50.49384,23.63821 -94.804442,82.61179 -103.497566,137.7463 -1.603424,10.16942 -0.671963,39.54329 1.576871,49.72703 6.043639,27.36835 18.586711,43.98592 42.179765,55.88145 23.82347,12.01171 52.77611,17.35787 111.29519,20.55087 12.73233,0.69472 87.7151,-0.33748 100,-1.37658 z m -72,-54.00996 c 0,-6.44437 -0.17294,-7.01427 -2.25,-7.41449 -10.82054,-2.08499 -14.12951,-3.02741 -19.30625,-5.49857 -8.86237,-4.23052 -14.81158,-10.02996 -18.89705,-18.42131 -1.92389,-3.95157 -3.79192,-9.54718 -4.15117,-12.43468 L 185.74234,359 h 8.12883 c 7.41037,0 8.12883,0.17345 8.12883,1.96249 0,4.09664 4.11294,12.74152 7.74357,16.27602 3.85504,3.75297 12.23943,8.06001 18.00643,9.24986 l 3.25,0.67054 V 363.118 339.07709 l -4,-1.03855 c -2.2,-0.5712 -5.9125,-1.5306 -8.25,-2.132 -6.20525,-1.59651 -13.65243,-4.86999 -18.47654,-8.12156 -14.30178,-9.63973 -13.92702,-36.10318 0.69383,-48.99388 6.85154,-6.04076 14.3047,-9.35365 25.28271,-11.23804 L 230,266.90937 V 260.95469 255 h 5.5 5.5 v 5.98095 c 0,5.72115 0.11945,6.00547 2.75,6.54546 11.54691,2.37035 18.1168,5.60266 24.43986,12.02413 4.52075,4.5911 9.93389,13.98915 11.34661,19.69946 l 0.68035,2.75 h -8.13316 c -7.96445,0 -8.15382,-0.0571 -9.12905,-2.75 C 259.54542,289.83597 250.6912,282.09459 243.25,282.02196 L 241,282 v 21.96146 21.96145 l 4.25,1.07235 c 22.43727,5.66132 30.80566,10.82139 37.30816,23.00474 1.4162,2.65346 1.87694,5.68109 1.90493,12.51765 0.0336,8.21497 -0.25612,9.61317 -3.25509,15.70802 -3.80755,7.73815 -8.95341,12.60238 -17.708,16.73885 -5.21061,2.46197 -8.47463,3.37107 -20.25,5.64004 -2.07706,0.40022 -2.25,0.97012 -2.25,7.41449 V 415 h -5 -5 z m 17.85239,-22.08081 C 260.55561,383.42835 267.2,375.52762 267.2,364.12142 c 0,-8.5034 -3.21587,-13.61945 -11.05247,-17.58312 -3.60287,-1.82229 -11.85234,-4.50977 -13.89753,-4.52748 -0.96328,-0.008 -1.25,5.15007 -1.25,22.48918 0,25.14977 -0.68854,23.26994 7.85239,21.43824 z M 230.99289,308.75 c -0.004,-7.8375 -0.29794,-17.32994 -0.65341,-21.09432 l -0.6463,-6.84432 -3.09659,0.61018 c -6.07716,1.19749 -13.62586,5.66557 -16.23637,9.61032 -3.67304,5.55033 -4.31426,14.17774 -1.46835,19.75618 2.41279,4.72947 4.61897,6.41174 12.84456,9.79434 9.69287,3.98599 9.26463,4.53342 9.25646,-11.83238 z M 255,182.1196 c 7.80646,-1.79376 20.50293,-6.06933 27.264,-9.18122 2.52041,-1.16005 2.69766,-1.58795 2.01124,-4.85528 -0.41402,-1.9707 -0.72071,-9.4331 -0.68154,-16.5831 0.0735,-13.42075 1.80391,-24.52948 5.4896,-35.2421 1.05418,-3.06405 1.9167,-5.74617 1.9167,-5.96026 0,-0.21409 -2.0826,1.20093 -4.62799,3.14448 -9.54183,7.28573 -21.69412,11.26551 -31.04389,10.16663 -7.76282,-0.91237 -13.79176,-4.39381 -21.82812,-12.60475 -9.05983,-9.25665 -11.35487,-10.5093 -15.82933,-8.63976 -1.84555,0.77112 -7.10522,4.63696 -11.68815,8.59076 -4.58294,3.95379 -10.45348,8.26344 -13.04566,9.577 -5.09502,2.58184 -15.47204,4.66382 -18.8468,3.7813 -2.59706,-0.67915 -2.5987,-0.71229 0.28887,5.81703 C 179.07464,140.74815 183,158.89127 183,169.97709 v 5.09398 l 4.55511,1.95255 c 6.27673,2.69052 14.38874,4.96936 23.36587,6.56397 10.385,1.8447 32.92978,1.09387 44.07902,-1.46799 z m -73.88838,-78.13397 c 2.0291,-0.56364 6.6299,-3.69055 10.5,-7.136284 14.62419,-13.020633 24.38547,-17.249006 34.31864,-14.866076 6.61469,1.586838 15.48305,7.506298 20.9383,13.975904 7.20026,8.539076 12.82564,9.841216 21.97321,5.086276 4.11413,-2.138537 32.11309,-24.772701 39.40823,-31.857332 8.24529,-8.007365 6.77649,-8.602523 -11.03665,-4.472054 -14.56648,3.377641 -27.30443,3.713169 -34.56974,0.910597 -3.074,-1.185786 -8.5793,-5.169352 -15,-10.853804 -11.6602,-10.323148 -18.33959,-14.218179 -22.72884,-13.254137 -1.76089,0.386757 -5.18719,3.052383 -8.66381,6.740354 -20.50719,21.753906 -23.85825,23.180826 -57.68973,24.564936 -10.73438,0.439163 -19.79537,1.076795 -20.13553,1.416959 -0.99188,0.991875 5.44864,9.744956 12.01777,16.332927 6.81037,6.829898 13.72004,11.234474 20.48588,13.058734 5.76833,1.55531 5.8444,1.55795 10.18227,0.353 z"
     id="path1" />
</svg>
